<?xml version="1.0" encoding="UTF-8"?>
<svg version="1.1" xmlns="http://www.w3.org/2000/svg" width="225" height="225">
<path d="M0 0 C74.25 0 148.5 0 225 0 C225 74.25 225 148.5 225 225 C150.75 225 76.5 225 0 225 C0 150.75 0 76.5 0 0 Z " fill="#FEFEFE" transform="translate(0,0)"/>
<path d="M0 0 C9.37239071 4.94794681 19.51797566 11.13863889 26.24327087 19.55609131 C28.34641498 22.1000854 29.9841655 23.75456704 33.25079346 24.54380798 C35.95832261 24.73934664 38.61015891 24.75242539 41.32421875 24.69921875 C42.30743607 24.70581009 43.29065338 24.71240143 44.30366516 24.7191925 C47.43230603 24.73663675 50.55895395 24.71469638 53.6875 24.6875 C56.82635604 24.67620829 59.96462406 24.67351286 63.10346985 24.6879425 C65.05333528 24.69534372 67.00333618 24.68705981 68.95304871 24.6615448 C69.8343898 24.66197281 70.7157309 24.66240082 71.6237793 24.6628418 C72.3984404 24.65584763 73.1731015 24.64885345 73.97123718 24.64164734 C76.66583322 25.11761015 77.368929 25.80396832 79 28 C79.37752342 30.87516022 79.37752342 30.87516022 79.38095093 34.45275879 C79.3856309 35.1106573 79.39031087 35.7685558 79.39513266 36.44639063 C79.40711751 38.6552195 79.39761234 40.86343193 79.38818359 43.07226562 C79.39224777 44.65403099 79.39758878 46.23579353 79.40411377 47.81755066 C79.41781163 52.11709466 79.4124786 56.41642314 79.40297651 60.71597099 C79.39539267 65.21092189 79.40242197 69.70585406 79.40713501 74.20080566 C79.41259629 81.7499524 79.4053912 89.29901115 79.39111328 96.84814453 C79.37478604 105.5817916 79.38007428 114.31522859 79.3965925 123.04887056 C79.41019677 130.54107861 79.41213222 138.03322333 79.40427649 145.52543974 C79.39959413 150.00298221 79.39899052 154.48042587 79.40888596 158.95796204 C79.41753798 163.16704986 79.4115662 167.37586626 79.39420319 171.5849247 C79.39022887 173.13171754 79.39138849 174.67853314 79.39799118 176.225317 C79.4061599 178.33293577 79.39594311 180.43967862 79.38095093 182.54724121 C79.37981985 183.72784874 79.37868877 184.90845627 79.37752342 186.12483978 C79 189 79 189 77.79881477 190.87948799 C75.37102446 192.39179945 73.69428682 192.37747665 70.8380127 192.38095093 C69.76962662 192.3894104 68.70124054 192.39786987 67.60047913 192.40658569 C66.4284343 192.400513 65.25638947 192.39444031 64.04882812 192.38818359 C62.81450546 192.39344055 61.5801828 192.39869751 60.30845642 192.40411377 C56.92198389 192.41506689 53.53606011 192.41248337 50.14961815 192.40297651 C46.60759105 192.39538704 43.06558758 192.40242354 39.52355957 192.40713501 C33.57507105 192.41259466 27.62669422 192.40539554 21.67822266 192.39111328 C14.79862978 192.37478627 7.91930361 192.38007464 1.0397172 192.3965925 C-4.86439852 192.41020148 -10.76843389 192.41212994 -16.67256021 192.40427649 C-20.19995909 192.3995967 -23.72723256 192.39898341 -27.25462341 192.40888596 C-31.18613065 192.41915181 -35.11733856 192.40492774 -39.04882812 192.38818359 C-40.22087296 192.39425629 -41.39291779 192.40032898 -42.60047913 192.40658569 C-44.20305824 192.39389648 -44.20305824 192.39389648 -45.8380127 192.38095093 C-46.76789253 192.37981985 -47.69777237 192.37868877 -48.65583038 192.37752342 C-51 192 -51 192 -52.79881477 190.87948799 C-54.58127244 188.09048617 -54.37779569 185.84065161 -54.38095093 182.54724121 C-54.38797089 181.56039345 -54.38797089 181.56039345 -54.39513266 180.55360937 C-54.40711751 178.3447805 -54.39761234 176.13656807 -54.38818359 173.92773438 C-54.39224777 172.34596901 -54.39758878 170.76420647 -54.40411377 169.18244934 C-54.41781163 164.88290534 -54.4124786 160.58357686 -54.40297651 156.28402901 C-54.39539267 151.78907811 -54.40242197 147.29414594 -54.40713501 142.79919434 C-54.41259629 135.2500476 -54.4053912 127.70098885 -54.39111328 120.15185547 C-54.37478604 111.4182084 -54.38007428 102.68477141 -54.3965925 93.95112944 C-54.41019677 86.45892139 -54.41213222 78.96677667 -54.40427649 71.47456026 C-54.39959413 66.99701779 -54.39899052 62.51957413 -54.40888596 58.04203796 C-54.41753798 53.83295014 -54.4115662 49.62413374 -54.39420319 45.4150753 C-54.39022887 43.86828246 -54.39138849 42.32146686 -54.39799118 40.774683 C-54.4061599 38.66706423 -54.39594311 36.56032138 -54.38095093 34.45275879 C-54.37981985 33.27215126 -54.37868877 32.09154373 -54.37752342 30.87516022 C-54 28 -54 28 -52.59782219 26.11867905 C-50.54144682 24.67895437 -49.32203227 24.64473007 -46.82324219 24.67871094 C-45.98517029 24.68151062 -45.14709839 24.6843103 -44.28363037 24.68719482 C-42.92893646 24.71054901 -42.92893646 24.71054901 -41.546875 24.734375 C-39.62890428 24.73160259 -37.71093495 24.72765919 -35.79296875 24.72265625 C-32.7731637 24.73099419 -29.75441499 24.74994066 -26.73486328 24.79052734 C-23.81719637 24.82350343 -20.90212857 24.81298687 -17.984375 24.796875 C-16.64182648 24.83237457 -16.64182648 24.83237457 -15.27215576 24.86859131 C-10.25067254 24.81068999 -7.65941221 24.20405862 -4.06347656 20.57519531 C-3.27629242 19.64625458 -3.27629242 19.64625458 -2.47320557 18.69854736 C-1 17 -1 17 2 15 C1.855625 14.25234375 1.71125 13.5046875 1.5625 12.734375 C1.376875 11.74953125 1.19125 10.7646875 1 9.75 C0.814375 8.77546875 0.62875 7.8009375 0.4375 6.796875 C0 4 0 4 0 0 Z " fill="#0D090A" transform="translate(100,17)"/>
<path d="M0 0 C17.86412975 10.34985295 31.35655565 27.02962248 41 45 C41.99 44.01 42.98 43.02 44 42 C49.13952308 52.52378536 50.27478422 62.74252812 50.3125 74.3125 C50.32059692 75.85151978 50.32059692 75.85151978 50.32885742 77.42163086 C50.27407676 83.28316125 49.68473993 88.38196286 48 94 C49.65 93.67 51.3 93.34 53 93 C47.68051417 108.14224009 35.34216556 119.3372448 21.33984375 126.328125 C11.88081578 130.28447838 1.18357665 130.52970453 -8.50390625 127.09375 C-22.9583564 120.76003162 -32.15923623 111.58496856 -38.27294922 96.94433594 C-41.77287299 87.58456667 -44.18425943 77.1092733 -44.0625 67.125 C-44.05347656 66.15820312 -44.04445312 65.19140625 -44.03515625 64.1953125 C-44.01775391 63.10863281 -44.01775391 63.10863281 -44 62 C-41 65 -41 65 -38 68 C-38.04253906 66.98164062 -38.08507812 65.96328125 -38.12890625 64.9140625 C-37.65737589 50.59668599 -28.07729609 35.56198842 -19 25 C-17.89591797 23.69675781 -17.89591797 23.69675781 -16.76953125 22.3671875 C-12.83910257 17.85081552 -9.23357011 13.95227032 -4 11 C-4.66 14.63 -5.32 18.26 -6 22 C-3.525 17.545 -3.525 17.545 -1 13 C-0.01 13.66 0.98 14.32 2 15 C1.38487182 9.99109914 0.7282448 4.99367864 0 0 Z " fill="#E7E7E6" transform="translate(107,27)"/>
<path d="M0 0 C1.34362885 0.00031689 2.68728332 0.01162897 4.03076172 0.03173828 C4.73820526 0.03456818 5.4456488 0.03739807 6.17453003 0.04031372 C8.43667432 0.05151941 10.69842437 0.07662399 12.96044922 0.10205078 C14.49299559 0.11208011 16.02554816 0.12120604 17.55810547 0.12939453 C21.31737223 0.15145992 25.07634386 0.18599183 28.83544922 0.22705078 C21.83544922 11.22705078 21.83544922 11.22705078 20.1640625 13.84472656 C15.86411209 20.6289586 12.85166797 27.80415783 9.83544922 35.22705078 C7.5002014 32.96964455 5.64839849 30.94647469 3.83544922 28.22705078 C3.2931777 53.56642551 3.54784704 76.97949961 21.27294922 96.97705078 C27.01378065 102.01778082 32.8008677 106.19490358 39.83544922 109.22705078 C40.48771484 109.52740234 41.13998047 109.82775391 41.81201172 110.13720703 C52.4073275 114.40311132 63.60664393 113.14925938 73.97631836 109.05639648 C93.0798032 100.72803571 103.94806032 83.28658471 112.83544922 65.22705078 C110.19544922 65.55705078 107.55544922 65.88705078 104.83544922 66.22705078 C104.85639648 65.66010498 104.87734375 65.09315918 104.89892578 64.5090332 C105.56519297 43.55324331 102.01838174 26.4661365 93.83544922 7.22705078 C93.17544922 9.53705078 92.51544922 11.84705078 91.83544922 14.22705078 C87.99028307 10.67766665 84.68422839 6.61417071 81.83544922 2.22705078 C81.83544922 1.56705078 81.83544922 0.90705078 81.83544922 0.22705078 C86.64093519 0.17768195 91.44627416 0.14134635 96.25195312 0.1171875 C97.88739594 0.10711824 99.52282071 0.09346197 101.15820312 0.07617188 C103.50639292 0.05196373 105.85434509 0.04057721 108.20263672 0.03173828 C108.93602264 0.02141571 109.66940857 0.01109314 110.42501831 0.00045776 C112.23007619 0.0000571 114.03452752 0.10492323 115.83544922 0.22705078 C118.3123703 2.70397186 118.08636785 3.40921512 118.0894165 6.81994629 C118.09505615 7.78743301 118.1006958 8.75491974 118.10650635 9.75172424 C118.10245789 10.81672653 118.09840942 11.88172882 118.09423828 12.97900391 C118.09774292 14.09774399 118.10124756 15.21648407 118.1048584 16.36912537 C118.11369035 20.0822462 118.10782132 23.79517787 118.10107422 27.50830078 C118.10242045 30.07897987 118.10436062 32.6496587 118.10687256 35.22033691 C118.10982581 40.61404064 118.10570931 46.00767273 118.09619141 51.40136719 C118.08530654 57.64187077 118.08883201 63.88224367 118.09984422 70.12274408 C118.11000447 76.11992866 118.10894091 82.11704917 118.10308075 88.11424255 C118.10174274 90.66922524 118.10339721 93.22421124 118.10803986 95.77919006 C118.11309609 99.34458359 118.10540741 102.90972313 118.09423828 106.47509766 C118.09828674 107.54009995 118.10233521 108.60510223 118.10650635 109.70237732 C118.1008667 110.66986404 118.09522705 111.63735077 118.0894165 112.63415527 C118.08866245 113.4777636 118.0879084 114.32137192 118.0871315 115.19054413 C117.83544922 117.22705078 117.83544922 117.22705078 115.83544922 119.22705078 C113.73647308 119.47873306 113.73647308 119.47873306 111.09069824 119.48101807 C110.0895549 119.48665771 109.08841156 119.49229736 108.05693054 119.49810791 C106.9545253 119.49405945 105.85212006 119.49001099 104.71630859 119.48583984 C102.97967705 119.4910968 102.97967705 119.4910968 101.20796204 119.49645996 C97.36498085 119.50529261 93.52218241 119.49942263 89.67919922 119.49267578 C87.01883717 119.49402199 84.35848076 119.49595881 81.69812012 119.49847412 C76.11610926 119.50211537 70.53415127 119.49731052 64.95214844 119.48779297 C58.49352007 119.47690808 52.03501796 119.48043355 45.57639265 119.49144578 C40.03665315 119.50051415 34.49695172 119.50180615 28.9572072 119.49656844 C25.64614464 119.49344624 22.33515463 119.49382843 19.02409363 119.49964142 C15.33417109 119.50469722 11.64449401 119.49700955 7.95458984 119.48583984 C6.8521846 119.48988831 5.74977936 119.49393677 4.6139679 119.49810791 C3.61282455 119.49246826 2.61168121 119.48682861 1.5802002 119.48101807 C0.27054165 119.47988699 0.27054165 119.47988699 -1.06557465 119.47873306 C-3.16455078 119.22705078 -3.16455078 119.22705078 -5.16455078 117.22705078 C-5.41623306 115.19054413 -5.41623306 115.19054413 -5.41851807 112.63415527 C-5.42415771 111.66666855 -5.42979736 110.69918182 -5.43560791 109.70237732 C-5.43155945 108.63737503 -5.42751099 107.57237274 -5.42333984 106.47509766 C-5.42684448 105.35635757 -5.43034912 104.23761749 -5.43395996 103.0849762 C-5.44279191 99.37185536 -5.43692288 95.65892369 -5.43017578 91.94580078 C-5.43152201 89.3751217 -5.43346218 86.80444286 -5.43597412 84.23376465 C-5.43892737 78.84006092 -5.43481087 73.44642883 -5.42529297 68.05273438 C-5.4144081 61.8122308 -5.41793358 55.57185789 -5.42894578 49.33135748 C-5.43910604 43.3341729 -5.43804247 37.33705239 -5.43218231 31.33985901 C-5.43084431 28.78487632 -5.43249878 26.22989032 -5.43714142 23.6749115 C-5.44219765 20.10951797 -5.43450897 16.54437843 -5.42333984 12.97900391 C-5.42738831 11.91400162 -5.43143677 10.84899933 -5.43560791 9.75172424 C-5.42996826 8.78423752 -5.42432861 7.81675079 -5.41851807 6.81994629 C-5.41776402 5.97633797 -5.41700996 5.13272964 -5.41623306 4.26355743 C-4.96255215 0.59256324 -3.49762061 0.25094794 0 0 Z " fill="#53BCDC" transform="translate(56.16455078125,47.77294921875)"/>
<path d="M0 0 C0.80244141 0.00966797 1.60488281 0.01933594 2.43164062 0.02929688 C3.26501953 0.05443359 4.09839844 0.07957031 4.95703125 0.10546875 C6.22450195 0.12577148 6.22450195 0.12577148 7.51757812 0.14648438 C9.60183509 0.18181076 11.68576402 0.23561736 13.76953125 0.29296875 C14.09953125 0.95296875 14.42953125 1.61296875 14.76953125 2.29296875 C15.75953125 1.63296875 16.74953125 0.97296875 17.76953125 0.29296875 C20.75569079 -0.1286464 23.7567138 -0.03137409 26.76953125 -0.01953125 C27.99929687 -0.04370117 27.99929687 -0.04370117 29.25390625 -0.06835938 C30.0428125 -0.06900391 30.83171875 -0.06964844 31.64453125 -0.0703125 C32.36382812 -0.07329346 33.083125 -0.07627441 33.82421875 -0.0793457 C36.42280455 0.41799909 37.2616489 1.12413275 38.76953125 3.29296875 C39.1418457 5.80493164 39.1418457 5.80493164 39.1328125 8.765625 C39.13216797 9.82974609 39.13152344 10.89386719 39.13085938 11.99023438 C39.11474609 13.10076172 39.09863281 14.21128906 39.08203125 15.35546875 C39.08525391 16.46986328 39.08847656 17.58425781 39.09179688 18.73242188 C39.03647264 27.02602736 39.03647264 27.02602736 36.76953125 29.29296875 C33.46873087 29.8626742 30.11335934 29.89899837 26.76953125 30.04296875 C25.84140625 30.09839844 24.91328125 30.15382812 23.95703125 30.2109375 C23.07015625 30.25347656 22.18328125 30.29601562 21.26953125 30.33984375 C20.45484375 30.37948242 19.64015625 30.41912109 18.80078125 30.45996094 C16.76953125 30.29296875 16.76953125 30.29296875 14.76953125 28.29296875 C14.43953125 28.95296875 14.10953125 29.61296875 13.76953125 30.29296875 C11.01893744 30.37404521 8.27074104 30.43349688 5.51953125 30.48046875 C4.74222656 30.50560547 3.96492188 30.53074219 3.1640625 30.55664062 C2.03291016 30.57114258 2.03291016 30.57114258 0.87890625 30.5859375 C-0.1579834 30.60950317 -0.1579834 30.60950317 -1.21582031 30.63354492 C-3.98458252 30.16548587 -5.27362505 29.30205239 -7.23046875 27.29296875 C-7.73217773 24.796875 -7.73217773 24.796875 -7.7265625 21.85546875 C-7.72720703 20.79585937 -7.72785156 19.73625 -7.72851562 18.64453125 C-7.70853516 17.53851563 -7.68855469 16.4325 -7.66796875 15.29296875 C-7.67505859 14.18695313 -7.68214844 13.0809375 -7.68945312 11.94140625 C-7.62557227 3.86293537 -7.62557227 3.86293537 -5.96777344 1.47143555 C-3.80659548 0.00544257 -2.59603907 -0.05523487 0 0 Z " fill="#0E090A" transform="translate(108.23046875,172.70703125)"/>
<path d="M0 0 C5.78537164 2.25531437 8.36694998 5.08816662 11.12109375 10.6328125 C13.00473623 15.70608958 12.46843229 19.59470313 10.75 24.75 C8.44693122 29.02712773 6.65115235 31.44961588 2 33 C-2.66507623 33.3823833 -5.04127641 33.47936179 -9.25 31.375 C-14.03551856 27.24205215 -16.5475712 23.07927608 -17.23828125 16.8515625 C-17.42161874 11.35143785 -16.7183843 8.32136554 -13 4 C-9.0975748 -0.1192266 -5.51214517 -0.99743579 0 0 Z " fill="#0C0809" transform="translate(97,104)"/>
<path d="M0 0 C3.30638961 2.73136533 6.7274396 6.47357476 7.203125 10.8828125 C7.33127737 17.01276762 6.86042777 22.8504033 2.5703125 27.57421875 C-2.13806536 31.66184032 -5.87388068 32.42249099 -12 32 C-16.45214332 30.3039454 -18.72368441 27.26228035 -21.04296875 23.2421875 C-22.68442012 19.39650143 -22.88884899 16.07448376 -22 12 C-19.78418868 6.89006776 -16.67717582 3.07708935 -12 0 C-7.79699549 -1.4010015 -4.24070384 -1.32205929 0 0 Z " fill="#0B0708" transform="translate(140,105)"/>
<path d="M0 0 C1.24233398 0.00483398 1.24233398 0.00483398 2.50976562 0.00976562 C3.33412109 -0.00634766 4.15847656 -0.02246094 5.0078125 -0.0390625 C5.80123047 -0.03970703 6.59464844 -0.04035156 7.41210938 -0.04101562 C8.137771 -0.04399658 8.86343262 -0.04697754 9.61108398 -0.05004883 C12.22070307 0.44536622 13.06012339 1.14351776 14.57226562 3.32226562 C14.94458008 5.83422852 14.94458008 5.83422852 14.93554688 8.79492188 C14.93490234 9.85904297 14.93425781 10.92316406 14.93359375 12.01953125 C14.91748047 13.13005859 14.90136719 14.24058594 14.88476562 15.38476562 C14.88959961 17.05635742 14.88959961 17.05635742 14.89453125 18.76171875 C14.83920702 27.05532423 14.83920702 27.05532423 12.57226562 29.32226562 C10.6328125 29.58105469 10.6328125 29.58105469 8.29101562 29.58789062 C7.44925781 29.59046875 6.6075 29.59304687 5.74023438 29.59570312 C4.85980469 29.58796875 3.979375 29.58023438 3.07226562 29.57226562 C1.75162109 29.58386719 1.75162109 29.58386719 0.40429688 29.59570312 C-0.43746094 29.593125 -1.27921875 29.59054688 -2.14648438 29.58789062 C-2.91927734 29.58563477 -3.69207031 29.58337891 -4.48828125 29.58105469 C-6.42773438 29.32226562 -6.42773438 29.32226562 -8.42773438 27.32226562 C-8.68652344 24.83203125 -8.68652344 24.83203125 -8.69335938 21.72851562 C-8.6959375 20.61605469 -8.69851562 19.50359375 -8.70117188 18.35742188 C-8.68957031 16.60751953 -8.68957031 16.60751953 -8.67773438 14.82226562 C-8.68546875 13.65566406 -8.69320312 12.4890625 -8.70117188 11.28710938 C-8.69859375 10.17464844 -8.69601563 9.0621875 -8.69335938 7.91601562 C-8.69110352 6.89185547 -8.68884766 5.86769531 -8.68652344 4.8125 C-8.12078916 -0.63135813 -4.42912174 0.03964226 0 0 Z " fill="#E8E8E7" transform="translate(132.427734375,172.677734375)"/>
<path d="M0 0 C1.19012695 0.0009668 1.19012695 0.0009668 2.40429688 0.00195312 C3.22865234 0.01806641 4.05300781 0.03417969 4.90234375 0.05078125 C5.73056641 0.04755859 6.55878906 0.04433594 7.41210938 0.04101562 C13.57271783 0.09615533 13.57271783 0.09615533 15.83984375 2.36328125 C16.09863281 4.85351562 16.09863281 4.85351562 16.10546875 7.95703125 C16.10933594 9.62572266 16.10933594 9.62572266 16.11328125 11.328125 C16.10554688 12.49472656 16.0978125 13.66132813 16.08984375 14.86328125 C16.09757812 16.02988281 16.1053125 17.19648438 16.11328125 18.3984375 C16.11070313 19.51089844 16.108125 20.62335938 16.10546875 21.76953125 C16.10321289 22.79369141 16.10095703 23.81785156 16.09863281 24.87304688 C15.83984375 27.36328125 15.83984375 27.36328125 13.83984375 29.36328125 C11.90039062 29.62207031 11.90039062 29.62207031 9.55859375 29.62890625 C8.71683594 29.63148438 7.87507813 29.6340625 7.0078125 29.63671875 C6.12738281 29.62898438 5.24695313 29.62125 4.33984375 29.61328125 C3.01919922 29.62488281 3.01919922 29.62488281 1.671875 29.63671875 C0.83011719 29.63414062 -0.01164062 29.6315625 -0.87890625 29.62890625 C-1.65169922 29.62665039 -2.42449219 29.62439453 -3.22070312 29.62207031 C-5.16015625 29.36328125 -5.16015625 29.36328125 -7.16015625 27.36328125 C-7.61671422 23.40279303 -7.48417667 19.40954315 -7.47265625 15.42578125 C-7.48876953 14.31525391 -7.50488281 13.20472656 -7.52148438 12.06054688 C-7.52212891 10.99642578 -7.52277344 9.93230469 -7.5234375 8.8359375 C-7.52641846 7.85890869 -7.52939941 6.88187988 -7.5324707 5.87524414 C-7.16015625 3.36328125 -7.16015625 3.36328125 -5.89746094 1.54394531 C-3.76623503 0.09557425 -2.56285417 -0.01052799 0 0 Z " fill="#E1E1E0" transform="translate(81.16015625,172.63671875)"/>
<path d="M0 0 C6.21520438 2.44347753 9.18974291 7.67931088 11.8984375 13.53125 C14.13604193 20.57732351 14.49074721 28.37280401 11.65625 35.26953125 C9.22962831 39.27002314 6.2285191 41.88574045 2 44 C-3.08901772 44.72700253 -6.0203164 43.26633501 -10.109375 40.48046875 C-15.29571016 36.41926828 -18.63677398 31.44910773 -20 25 C-20.78685625 17.33294946 -20.84172279 10.32070563 -16 4 C-10.55969061 -1.05171586 -7.10173613 -1.6235877 0 0 Z M-16.17578125 15.93359375 C-18.14222801 20.86369013 -17.38784858 25.83645426 -15.75 30.75 C-13.35413887 35.19945639 -11.04937993 39.45713391 -6 41 C0.48329405 41.51454715 3.52047109 40.70630027 8.6875 36.6875 C11.72538419 32.7816489 12.52479936 28.03018546 12.375 23.15234375 C11.5191438 18.24008578 9.08459771 13.88726929 5.390625 10.54296875 C1.80154717 8.21336089 -1.79469481 7.2634476 -6.0078125 7.4765625 C-10.48637674 8.6532833 -13.81937684 12.05844364 -16.17578125 15.93359375 Z " fill="#C6C6C6" transform="translate(97,96)"/>
<path d="M0 0 C4.07471997 2.56556443 6.85490491 5.25265725 8.52734375 9.859375 C10.4166512 18.41590789 9.26581061 26.39000453 5 34 C1.80481458 38.75687717 -1.49108143 42.04892467 -7 44 C-10.93531833 44.57390059 -12.60247378 44.21466416 -16.125 42.3125 C-20.18529883 39.04660746 -23.039913 36.18626437 -24 31 C-24.8076321 21.83914443 -24.32425287 14.67275893 -19 7 C-16.5 4.0625 -16.5 4.0625 -14 2 C-12.88625 1.071875 -12.88625 1.071875 -11.75 0.125 C-7.6455942 -1.5540751 -4.22709739 -1.20774211 0 0 Z M-17.40625 12.3984375 C-21.70377319 17.32060068 -23.53229798 21.14660158 -23.3828125 27.6171875 C-22.54376707 32.83981724 -19.59453759 36.6572315 -15.625 40 C-11.00702143 41.75922993 -7.41115554 41.52572461 -2.8125 39.8125 C2.22406665 36.56671261 4.6596267 32.80828429 6 27 C6.57286579 22.1740397 6.52123937 18.97058365 4.1875 14.625 C0.35933584 9.81882223 0.35933584 9.81882223 -5.3125 8.125 C-10.35899533 7.74058301 -13.72772578 8.74034952 -17.40625 12.3984375 Z " fill="#C5C5C6" transform="translate(141,96)"/>
<path d="M0 0 C0.82741699 0.01047363 1.65483398 0.02094727 2.50732422 0.03173828 C3.40322266 0.03818359 4.29912109 0.04462891 5.22216797 0.05126953 C6.62789062 0.07640625 6.62789062 0.07640625 8.06201172 0.10205078 C9.00689453 0.11107422 9.95177734 0.12009766 10.92529297 0.12939453 C13.26278464 0.15300556 15.59977295 0.18593562 17.93701172 0.22705078 C17.93701172 1.87705078 17.93701172 3.52705078 17.93701172 5.22705078 C12.32701172 5.22705078 6.71701172 5.22705078 0.93701172 5.22705078 C0.93701172 7.53705078 0.93701172 9.84705078 0.93701172 12.22705078 C1.91283203 12.20384766 2.88865234 12.18064453 3.89404297 12.15673828 C5.16634766 12.13869141 6.43865234 12.12064453 7.74951172 12.10205078 C9.01408203 12.07884766 10.27865234 12.05564453 11.58154297 12.03173828 C14.93701172 12.22705078 14.93701172 12.22705078 17.93701172 14.22705078 C18.33544922 17.41455078 18.33544922 17.41455078 18.31201172 21.22705078 C18.31974609 22.48517578 18.32748047 23.74330078 18.33544922 25.03955078 C18.20396484 26.09142578 18.07248047 27.14330078 17.93701172 28.22705078 C14.78386387 30.32914935 14.07598091 30.47052688 10.48779297 30.42236328 C9.21645508 30.41269531 9.21645508 30.41269531 7.91943359 30.40283203 C7.03835937 30.38607422 6.15728516 30.36931641 5.24951172 30.35205078 C4.35683594 30.34302734 3.46416016 30.33400391 2.54443359 30.32470703 C0.34168858 30.30114826 -1.86051416 30.26825407 -4.06298828 30.22705078 C-4.06298828 28.24705078 -4.06298828 26.26705078 -4.06298828 24.22705078 C1.54701172 24.22705078 7.15701172 24.22705078 12.93701172 24.22705078 C12.93701172 21.91705078 12.93701172 19.60705078 12.93701172 17.22705078 C11.87740234 17.25025391 10.81779297 17.27345703 9.72607422 17.29736328 C8.33806042 17.31612022 6.95003901 17.33432051 5.56201172 17.35205078 C4.51400391 17.3771875 4.51400391 17.3771875 3.44482422 17.40283203 C1.60803686 17.42049345 -0.22900791 17.33008339 -2.06298828 17.22705078 C-4.06298828 15.22705078 -4.06298828 15.22705078 -4.32861328 12.25830078 C-4.32345703 11.09298828 -4.31830078 9.92767578 -4.31298828 8.72705078 C-4.31814453 7.56173828 -4.32330078 6.39642578 -4.32861328 5.19580078 C-4.02404826 1.79183882 -3.56715963 0.39259863 0 0 Z " fill="#DDDCDC" transform="translate(155.06298828125,172.77294921875)"/>
<path d="M0 0 C0.75732422 0.00966797 1.51464844 0.01933594 2.29492188 0.02929688 C3.08060547 0.05443359 3.86628906 0.07957031 4.67578125 0.10546875 C5.87170898 0.12577148 5.87170898 0.12577148 7.09179688 0.14648438 C9.05758092 0.18179786 11.02301707 0.23560428 12.98828125 0.29296875 C12.98828125 1.94296875 12.98828125 3.59296875 12.98828125 5.29296875 C8.36828125 5.29296875 3.74828125 5.29296875 -1.01171875 5.29296875 C-1.01171875 11.56296875 -1.01171875 17.83296875 -1.01171875 24.29296875 C3.60828125 24.29296875 8.22828125 24.29296875 12.98828125 24.29296875 C12.98828125 26.27296875 12.98828125 28.25296875 12.98828125 30.29296875 C10.40382352 30.40115535 7.82390773 30.48034112 5.23828125 30.54296875 C4.50867187 30.57648438 3.7790625 30.61 3.02734375 30.64453125 C-0.36612551 30.70623069 -2.48092868 30.69898419 -5.22387695 28.60083008 C-7.37958785 25.81809963 -7.5148019 24.46002026 -7.5078125 20.9765625 C-7.50845703 19.96529297 -7.50910156 18.95402344 -7.50976562 17.91210938 C-7.48978516 16.86216797 -7.46980469 15.81222656 -7.44921875 14.73046875 C-7.45630859 13.67666016 -7.46339844 12.62285156 -7.47070312 11.53710938 C-7.40694742 3.85209485 -7.40694742 3.85209485 -5.73535156 1.48730469 C-3.63761862 0.0337481 -2.53319262 -0.05713968 0 0 Z " fill="#D8D8D7" transform="translate(58.01171875,172.70703125)"/>
<path d="M0 0 C0.75732422 0.00966797 1.51464844 0.01933594 2.29492188 0.02929688 C3.08060547 0.05443359 3.86628906 0.07957031 4.67578125 0.10546875 C5.87170898 0.12577148 5.87170898 0.12577148 7.09179688 0.14648438 C9.05758092 0.18179786 11.02301707 0.23560428 12.98828125 0.29296875 C12.98828125 1.94296875 12.98828125 3.59296875 12.98828125 5.29296875 C8.36828125 5.62296875 3.74828125 5.95296875 -1.01171875 6.29296875 C-1.34171875 12.23296875 -1.67171875 18.17296875 -2.01171875 24.29296875 C2.93828125 24.29296875 7.88828125 24.29296875 12.98828125 24.29296875 C12.98828125 26.27296875 12.98828125 28.25296875 12.98828125 30.29296875 C10.40431446 30.37409329 7.82290557 30.43351623 5.23828125 30.48046875 C4.50867188 30.50560547 3.7790625 30.53074219 3.02734375 30.55664062 C-0.06070783 30.59875042 -2.46554567 30.58392752 -5.22387695 29.11450195 C-7.63341397 26.65955785 -7.5143059 25.25688017 -7.5078125 21.85546875 C-7.50845703 20.79585937 -7.50910156 19.73625 -7.50976562 18.64453125 C-7.48978516 17.53851563 -7.46980469 16.4325 -7.44921875 15.29296875 C-7.45630859 14.18695313 -7.46339844 13.0809375 -7.47070312 11.94140625 C-7.40677344 3.85676046 -7.40677344 3.85676046 -5.73535156 1.47143555 C-3.63829355 0.03765382 -2.52249787 -0.05689845 0 0 Z " fill="#DFDFDE" transform="translate(108.01171875,172.70703125)"/>
<path d="M0 0 C1.50046875 0.00386719 1.50046875 0.00386719 3.03125 0.0078125 C4.0315625 0.00523437 5.031875 0.00265625 6.0625 0 C8.53125 0.1328125 8.53125 0.1328125 9.53125 1.1328125 C9.61756874 2.47548663 9.63831473 3.82255572 9.62890625 5.16796875 C9.62568359 5.97685547 9.62246094 6.78574219 9.61914062 7.61914062 C9.61076172 8.46927734 9.60238281 9.31941406 9.59375 10.1953125 C9.58923828 11.04931641 9.58472656 11.90332031 9.58007812 12.78320312 C9.56825373 14.89976913 9.55031769 17.01629935 9.53125 19.1328125 C5.24125 19.1328125 0.95125 19.1328125 -3.46875 19.1328125 C-3.49558987 16.15358657 -3.51551037 13.17459955 -3.53125 10.1953125 C-3.53962891 9.34517578 -3.54800781 8.49503906 -3.55664062 7.61914062 C-3.55986328 6.81025391 -3.56308594 6.00136719 -3.56640625 5.16796875 C-3.57164307 4.419104 -3.57687988 3.67023926 -3.58227539 2.89868164 C-3.40026401 0.06752398 -2.83127997 0.15231569 0 0 Z " fill="#0B0405" transform="translate(132.46875,177.8671875)"/>
<path d="M0 0 C3.96 0 7.92 0 12 0 C12 6.27 12 12.54 12 19 C8.04 19 4.08 19 0 19 C0 12.73 0 6.46 0 0 Z " fill="#090405" transform="translate(80,178)"/>
<path d="M0 0 C0.33 0.66 0.66 1.32 1 2 C1.66 2 2.32 2 3 2 C3.07347656 2.92232422 3.07347656 2.92232422 3.1484375 3.86328125 C3.22320312 4.67152344 3.29796875 5.47976562 3.375 6.3125 C3.44460937 7.11300781 3.51421875 7.91351563 3.5859375 8.73828125 C3.89564426 11.27224441 3.89564426 11.27224441 6 14 C8.609621 14.38411275 11.0058074 14.60293197 13.625 14.6875 C14.33140625 14.72166016 15.0378125 14.75582031 15.765625 14.79101562 C17.50985688 14.87351308 19.25490395 14.93843335 21 15 C21 17.31 21 19.62 21 22 C15.06 22 9.12 22 3 22 C2.67 23.32 2.34 24.64 2 26 C1.01 25.67 0.02 25.34 -1 25 C-0.67 16.75 -0.34 8.5 0 0 Z " fill="#060202" transform="translate(147,175)"/>
<path d="M0 0 C1.50046875 0.00386719 1.50046875 0.00386719 3.03125 0.0078125 C4.0315625 0.00523437 5.031875 0.00265625 6.0625 0 C8.53125 0.1328125 8.53125 0.1328125 9.53125 1.1328125 C9.61756874 2.47548663 9.63831473 3.82255572 9.62890625 5.16796875 C9.62568359 5.97685547 9.62246094 6.78574219 9.61914062 7.61914062 C9.61076172 8.46927734 9.60238281 9.31941406 9.59375 10.1953125 C9.58923828 11.04931641 9.58472656 11.90332031 9.58007812 12.78320312 C9.56825373 14.89976913 9.55031769 17.01629935 9.53125 19.1328125 C5.24125 19.1328125 0.95125 19.1328125 -3.46875 19.1328125 C-3.49558987 16.15358657 -3.51551037 13.17459955 -3.53125 10.1953125 C-3.53962891 9.34517578 -3.54800781 8.49503906 -3.55664062 7.61914062 C-3.55986328 6.81025391 -3.56308594 6.00136719 -3.56640625 5.16796875 C-3.57164307 4.419104 -3.57687988 3.67023926 -3.58227539 2.89868164 C-3.40026401 0.06752398 -2.83127997 0.15231569 0 0 Z M-1.46875 2.1328125 C-1.46875 7.4128125 -1.46875 12.6928125 -1.46875 18.1328125 C1.50125 18.1328125 4.47125 18.1328125 7.53125 18.1328125 C7.53125 12.8528125 7.53125 7.5728125 7.53125 2.1328125 C4.56125 2.1328125 1.59125 2.1328125 -1.46875 2.1328125 Z " fill="#1C1A1A" transform="translate(132.46875,177.8671875)"/>
<path d="M0 0 C0.66 0.99 1.32 1.98 2 3 C-1.1804143 9.23850497 -5.04961912 14.61080657 -12 17 C-15.87752947 17.50576471 -17.65469381 17.18646534 -21.125 15.3125 C-23.95600355 13.03538845 -26.07374538 11.08200738 -28 8 C-27.59765625 5.84375 -27.59765625 5.84375 -27 4 C-26.60167969 4.56589844 -26.20335938 5.13179687 -25.79296875 5.71484375 C-25.26316406 6.44832031 -24.73335938 7.18179688 -24.1875 7.9375 C-23.66542969 8.66839844 -23.14335938 9.39929688 -22.60546875 10.15234375 C-20.23096223 12.88504833 -18.23052845 12.98260163 -14.6875 13.25 C-10.56995976 12.97084473 -8.4245939 12.2830626 -5 10 C-2.4984347 6.82233598 -0.62112384 4.03730494 0 0 Z " fill="#BEBEBF" transform="translate(146,123)"/>
<path d="M0 0 C0.33 0 0.66 0 1 0 C1 7.92 1 15.84 1 24 C-0.32 24.33 -1.64 24.66 -3 25 C-2.67 18.07 -2.34 11.14 -2 4 C-1.34 4 -0.68 4 0 4 C0 2.68 0 1.36 0 0 Z " fill="#030101" transform="translate(100,175)"/>
<path d="M0 0 C4.70588235 0.70588235 4.70588235 0.70588235 6 2 C6.125 4.5 6.125 4.5 6 7 C5 8 5 8 2.5625 8.1875 C0 8 0 8 -2 6 C-1.44444444 1.44444444 -1.44444444 1.44444444 0 0 Z " fill="#51B7D5" transform="translate(127,120)"/>
<path d="M0 0 C2.625 0.375 2.625 0.375 5 1 C5.625 3.375 5.625 3.375 6 6 C4 8 4 8 1.4375 8.1875 C-1 8 -1 8 -2 7 C-2.1875 4.5625 -2.1875 4.5625 -2 2 C-1.34 1.34 -0.68 0.68 0 0 Z " fill="#51B8D6" transform="translate(96,120)"/>
<path d="M0 0 C3.65882521 3.3621637 6.14420341 6.36050852 8 11 C7.67 11.66 7.34 12.32 7 13 C6.54625 12.34 6.0925 11.68 5.625 11 C5.08875 10.34 4.5525 9.68 4 9 C3.34 9 2.68 9 2 9 C1.01 9.99 0.02 10.98 -1 12 C-0.67 8.04 -0.34 4.08 0 0 Z " fill="#1F1E1E" transform="translate(134,69)"/>
<path d="M0 0 C0.33 0 0.66 0 1 0 C1.33 3.3 1.66 6.6 2 10 C1.34 9.67 0.68 9.34 0 9 C0 8.34 0 7.68 0 7 C-1.175625 8.175625 -1.175625 8.175625 -2.375 9.375 C-3.91666667 10.91666667 -5.45833333 12.45833333 -7 14 C-6.51726991 8.85087905 -3.66411915 3.66411915 0 0 Z " fill="#1A1919" transform="translate(90,70)"/>
<path d="M0 0 C2.95183101 2.95183101 3.08663988 5.95511947 4 10 C2.68 9.67 1.36 9.34 0 9 C-0.66 10.65 -1.32 12.3 -2 14 C-2.33 14 -2.66 14 -3 14 C-2.88512252 12.41590006 -2.75765492 10.83271037 -2.625 9.25 C-2.55539063 8.36828125 -2.48578125 7.4865625 -2.4140625 6.578125 C-2.00149945 4.00933618 -1.28839043 2.24158985 0 0 Z " fill="#110F10" transform="translate(113,78)"/>
<path d="M0 0 C0.99 0.33 1.98 0.66 3 1 C2.89053657 5.29221231 2.75981105 9.5835149 2.625 13.875 C2.5940625 15.09832031 2.563125 16.32164062 2.53125 17.58203125 C2.49257812 18.74863281 2.45390625 19.91523438 2.4140625 21.1171875 C2.3826416 22.19597168 2.3512207 23.27475586 2.31884766 24.38623047 C2 27 2 27 0 29 C0 19.43 0 9.86 0 0 Z " fill="#000000" transform="translate(72,173)"/>
<path d="M0 0 C10.23 0 20.46 0 31 0 C31 0.33 31 0.66 31 1 C27.06732611 1.1431032 23.13462735 1.28550028 19.2019043 1.42724609 C17.20685496 1.49930096 15.21182579 1.57191337 13.21679688 1.64453125 C11.33637695 1.71220703 11.33637695 1.71220703 9.41796875 1.78125 C7.68196411 1.8440918 7.68196411 1.8440918 5.91088867 1.90820312 C3.94133398 1.97031439 1.97053381 2 0 2 C0 1.34 0 0.68 0 0 Z " fill="#52B9D7" transform="translate(138,48)"/>
<path d="M0 0 C5.57142857 5.14285714 5.57142857 5.14285714 6 9 C3.525 8.01 3.525 8.01 1 7 C0.01 7.99 -0.98 8.98 -2 10 C-1.54177532 6.53058454 -1.10868317 3.32604951 0 0 Z " fill="#131212" transform="translate(111,54)"/>
<path d="M0 0 C0.83724609 -0.01224609 1.67449219 -0.02449219 2.53710938 -0.03710938 C3.73883789 -0.04000977 3.73883789 -0.04000977 4.96484375 -0.04296875 C5.70210693 -0.04707764 6.43937012 -0.05118652 7.19897461 -0.05541992 C9.0625 0.1875 9.0625 0.1875 11.0625 2.1875 C9.80953125 2.15269531 8.5565625 2.11789063 7.265625 2.08203125 C5.61459676 2.05388872 3.96355399 2.02658906 2.3125 2 C1.075 1.96229492 1.075 1.96229492 -0.1875 1.92382812 C-5.08088321 1.82929025 -5.08088321 1.82929025 -9.515625 3.69921875 C-9.98484375 4.19035156 -10.4540625 4.68148437 -10.9375 5.1875 C-9.46683086 -1.32546332 -6.04305468 0.00463069 0 0 Z " fill="#D5D4D4" transform="translate(134.9375,172.8125)"/>
<path d="M0 0 C0.226875 0.515625 0.45375 1.03125 0.6875 1.5625 C3.89422402 7.6930725 3.89422402 7.6930725 9 12 C9 12.66 9 13.32 9 14 C4.77551612 12.43537634 2.59903247 9.58245016 0 6 C-0.875 3.1875 -0.875 3.1875 -1 1 C-0.67 0.67 -0.34 0.34 0 0 Z " fill="#BDBDBE" transform="translate(80,123)"/>
<path d="M0 0 C0.33 0 0.66 0 1 0 C1.4375 2.125 1.4375 2.125 1 5 C-1.12689146 7.276147 -3.5023433 9.1458722 -6 11 C-6.66 10.67 -7.32 10.34 -8 10 C-8 9.34 -8 8.68 -8 8 C-7.236875 7.566875 -6.47375 7.13375 -5.6875 6.6875 C-2.67542202 4.79619522 -1.66593347 3.08197691 0 0 Z " fill="#BCBCBD" transform="translate(107,128)"/>
<path d="M0 0 C0.33 0 0.66 0 1 0 C1.33 3.3 1.66 6.6 2 10 C0 9 0 9 -1.25 6.125 C-1.4975 5.09375 -1.745 4.0625 -2 3 C-1.34 2.01 -0.68 1.02 0 0 Z " fill="#050404" transform="translate(90,70)"/>
<path d="M0 0 C0.66 0 1.32 0 2 0 C1.43454163 3.95820859 0.19097652 6.6659053 -2 10 C-3 8 -3 8 -2.44140625 6.0546875 C-2.15136719 5.33539063 -1.86132812 4.61609375 -1.5625 3.875 C-1.27503906 3.15054688 -0.98757812 2.42609375 -0.69140625 1.6796875 C-0.46324219 1.12539063 -0.23507813 0.57109375 0 0 Z " fill="#201F1F" transform="translate(103,40)"/>
<path d="M0 0 C2.97 1.65 5.94 3.3 9 5 C6 6 6 6 3.9375 5.0625 C3.298125 4.711875 2.65875 4.36125 2 4 C1.34 4 0.68 4 0 4 C0 2.68 0 1.36 0 0 Z " fill="#121111" transform="translate(100,17)"/>
</svg>
