<?xml version="1.0" encoding="UTF-8"?>
<svg version="1.1" xmlns="http://www.w3.org/2000/svg" width="225" height="225">
<path d="M0 0 C74.25 0 148.5 0 225 0 C225 74.25 225 148.5 225 225 C150.75 225 76.5 225 0 225 C0 150.75 0 76.5 0 0 Z " fill="#010101" transform="translate(0,0)"/>
<path d="M0 0 C74.25 0 148.5 0 225 0 C225 74.25 225 148.5 225 225 C150.75 225 76.5 225 0 225 C0 150.75 0 76.5 0 0 Z M94 16 C92.77337646 16.68400879 92.77337646 16.68400879 91.52197266 17.38183594 C86.73578907 20.05576991 81.96514698 22.75594788 77.203125 25.47265625 C72.0147812 28.4307351 66.80351415 31.34543174 61.58398438 34.24804688 C52.24467439 39.44814685 42.93332774 44.69777956 33.6875 50.0625 C32.76831787 50.58650391 31.84913574 51.11050781 30.90209961 51.65039062 C24.03789436 55.67049151 20.1397678 59.11043605 18 67 C17.71846196 69.97112305 17.71629436 72.92487366 17.7253418 75.90771484 C17.72023087 76.78331558 17.71511993 77.65891632 17.70985413 78.56105042 C17.69599824 81.4444164 17.69691199 84.32754226 17.69921875 87.2109375 C17.69532943 89.22344043 17.69099428 91.23594255 17.68623352 93.2484436 C17.67877977 97.4631822 17.67905634 101.67783701 17.68432617 105.89257812 C17.69011758 111.28153305 17.67319352 116.67014391 17.6499815 122.05904198 C17.63521645 126.21473175 17.63437627 130.37033921 17.63749123 134.52605057 C17.63697934 136.51228135 17.63176662 138.4985169 17.62167931 140.48472214 C17.60927943 143.26787111 17.61612799 146.05035694 17.62768555 148.83349609 C17.62004181 149.64622482 17.61239807 150.45895355 17.60452271 151.29631042 C17.66490962 157.90822295 18.75485719 163.64490549 23.47265625 168.59375 C28.14781426 172.03875437 33.35240551 174.72093673 38.4375 177.5 C40.69688618 178.74950902 42.95599492 179.99951983 45.21484375 181.25 C46.3529248 181.87777344 47.49100586 182.50554687 48.66357422 183.15234375 C53.62801538 185.90156742 58.56424454 188.69970897 63.5 191.5 C71.80559326 196.19978921 80.1170887 200.88899048 88.4375 205.5625 C89.47390625 206.14644531 90.5103125 206.73039063 91.578125 207.33203125 C103.51803498 214.92322614 103.51803498 214.92322614 117 216 C121.90301392 214.09475274 126.42475362 211.57136332 131 209 C131.81774902 208.54399414 132.63549805 208.08798828 133.47802734 207.61816406 C138.26264508 204.9451049 143.03200698 202.24619768 147.79296875 199.53125 C153.00277779 196.5612876 158.23036725 193.62458612 163.46655273 190.70141602 C166.60264639 188.94998395 169.73516664 187.19229663 172.8671875 185.43359375 C176.92450192 183.15642442 180.99305224 180.90139139 185.0703125 178.66015625 C186.96372938 177.60710827 188.85696722 176.5537383 190.75 175.5 C192.04478271 174.79798462 192.04478271 174.79798462 193.36572266 174.08178711 C199.22087812 170.79906639 203.41865388 167.74809117 206.11076355 161.36727905 C207.21344368 157.19175104 207.28769582 153.3906433 207.2746582 149.09228516 C207.27976913 148.21668442 207.28488007 147.34108368 207.29014587 146.43894958 C207.30400176 143.5555836 207.30308801 140.67245774 207.30078125 137.7890625 C207.30467057 135.77655957 207.30900572 133.76405745 207.31376648 131.7515564 C207.32122023 127.5368178 207.32094366 123.32216299 207.31567383 119.10742188 C207.30988242 113.71846695 207.32680648 108.32985609 207.3500185 102.94095802 C207.36478355 98.78526825 207.36562373 94.62966079 207.36250877 90.47394943 C207.36302066 88.48771865 207.36823338 86.5014831 207.37832069 84.51527786 C207.39072057 81.73212889 207.38387201 78.94964306 207.37231445 76.16650391 C207.37995819 75.35377518 207.38760193 74.54104645 207.39547729 73.70368958 C207.33509038 67.09177705 206.24514281 61.35509451 201.52734375 56.40625 C196.85218574 52.96124563 191.64759449 50.27906327 186.5625 47.5 C184.30311382 46.25049098 182.04400508 45.00048017 179.78515625 43.75 C178.6470752 43.12222656 177.50899414 42.49445312 176.33642578 41.84765625 C171.37198462 39.09843258 166.43575546 36.30029103 161.5 33.5 C153.19440674 28.80021079 144.8829113 24.11100952 136.5625 19.4375 C135.52609375 18.85355469 134.4896875 18.26960938 133.421875 17.66796875 C117.28544457 8.61634067 110.48167926 6.7370266 94 16 Z " fill="#FEFEFE" transform="translate(0,0)"/>
<path d="M0 0 C9.48028252 7.44084756 9.48028252 7.44084756 11 12 C6.47165462 15.11524469 1.89501558 18.16141502 -2.8125 21 C-3.52019531 21.433125 -4.22789062 21.86625 -4.95703125 22.3125 C-7 23 -7 23 -8.99609375 22.28125 C-9.65738281 21.8584375 -10.31867188 21.435625 -11 21 C-11.68578125 20.5978125 -12.3715625 20.195625 -13.078125 19.78125 C-14.15320313 19.14703125 -14.15320313 19.14703125 -15.25 18.5 C-23.15048472 14.13089018 -31.67500741 12.39958521 -40.578125 14.65234375 C-48.95329911 17.64531241 -54.8761208 22.28969676 -58.9375 30.25 C-63.00642097 39.13266138 -62.87343784 47.06531282 -60.03125 56.39453125 C-56.48510952 65.3539089 -49.58033281 70.38792932 -41.0625 74.375 C-32.84360647 76.05232521 -24.76334964 75.20078134 -17 72 C-14.82156371 70.45364885 -12.8716566 68.86503524 -10.94921875 67.01171875 C-9 66 -9 66 -6.1953125 66.58203125 C-2.68399414 68.14023243 0.56828033 69.95802821 3.8125 72 C4.39708984 72.35578125 4.98167969 72.7115625 5.58398438 73.078125 C9.87008929 75.74017857 9.87008929 75.74017857 11 78 C2.11132703 89.67965561 -10.66175128 96.66293114 -25.09765625 98.68359375 C-39.66183545 100.27134411 -52.92320862 96.39664657 -64.6875 87.6875 C-78.28795266 76.52508982 -84.35692875 62.76449939 -86.27734375 45.5078125 C-86.9403295 31.02820371 -80.43681147 17.55977234 -71 7 C-51.96518011 -12.72185161 -22.5025224 -15.15653767 0 0 Z " fill="#FBFBFB" transform="translate(144,68)"/>
<path d="M0 0 C3.3 0 6.6 0 10 0 C10 2.97 10 5.94 10 9 C12.64 9 15.28 9 18 9 C18 6.03 18 3.06 18 0 C21.3 0 24.6 0 28 0 C28 2.97 28 5.94 28 9 C30.97 9 33.94 9 37 9 C37 11.97 37 14.94 37 18 C34.03 18 31.06 18 28 18 C28 20.97 28 23.94 28 27 C30.97 27 33.94 27 37 27 C37 29.97 37 32.94 37 36 C34.03 36 31.06 36 28 36 C28 38.97 28 41.94 28 45 C24.7 45 21.4 45 18 45 C18 42.03 18 39.06 18 36 C15.36 36 12.72 36 10 36 C10 38.97 10 41.94 10 45 C6.7 45 3.4 45 0 45 C0 42.03 0 39.06 0 36 C-2.97 36 -5.94 36 -9 36 C-9 33.03 -9 30.06 -9 27 C-6.03 27 -3.06 27 0 27 C0 24.03 0 21.06 0 18 C-2.97 18 -5.94 18 -9 18 C-9 15.03 -9 12.06 -9 9 C-6.03 9 -3.06 9 0 9 C0 6.03 0 3.06 0 0 Z " fill="#F3F3F3" transform="translate(157,90)"/>
<path d="M0 0 C2.64 0 5.28 0 8 0 C8 2.97 8 5.94 8 9 C5.36 9 2.72 9 0 9 C0 6.03 0 3.06 0 0 Z " fill="#020202" transform="translate(167,108)"/>
</svg>
