<?xml version="1.0" encoding="UTF-8"?>
<svg version="1.1" xmlns="http://www.w3.org/2000/svg" width="225" height="225">
<path d="M0 0 C74.25 0 148.5 0 225 0 C225 74.25 225 148.5 225 225 C150.75 225 76.5 225 0 225 C0 150.75 0 76.5 0 0 Z " fill="#FCFCFC" transform="translate(0,0)"/>
<path d="M0 0 C14.59510073 -0.11698889 29.1901391 -0.20506399 43.78561401 -0.25906086 C50.56312773 -0.28480309 57.3403495 -0.31987642 64.11767578 -0.37719727 C70.65991109 -0.43250322 77.20195721 -0.46143452 83.74441528 -0.47438622 C86.23866546 -0.48361452 88.73289932 -0.50163534 91.22702026 -0.52865028 C94.7246262 -0.56502286 98.22098493 -0.56994163 101.71875 -0.56762695 C102.74662125 -0.58560333 103.77449249 -0.60357971 104.83351135 -0.62210083 C111.6417087 -0.57344717 115.62421556 0.87518543 121 5 C121.8561792 5.5594783 122.7123584 6.1189566 123.59448242 6.69538879 C139.44059038 17.55836121 160.72380752 32.69557249 165.21929932 52.74047852 C167.45083962 65.2130073 167.26726781 77.946649 166.8125 90.5625 C166.78029358 91.47858158 166.74808716 92.39466316 166.71490479 93.33850479 C165.45117842 126.54882158 165.45117842 126.54882158 162 130 C150.57915183 132.79287784 135.36026397 134.06322584 124.92591476 127.80931473 C115.37745029 121.23990721 107.47831651 112.40696957 99.60514712 103.98407865 C96.13844246 100.31220764 92.57587957 96.73560092 89.02345276 93.1469574 C82.33646035 86.36325482 75.73830507 79.49972326 69.1690169 72.6021871 C61.67725269 64.74512503 54.08632746 56.98691268 46.48758781 49.23349297 C34.70102797 37.20165337 22.96821658 25.11936281 11.31811523 12.95532227 C10.73044813 12.34327501 10.14278103 11.73122776 9.53730583 11.10063362 C7.91390827 9.40886361 6.29395839 7.71387544 4.67527771 6.01759338 C3.76684836 5.06722482 2.85841902 4.11685625 1.92246151 3.13768864 C0 1 0 1 0 0 Z " fill="#000000" transform="translate(52,45)"/>
<path d="M0 0 C6.53544012 5.38100864 12.46948196 11.32812941 18.44311523 17.3137207 C19.58678394 18.4560325 20.73066486 19.59813187 21.8747406 20.74003601 C24.96333883 23.82409745 28.04879241 26.91128672 31.13353229 29.99920678 C34.36446298 33.23267683 37.59784131 36.46369783 40.83082581 39.69511414 C46.25189072 45.11436353 51.67085166 50.53571007 57.08862305 55.95825195 C63.35970974 62.23479657 69.63441304 68.50770837 75.91097492 74.77877742 C81.30144482 80.16471824 86.68997479 85.5525941 92.07686955 90.94211072 C95.293954 94.16075696 98.511717 97.37871703 101.73122978 100.59493446 C104.75157301 103.61240141 107.7694832 106.63228031 110.78548622 109.65408516 C111.89566941 110.76559656 113.00671546 111.87624686 114.11865997 112.98599625 C115.62918498 114.49381254 117.13663391 116.00463616 118.64329529 117.51631165 C119.48962745 118.36302083 120.33595961 119.20973001 121.20793819 120.08209705 C123 122 123 122 123 123 C107.96198637 123.14020271 92.92402341 123.24598673 77.88549519 123.31087303 C70.90268917 123.34180277 63.92028939 123.38396518 56.93774414 123.45263672 C50.20093886 123.51885985 43.46464305 123.55369213 36.72749901 123.56926346 C34.15539081 123.58036207 31.58330609 123.6020349 29.01137733 123.63438034 C25.41242909 123.67784768 21.81523235 123.68393772 18.21606445 123.68115234 C16.61600052 123.71350983 16.61600052 123.71350983 14.98361206 123.746521 C7.95888338 123.68757404 7.95888338 123.68757404 5.26943016 121.75908279 C1.710361 117.65449943 -0.25247953 113.61578642 -0.24050903 108.22906494 C-0.24325836 107.27276688 -0.24600769 106.31646881 -0.24884033 105.33119202 C-0.24164978 104.28893967 -0.23445923 103.24668732 -0.22705078 102.17285156 C-0.22734283 101.07011398 -0.22763489 99.9673764 -0.22793579 98.83122253 C-0.22654184 95.1842768 -0.21097729 91.53753507 -0.1953125 87.890625 C-0.19158261 85.36285514 -0.18873552 82.83508383 -0.18673706 80.30731201 C-0.17987956 74.33273062 -0.16411469 68.35823687 -0.14403808 62.3836906 C-0.12167481 55.58083555 -0.11068458 48.77797698 -0.10064721 41.97509432 C-0.07974831 27.98335565 -0.04457501 13.99168184 0 0 Z " fill="#000000" transform="translate(45,52)"/>
<path d="M0 0 C36.96 0 73.92 0 112 0 C112 9.57 112 19.14 112 29 C109.24753003 31.75246997 106.60806114 31.49036325 102.90527344 31.703125 C102.17243134 31.75092322 101.43958923 31.79872145 100.68453979 31.8479681 C91.04792945 32.44249616 81.40157969 32.77564922 71.75 33 C70.36742004 33.03413057 70.36742004 33.03413057 68.95690918 33.06895065 C29.07180788 33.94812956 29.07180788 33.94812956 15.73187256 22.36459351 C9.38203712 16.11330251 4.09244347 8.90555075 0 1 C0 0.67 0 0.34 0 0 Z " fill="#000000" transform="translate(63,185)"/>
<path d="M0 0 C0.33 0 0.66 0 1 0 C1 38.28 1 76.56 1 116 C-4.79759512 111.03063275 -10.26779118 105.98154205 -15.6875 100.625 C-16.52861328 99.81289062 -17.36972656 99.00078125 -18.23632812 98.1640625 C-25.36438185 91.10949387 -29.94896283 84.34783348 -30.40625 74.09375 C-30.31989714 66.84010949 -27.50571382 60.97372159 -24.5 54.5 C-23.92242135 53.21651707 -23.34661656 51.93223463 -22.77246094 50.6472168 C-21.21155012 47.16924569 -19.62427346 43.70394715 -18.0300293 40.2411499 C-16.21256508 36.2866898 -14.412734 32.32418807 -12.609375 28.36328125 C-10.45463118 23.63400035 -8.29574978 18.90676377 -6.11914062 14.1875 C-5.61812836 13.09999702 -5.61812836 13.09999702 -5.10699463 11.99052429 C-4.47958408 10.6297115 -3.85087495 9.2694964 -3.22064209 7.9099884 C-2.01468566 5.29353178 -0.91210107 2.7363032 0 0 Z " fill="#010101" transform="translate(35,42)"/>
<path d="M0 0 C4.76340429 2.57526804 8.40755553 6.40512526 12.2109375 10.1953125 C13.30027588 11.26628174 13.30027588 11.26628174 14.41162109 12.35888672 C18.50116515 16.37957495 22.57616193 20.41486962 26.625 24.4765625 C27.3154541 25.16814453 28.0059082 25.85972656 28.71728516 26.57226562 C30.2109375 28.1953125 30.2109375 28.1953125 30.2109375 29.1953125 C-8.0690625 29.1953125 -46.3490625 29.1953125 -85.7890625 29.1953125 C-82.61857248 27.08165249 -79.34802137 25.53076316 -75.89453125 23.95703125 C-75.20285355 23.63954422 -74.51117584 23.32205719 -73.79853821 22.99494934 C-66.72659948 19.75454253 -59.63858595 16.54922703 -52.54833984 13.34912109 C-49.48666875 11.96626825 -46.4296612 10.57399696 -43.37744141 9.17041016 C-39.9898037 7.61260737 -36.59385209 6.07470174 -33.19033813 4.5519104 C-31.93839721 3.98786279 -30.68955607 3.41687566 -29.44418335 2.83847046 C-19.66713945 -1.69258991 -10.40491577 -4.05244088 0 0 Z " fill="#010101" transform="translate(127.7890625,6.8046875)"/>
</svg>
