<?xml version="1.0" encoding="UTF-8"?>
<svg version="1.1" xmlns="http://www.w3.org/2000/svg" width="225" height="225">
<path d="M0 0 C74.25 0 148.5 0 225 0 C225 74.25 225 148.5 225 225 C150.75 225 76.5 225 0 225 C0 150.75 0 76.5 0 0 Z " fill="#00001F" transform="translate(0,0)"/>
<path d="M0 0 C74.25 0 148.5 0 225 0 C225 60.72 225 121.44 225 184 C222.53356229 180.71141639 220.8494994 177.90767663 219.06640625 174.2578125 C218.50630859 173.12077881 217.94621094 171.98374512 217.36914062 170.81225586 C217.07499268 170.21154266 216.78084473 169.61082947 216.4777832 168.99191284 C211.39673123 158.62803733 206.13043926 148.40201601 200.54125977 138.30126953 C196.56697814 131.09808914 192.76595148 123.81400402 189 116.5 C183.82024881 106.45150888 178.50422854 96.49240606 173.05859375 86.5859375 C170.2839443 81.53504618 167.55841545 76.45876868 164.83862305 71.37817383 C150.22054162 37.5723951 150.22054162 37.5723951 126.41015625 12.76953125 C121.43929667 11.72563923 116.49975498 11.66943342 111.4375 11.6875 C110.0772168 11.66333008 110.0772168 11.66333008 108.68945312 11.63867188 C102.51457066 11.63419408 97.1917479 12.05452894 92.41796875 16.45996094 C88.58296272 20.69647458 85.72620968 25.47438053 82.9375 30.4375 C82.4719873 31.2531543 82.00647461 32.06880859 81.52685547 32.90917969 C77.23063624 40.48405514 73.09771123 48.14798932 68.97607422 55.81884766 C65.26816487 62.70777015 61.44786498 69.52239866 57.5625 76.3125 C52.16821341 85.76412539 47.11777272 95.36892647 42.1472168 105.04907227 C38.65500151 111.84112484 35.07598929 118.56976956 31.375 125.25 C25.5234021 135.84138197 20.0128503 146.60459495 14.5 157.375 C14.05871765 158.23710083 13.6174353 159.09920166 13.16278076 159.98742676 C9.07641758 167.97582024 5.00422287 175.97006268 1 184 C0.67 184 0.34 184 0 184 C0 123.28 0 62.56 0 0 Z " fill="#FEFEFE" transform="translate(0,0)"/>
<path d="M0 0 C2.30859375 2.28125 2.30859375 2.28125 4.4375 5.5 C4.84379639 6.10384521 5.25009277 6.70769043 5.66870117 7.32983398 C7.13903354 9.53680689 8.56949734 11.76700939 10 14 C11.24721284 15.91808775 12.49462136 17.83604827 13.7421875 19.75390625 C30.42180136 45.52983191 46.33162105 71.80468867 62.07763672 98.15893555 C69.06353011 109.85959931 69.06353011 109.85959931 76.25 121.4375 C77.24773437 123.01337891 77.24773437 123.01337891 78.265625 124.62109375 C80.17972172 127.2465102 81.74530912 128.76900071 85.015625 129.37109375 C90.0410845 129.52045181 93.43328855 128.98079269 97.3671875 125.7421875 C103.02072567 119.70994342 105.70114048 113.05292901 107 105 C107.33 105 107.66 105 108 105 C108 117.21 108 129.42 108 142 C33.75 142 -40.5 142 -117 142 C-117 130.45 -117 118.9 -117 107 C-115.93643509 109.12712982 -114.87728108 111.25670795 -113.8515625 113.40234375 C-109.32595102 122.94169335 -109.32595102 122.94169335 -101 129 C-96.60990059 129.5608111 -92.78584253 129.43821016 -89 127 C-87.39279987 125.05929384 -87.39279987 125.05929384 -85.99609375 122.6796875 C-85.43003418 121.76807861 -84.86397461 120.85646973 -84.28076172 119.91723633 C-83.67248535 118.91329834 -83.06420898 117.90936035 -82.4375 116.875 C-81.79055176 115.82401123 -81.14360352 114.77302246 -80.47705078 113.69018555 C-74.18061018 103.41254408 -68.05170396 93.03340193 -61.91870117 82.65771484 C-55.94997065 72.56409803 -49.86232041 62.55359274 -43.63623047 52.61621094 C-41.82474632 49.71978239 -40.02336587 46.817201 -38.22265625 43.9140625 C-9.48536444 -2.35358775 -9.48536444 -2.35358775 0 0 Z " fill="#FEFEFE" transform="translate(117,83)"/>
</svg>
