<?xml version="1.0" encoding="UTF-8"?>
<svg version="1.1" xmlns="http://www.w3.org/2000/svg" width="225" height="225">
<path d="M0 0 C74.25 0 148.5 0 225 0 C225 74.25 225 148.5 225 225 C150.75 225 76.5 225 0 225 C0 150.75 0 76.5 0 0 Z " fill="#020202" transform="translate(0,0)"/>
<path d="M0 0 C74.25 0 148.5 0 225 0 C225 74.25 225 148.5 225 225 C150.75 225 76.5 225 0 225 C0 150.75 0 76.5 0 0 Z M17.125 23.5 C9.63346563 33.86357757 8.70057981 43.19232852 8.70947266 55.66113281 C8.70347905 57.0319912 8.6966716 58.40284623 8.68911743 59.7736969 C8.67153349 63.47847446 8.66676525 67.18315948 8.66548586 70.88797474 C8.66405922 73.20846568 8.65977992 75.52893348 8.65449142 77.84941864 C8.63601531 85.9616392 8.62781765 94.07379426 8.62939453 102.18603516 C8.63059482 109.72052899 8.6095085 117.25473587 8.5779072 124.78915715 C8.5516621 131.28033635 8.54103069 137.77142229 8.54230535 144.26265407 C8.54281263 148.12958433 8.53726032 151.99625938 8.51594925 155.86313629 C8.49642755 159.50440012 8.49653601 163.14516892 8.51098251 166.78645134 C8.51403361 168.74025275 8.49749164 170.69405496 8.48010254 172.64778137 C8.56171532 184.23772673 11.24813172 195.08449586 19 204 C30.35496392 214.45798293 41.63405753 216.30433075 56.60693359 216.2746582 C57.95985697 216.27901364 59.31277788 216.28419954 60.66569519 216.29014587 C64.31663898 216.30345801 67.96747876 216.30412327 71.61844206 216.30158257 C74.67730423 216.30050751 77.73614581 216.30540987 80.79500353 216.310188 C88.01732293 216.32125635 95.2395903 216.32173574 102.46191406 216.31567383 C109.88790769 216.30963637 117.31371173 216.32194535 124.73967302 216.3432439 C131.13828714 216.36091432 137.53684121 216.3668527 143.93547881 216.36360615 C147.74697955 216.36180174 151.55834504 216.36434462 155.36982346 216.37832069 C158.95686657 216.39098341 162.54361619 216.38887617 166.13065529 216.37590981 C168.05718898 216.37245278 169.983732 216.38365956 171.91023254 216.39547729 C184.37838384 216.32083632 195.66646256 213.78562947 205.0390625 205.11328125 C215.25563219 194.04895365 216.30381311 181.93065876 216.2746582 167.37133789 C216.27901513 166.02811909 216.28420152 164.68490277 216.29014587 163.34169006 C216.30344056 159.72179595 216.30412536 156.10200684 216.30158257 152.4820931 C216.30050652 149.44803398 216.30541224 146.41399557 216.310188 143.37994093 C216.32124984 136.21657546 216.32173913 129.05326244 216.31567383 121.88989258 C216.30963403 114.52579357 216.32195279 107.16188563 216.3432439 99.7978192 C216.36091444 93.45013981 216.36685276 87.10252095 216.36360615 80.7548179 C216.3618021 76.97463076 216.36434114 73.19457999 216.37832069 69.41441536 C216.39098403 65.85772686 216.38887562 62.30133434 216.37590981 58.74464989 C216.37245339 56.8348245 216.38365847 54.9249897 216.39547729 53.01519775 C216.31984011 40.48695404 213.67503755 29.49326796 205.18359375 19.9609375 C200.37625697 15.39639551 195.23882228 13.06330956 189 11 C187.62332751 10.48777421 187.62332751 10.48777421 186.21884346 9.96520042 C182.96128511 8.98839098 180.39469695 8.74372316 177.00631714 8.73257446 C175.82901535 8.72404449 174.65171356 8.71551453 173.43873596 8.70672607 C172.16070602 8.70763245 170.88267609 8.70853882 169.56591797 8.70947266 C168.19535457 8.7034828 166.82479454 8.69667621 165.45423889 8.68911743 C161.74107882 8.67149099 158.02801101 8.66676332 154.31481314 8.66548586 C151.98997771 8.66406115 149.66516549 8.65978537 147.34033585 8.65449142 C139.21515676 8.63599822 131.09004318 8.62781942 122.96484375 8.62939453 C115.41562273 8.6305939 107.86668856 8.60953017 100.31754005 8.5779072 C93.81790869 8.55166035 87.31837048 8.54103083 80.8186866 8.54230535 C76.94501982 8.54281277 73.07160778 8.53725339 69.19799423 8.51594925 C65.54854952 8.49642583 61.8995987 8.49653719 58.25013542 8.51098251 C56.29154408 8.51403382 54.33295195 8.49749101 52.37443542 8.48010254 C38.56780398 8.57708923 25.9956273 12.48116233 17.125 23.5 Z " fill="#FDFDFD" transform="translate(0,0)"/>
<path d="M0 0 C-1.36976949 3.06438177 -2.92946165 5.18502948 -5.28866577 7.56282043 C-5.96718094 8.25131073 -6.64569611 8.93980103 -7.34477234 9.64915466 C-8.08870743 10.39375443 -8.83264252 11.13835419 -9.59912109 11.90551758 C-10.38302719 12.69774719 -11.16693329 13.48997681 -11.97459412 14.30621338 C-14.56874673 16.9244729 -17.17050815 19.53499863 -19.7734375 22.14453125 C-21.57711529 23.9571716 -23.38071328 25.76989136 -25.18423462 27.58268738 C-28.96512546 31.38007041 -32.75037285 35.17304989 -36.53808594 38.96362305 C-40.91934865 43.34852816 -45.28728237 47.74641368 -49.64940774 52.15034944 C-53.84596422 56.38571576 -58.05618453 60.60731277 -62.27162552 64.82388878 C-64.06434978 66.62083302 -65.85293167 68.42191947 -67.63734055 70.22712135 C-70.12732645 72.74381079 -72.63245225 75.24438373 -75.14208984 77.74145508 C-75.88197647 78.49617599 -76.6218631 79.25089691 -77.38417053 80.02848816 C-78.06832535 80.70287933 -78.75248016 81.37727051 -79.45736694 82.07209778 C-80.04840399 82.66514615 -80.63944103 83.25819452 -81.24838829 83.86921406 C-83 85 -83 85 -85.05434608 84.82381725 C-88.16520026 83.50663781 -90.32191463 81.1459011 -92.67578125 78.79296875 C-93.46990669 78.0102636 -93.46990669 78.0102636 -94.28007507 77.21174622 C-95.39410394 76.10850389 -96.50420164 75.00127965 -97.6105957 73.89038086 C-99.31016027 72.18984107 -101.02994497 70.51175655 -102.75195312 68.83398438 C-103.83202715 67.75911519 -104.91084787 66.68298486 -105.98828125 65.60546875 C-106.50586502 65.10428024 -107.02344879 64.60309174 -107.55671692 64.0867157 C-108.97387695 62.64135742 -108.97387695 62.64135742 -111 60 C-110.43800991 49.64652051 -92.18587219 35.06718209 -85.3125 27.75 C-84.69498871 27.09043304 -84.07747742 26.43086609 -83.44125366 25.75131226 C-58.01876091 -1.21015745 -37.30769633 -8.40219294 0 0 Z " fill="#FAFAFA" transform="translate(156,37)"/>
<path d="M0 0 C3.56145023 1.51653105 5.85630225 3.6030054 8.58496094 6.32617188 C9.48559265 7.22049927 10.38622437 8.11482666 11.31414795 9.03625488 C12.28781273 10.0134985 13.26121561 10.99100311 14.234375 11.96875 C15.23727681 12.97030424 16.24047532 13.97156145 17.24395752 14.97253418 C19.34185055 17.06748299 21.43609383 19.16599615 23.52783203 21.26708984 C26.21349788 23.96417928 28.90808178 26.65215186 31.60543442 29.3375473 C33.67646736 31.40136783 35.74273116 33.46991001 37.80756378 35.53993225 C38.79969595 36.53340111 39.79332289 37.52537947 40.78844452 38.51585388 C42.1746643 39.89701561 43.55382699 41.28524951 44.93261719 42.67382812 C45.71997253 43.46277466 46.50732788 44.25172119 47.31854248 45.0645752 C49 47 49 47 49 49 C9.79833126 53.46013331 9.79833126 53.46013331 -1.73294067 44.88949585 C-9.1827046 38.56751228 -15.37262681 30.9544824 -21 23 C-19.48623919 19.43235715 -17.39486871 17.16293713 -14.6484375 14.453125 C-13.79765625 13.60878906 -12.946875 12.76445312 -12.0703125 11.89453125 C-11.18085937 11.02183594 -10.29140625 10.14914063 -9.375 9.25 C-8.4778125 8.36183594 -7.580625 7.47367188 -6.65625 6.55859375 C-4.44192996 4.36783031 -2.22307565 2.18187237 0 0 Z " fill="#F8F8F8" transform="translate(131,139)"/>
<path d="M0 0 C3.36335594 1.45745424 5.54534005 3.31117854 8.109375 5.9140625 C8.86347656 6.67460938 9.61757812 7.43515625 10.39453125 8.21875 C11.17183594 9.0128125 11.94914062 9.806875 12.75 10.625 C13.54277344 11.42679688 14.33554688 12.22859375 15.15234375 13.0546875 C17.10614493 15.03202846 19.05512103 17.01388909 21 19 C19.48623919 22.56764285 17.39486871 24.83706287 14.6484375 27.546875 C13.79765625 28.39121094 12.946875 29.23554688 12.0703125 30.10546875 C11.18085937 30.97816406 10.29140625 31.85085937 9.375 32.75 C8.4778125 33.63816406 7.580625 34.52632812 6.65625 35.44140625 C4.44192996 37.63216969 2.22307565 39.81812763 0 42 C-3.36335594 40.54254576 -5.54534005 38.68882146 -8.109375 36.0859375 C-8.86347656 35.32539063 -9.61757812 34.56484375 -10.39453125 33.78125 C-11.17183594 32.9871875 -11.94914062 32.193125 -12.75 31.375 C-13.54277344 30.57320312 -14.33554688 29.77140625 -15.15234375 28.9453125 C-17.10614493 26.96797154 -19.05512103 24.98611091 -21 23 C-19.48623919 19.43235715 -17.39486871 17.16293713 -14.6484375 14.453125 C-13.79765625 13.60878906 -12.946875 12.76445313 -12.0703125 11.89453125 C-11.18085937 11.02183594 -10.29140625 10.14914063 -9.375 9.25 C-8.4778125 8.36183594 -7.580625 7.47367187 -6.65625 6.55859375 C-4.44192996 4.36783031 -2.22307565 2.18187237 0 0 Z " fill="#F9F9F9" transform="translate(103,111)"/>
<path d="M0 0 C1.93415156 0.04519878 3.86840465 0.08625389 5.80273438 0.12304688 C10.51685047 0.22168366 15.22604869 0.3766596 19.9375 0.5625 C16.10189367 5.14914344 12.13111444 9.50904556 7.8828125 13.71484375 C7.06319534 14.53233849 7.06319534 14.53233849 6.22702026 15.36634827 C4.50787942 17.07996118 2.78526796 18.79003444 1.0625 20.5 C-0.11481638 21.67229204 -1.29190174 22.84481614 -2.46875 24.01757812 C-5.33067489 26.86856982 -8.19571457 29.71639615 -11.0625 32.5625 C-15.88665521 28.50998968 -20.55113506 24.33582391 -25.0625 19.9375 C-25.65933594 19.37804687 -26.25617188 18.81859375 -26.87109375 18.2421875 C-28.5625 16.5859375 -28.5625 16.5859375 -31.0625 13.5625 C-30.71164242 8.84446884 -27.61677663 5.62138462 -24.35205078 2.46533203 C-17.09879297 -1.73029595 -8.11811183 -0.32981342 0 0 Z " fill="#FAFAFA" transform="translate(143.0625,91.4375)"/>
</svg>
