<?xml version="1.0" encoding="UTF-8"?>
<svg version="1.1" xmlns="http://www.w3.org/2000/svg" width="225" height="225">
<path d="M0 0 C74.25 0 148.5 0 225 0 C225 74.25 225 148.5 225 225 C150.75 225 76.5 225 0 225 C0 150.75 0 76.5 0 0 Z " fill="#FDFDFD" transform="translate(0,0)"/>
<path d="M0 0 C1.16674805 1.76586914 1.16674805 1.76586914 2.26171875 4.03515625 C2.61967529 4.76355713 2.97763184 5.49195801 3.34643555 6.24243164 C3.78898682 7.1730542 4.23153809 8.10367676 4.6875 9.0625 C6.110625 12.011875 7.53375 14.96125 9 18 C16.26 18 23.52 18 31 18 C31.66 16.02 32.32 14.04 33 12 C34.16492415 9.68596515 35.3747085 7.39404754 36.625 5.125 C37.57246094 3.39636719 37.57246094 3.39636719 38.5390625 1.6328125 C39.02117187 0.76398437 39.50328125 -0.10484375 40 -1 C49.52887428 1.14011104 58.22576172 3.58017603 67 8 C66.93192139 8.64960693 66.86384277 9.29921387 66.79370117 9.96850586 C65.2171829 21.83041704 65.2171829 21.83041704 68.21142578 32.92431641 C71.61530518 36.23768429 75.69104597 38.06409312 80 40 C80.69609375 40.58265625 81.3921875 41.1653125 82.109375 41.765625 C83.95504636 43.22981426 83.95504636 43.22981426 86.37109375 42.9140625 C90.69460942 41.41078959 94.31909362 38.84935514 98.16015625 36.3984375 C101 35 101 35 103.1015625 35.015625 C110.36495291 38.78182743 118.09725165 49.48177055 121 57 C119.88798216 61.91155105 117.96460859 64.1445331 114.44140625 67.609375 C106.70121052 77.64014759 108.80057155 91.19876672 108.9375 103.25 C108.93442183 105.84506014 108.9272984 108.44011881 108.91601562 111.03515625 C108.8972749 117.35750787 108.92882597 123.67805473 109 130 C108.12263184 130.08040527 107.24526367 130.16081055 106.34130859 130.24365234 C103.06436089 130.54738636 99.78814496 130.85750587 96.51220703 131.171875 C95.09838336 131.30624801 93.68431994 131.43812409 92.27001953 131.56738281 C90.22879903 131.7543868 88.18862979 131.95056601 86.1484375 132.1484375 C84.92302246 132.26364746 83.69760742 132.37885742 82.43505859 132.49755859 C78.5059153 132.96958749 78.5059153 132.96958749 73 135 C72.34 140.28 71.68 145.56 71 151 C66.9168176 151.33527597 62.83347324 151.66830184 58.75 152 C57.01169922 152.14308594 57.01169922 152.14308594 55.23828125 152.2890625 C53.56572266 152.42441406 53.56572266 152.42441406 51.859375 152.5625 C50.83295898 152.64628906 49.80654297 152.73007813 48.74902344 152.81640625 C46.50351891 152.96637245 44.25050671 153 42 153 C41.87882812 152.01257813 41.75765625 151.02515625 41.6328125 150.0078125 C41.46523437 148.72648438 41.29765625 147.44515625 41.125 146.125 C40.96257812 144.84882813 40.80015625 143.57265625 40.6328125 142.2578125 C40.30122527 138.92835773 40.30122527 138.92835773 38 137 C35.22664573 136.80017975 32.55530357 136.720208 29.78125 136.734375 C28.96756958 136.73246155 28.15388916 136.7305481 27.31555176 136.72857666 C25.593991 136.72721473 23.87241997 136.73091172 22.15087891 136.73925781 C19.5105083 136.74995742 16.87081811 136.739363 14.23046875 136.7265625 C12.55989433 136.72788409 10.88932033 136.73044648 9.21875 136.734375 C8.42601685 136.73032654 7.63328369 136.72627808 6.81652832 136.72210693 C2.44072573 136.58895877 2.44072573 136.58895877 -1 139 C-1.45847689 141.36030696 -1.82143131 143.7398174 -2.125 146.125 C-2.29257813 147.40632812 -2.46015625 148.68765625 -2.6328125 150.0078125 C-2.81457031 151.48894531 -2.81457031 151.48894531 -3 153 C-6.14606461 152.85891477 -9.29178868 152.71123864 -12.4375 152.5625 C-13.31599609 152.52318359 -14.19449219 152.48386719 -15.09960938 152.44335938 C-20.76947262 152.17137332 -26.36448953 151.68222355 -32 151 C-32.66 145.72 -33.32 140.44 -34 135 C-38.5172514 133.49424953 -41.33876186 132.71121481 -45.87890625 132.40234375 C-46.96494141 132.32306641 -48.05097656 132.24378906 -49.16992188 132.16210938 C-50.28947266 132.08798828 -51.40902344 132.01386719 -52.5625 131.9375 C-54.79315773 131.78264654 -57.02363662 131.62518993 -59.25390625 131.46484375 C-60.23689697 131.399021 -61.2198877 131.33319824 -62.23266602 131.26538086 C-64.88091953 131.01141954 -67.39782395 130.54056942 -70 130 C-69.99476318 129.33538254 -69.98952637 128.67076508 -69.98413086 127.98600769 C-69.93719461 121.025369 -69.94662893 114.06637597 -69.98779297 107.10571289 C-69.99586962 104.51327018 -69.98990248 101.92074208 -69.96923828 99.32836914 C-69.94190809 95.58629113 -69.9662307 91.84743578 -70 88.10546875 C-69.9805835 86.95918503 -69.96116699 85.81290131 -69.94116211 84.63188171 C-70.07906367 76.81716172 -72.01132117 72.45550989 -76.9921875 66.43379211 C-78.96405498 64.04357115 -80.58516953 61.75667736 -82 59 C-80.15591207 51.48359098 -73.69820459 44.66794345 -68.875 38.8125 C-68.25367188 38.05582031 -67.63234375 37.29914062 -66.9921875 36.51953125 C-65 35 -65 35 -62.63671875 35.03515625 C-58.33352748 36.6098055 -54.68725247 39.14659552 -50.83984375 41.6015625 C-47.63217986 43.18112739 -47.2163117 43.07957986 -44 42 C-37.99029626 39.62999748 -31.76257805 36.37912018 -28 31 C-26.00987338 23.54227617 -27.008242 15.56501555 -28 8 C-22.49204254 5.08695794 -17.17017755 2.90362551 -11.1875 1.1875 C-10.06311523 0.84428711 -10.06311523 0.84428711 -8.91601562 0.49414062 C-3.37513393 -1.12504464 -3.37513393 -1.12504464 0 0 Z " fill="#000000" transform="translate(93,18)"/>
<path d="M0 0 C3.68778194 0.30922814 7.37516656 0.62297247 11.0625 0.9375 C12.62000977 1.06801758 12.62000977 1.06801758 14.20898438 1.20117188 C19.50327607 1.65496831 24.75044051 2.17347361 30 3 C30.06058594 4.05960938 30.12117188 5.11921875 30.18359375 6.2109375 C30.26800127 7.59897221 30.35264917 8.98699232 30.4375 10.375 C30.47681641 11.07367188 30.51613281 11.77234375 30.55664062 12.4921875 C30.74280134 16.37360492 30.74280134 16.37360492 32 20 C44.55832168 23.44157273 59.08284343 22.11802478 72 22 C72.99 17.05 73.98 12.1 75 7 C84.57 7 94.14 7 104 7 C104.99 11.95 105.98 16.9 107 22 C117.44552401 22.20002067 127.77992627 22.12550919 138.1875 21.125 C139.05407227 21.04652832 139.92064453 20.96805664 140.81347656 20.88720703 C142.88530445 20.66914191 144.94547715 20.34490435 147 20 C149.55168789 14.89662421 148.62045932 8.69311026 149 3 C158.9 2.01 168.8 1.02 179 0 C179 13.41586509 177.99096951 22.04723387 169.09765625 32.1640625 C149.75988432 50.81763021 118.46242443 54.22451405 92.9375 54.25 C92.23568604 54.25100708 91.53387207 54.25201416 90.81079102 54.25305176 C63.76374761 54.22697714 32.13808019 51.77417819 11 33 C3.21923496 24.7195528 -0.06147955 16.67325318 -0.01953125 5.296875 C-0.01671143 4.30526367 -0.0138916 3.31365234 -0.01098633 2.29199219 C-0.00736084 1.53563477 -0.00373535 0.77927734 0 0 Z " fill="#020203" transform="translate(23,155)"/>
<path d="M0 0 C4.77170419 2.88102894 8.79611892 6.96723785 11.3125 12 C11.96940809 19.69982434 12.21174031 25.81148592 7.3125 32 C2.78835888 36.62330037 -1.54185669 39.0321876 -8 39.375 C-13.81334512 39.21083577 -18.16694397 37.30818102 -22.44921875 33.38671875 C-26.58014959 28.87570226 -28.30546035 24.83800882 -29.125 18.75 C-28.43821994 12.86331378 -26.23770386 7.44975819 -21.90234375 3.28515625 C-15.03444367 -1.7454712 -8.05644039 -2.18479739 0 0 Z " fill="#F4F4F4" transform="translate(167.6875,97)"/>
<path d="M0 0 C6.19603372 3.52323486 9.80450268 8.17324009 12.1875 14.8125 C13.06565901 20.84984323 11.35562023 25.7175698 8.1875 30.8125 C3.57058486 35.95456188 -1.17652661 38.80741257 -8.125 39.1875 C-13.96058561 39.02270772 -18.38771203 37.13186241 -22.609375 33.09375 C-27.76488092 27.29994335 -28.17109952 22.65817656 -28.0859375 14.9765625 C-27.51662552 8.38880959 -23.25001375 5.04566868 -18.49609375 1.01171875 C-13.21532678 -2.74975563 -5.84067837 -1.81922769 0 0 Z " fill="#F4F4F4" transform="translate(73.8125,97.1875)"/>
<path d="M0 0 C3.09485287 1.56378401 5.00403024 3.26579548 7.03515625 6.05859375 C8.62145838 11.21407568 7.92397337 15.20350057 5.84765625 20.12109375 C3.12178475 23.41093866 0.31610613 24.93526463 -3.921875 25.62890625 C-9.02502692 25.92163007 -12.00255823 24.70483848 -15.96484375 21.30859375 C-18.73148709 16.88007591 -18.49074896 12.37043142 -17.96484375 7.30859375 C-16.65563348 4.07002097 -15.44450762 2.70602953 -12.77734375 0.49609375 C-8.40517869 -1.3499315 -4.44257642 -1.5632923 0 0 Z " fill="#030303" transform="translate(162.96484375,104.69140625)"/>
<path d="M0 0 C3.160755 2.13167197 4.32031654 3.24263207 5.6875 6.8125 C6.23195333 11.40254401 6.22491877 15.40923989 4.5625 19.75 C1.19888344 23.44997822 -2.37574311 24.96682083 -7.3125 25.25 C-11.57324445 25.06262501 -14.09094151 23.65945866 -17.3125 20.8125 C-19.96351613 16.74760861 -21.00216174 13.64013217 -20.3125 8.8125 C-18.84935583 5.13104047 -17.06814966 2.46319832 -14.0625 -0.125 C-9.02711874 -2.07048821 -4.95016597 -1.7745878 0 0 Z " fill="#030303" transform="translate(74.3125,105.1875)"/>
<path d="M0 0 C2.59418941 1.02402214 3.66906645 1.75304711 5.375 3.9375 C6.01474583 7.71915164 5.83826536 11.54533075 5.8125 15.375 C5.83248047 16.42494141 5.85246094 17.47488281 5.87304688 18.55664062 C5.87240234 19.56791016 5.87175781 20.57917969 5.87109375 21.62109375 C5.87294678 22.54462646 5.8747998 23.46815918 5.87670898 24.41967773 C5.22529692 27.68878365 3.94570634 28.8824115 1.375 30.9375 C-1.125 31.4375 -1.125 31.4375 -3.625 30.9375 C-6.17769424 28.88993772 -7.46774398 27.67505592 -8.15844727 24.43554688 C-8.19403445 21.43462451 -8.2189542 18.43860075 -8.1875 15.4375 C-8.21134766 14.39207031 -8.23519531 13.34664062 -8.25976562 12.26953125 C-8.24513063 4.64957751 -8.24513063 4.64957751 -5.25390625 1.21484375 C-2.625 -0.0625 -2.625 -0.0625 0 0 Z " fill="#F9F9F9" transform="translate(113.625,107.0625)"/>
</svg>
