<?xml version="1.0" encoding="UTF-8"?>
<svg version="1.1" xmlns="http://www.w3.org/2000/svg" width="225" height="225">
<path d="M0 0 C74.25 0 148.5 0 225 0 C225 74.25 225 148.5 225 225 C150.75 225 76.5 225 0 225 C0 150.75 0 76.5 0 0 Z " fill="#FDFDFD" transform="translate(0,0)"/>
<path d="M0 0 C3.97698199 3.64157387 7.53294953 7.82846007 9.8125 12.75 C8.6421546 16.26103621 7.99611836 16.5309362 4.91796875 18.34375 C4.12712891 18.81683594 3.33628906 19.28992188 2.52148438 19.77734375 C1.68939453 20.26332031 0.85730469 20.74929687 0 21.25 C-1.63256534 22.21697115 -3.26411058 23.18566706 -4.89453125 24.15625 C-5.6213208 24.58228516 -6.34811035 25.00832031 -7.09692383 25.44726562 C-9.2467297 26.73748595 -9.2467297 26.73748595 -11.33081055 28.41210938 C-13.1875 29.75 -13.1875 29.75 -15.1875 29.75 C-16.44921875 28.140625 -16.44921875 28.140625 -17.875 26 C-20.74806904 22.12341881 -23.43057854 19.09821838 -28.1875 17.75 C-34.86345582 17.03206656 -40.6297807 16.56748428 -46.1875 20.75 C-49.10715571 23.77826434 -49.61916424 25.95826521 -49.625 30.125 C-49.64433594 31.04023437 -49.66367188 31.95546875 -49.68359375 32.8984375 C-49.01785106 36.72514742 -47.66755174 38.76745412 -45.1875 41.75 C-42.92674671 43.18679522 -40.91409281 44.28775091 -38.5 45.375 C-37.82445068 45.69782959 -37.14890137 46.02065918 -36.45288086 46.35327148 C-34.03904227 47.50321176 -31.61417976 48.62741472 -29.1875 49.75 C-25.97773181 51.24230574 -22.77084025 52.74006559 -19.5690918 54.24951172 C-17.40401937 55.26906256 -15.23378504 56.27774381 -13.05786133 57.27392578 C-4.2281097 61.42014293 3.18074072 66.54980421 9.8125 73.75 C10.8025 74.801875 10.8025 74.801875 11.8125 75.875 C19.79532713 87.350314 21.33549065 100.18686231 19.1875 113.8125 C16.7564752 124.33005869 10.52331293 132.92825449 1.828125 139.17578125 C-0.45353402 140.56107423 -2.74691721 141.66771775 -5.1875 142.75 C-6.198125 143.21664062 -7.20875 143.68328125 -8.25 144.1640625 C-24.76272252 150.76177976 -45.92539036 150.00002817 -62.234375 143.0859375 C-74.67824826 137.45880327 -85.37505107 129.5499778 -91.1875 116.75 C-89.41511837 111.43285511 -83.52172983 109.62564972 -78.8125 107 C-77.74515625 106.38511719 -76.6778125 105.77023438 -75.578125 105.13671875 C-74.55460937 104.56050781 -73.53109375 103.98429687 -72.4765625 103.390625 C-71.53506348 102.85985352 -70.59356445 102.32908203 -69.62353516 101.78222656 C-67.1875 100.75 -67.1875 100.75 -64.1875 101.75 C-62.6796875 103.60546875 -62.6796875 103.60546875 -61.0625 105.9375 C-56.00297141 112.64084167 -49.59804075 117.37122283 -41.1875 118.75 C-32.90004248 119.39135101 -25.26397028 119.59753801 -18.1875 114.75 C-14.22001119 110.58413675 -12.78899843 107.72087463 -12.92578125 101.90234375 C-13.37835179 98.18045766 -14.70066006 95.46773191 -17.1875 92.75 C-24.0058212 87.82106322 -31.71898286 84.65753473 -39.4375 81.4375 C-57.32657474 73.75014264 -72.5433015 65.61705044 -80.1875 46.75 C-84.2418009 34.71120856 -83.23048861 21.58650779 -77.6875 10.25 C-72.01614564 0.44528568 -63.74611951 -5.51048892 -53.1875 -9.25 C-52.506875 -9.49492188 -51.82625 -9.73984375 -51.125 -9.9921875 C-33.93303934 -14.89458253 -13.73164697 -11.19258772 0 0 Z " fill="#010101" transform="translate(205.1875,44.25)"/>
<path d="M0 0 C10.56 0 21.12 0 32 0 C32.0906692 14.97855154 32.16419499 29.95696035 32.20724869 44.93572235 C32.22778016 51.89230754 32.2557178 58.84870877 32.30175781 65.80517578 C32.34623672 72.5290324 32.36919371 79.25265927 32.37950897 85.97666931 C32.38685226 88.53127534 32.4011908 91.08587195 32.42292023 93.64039612 C32.7206215 130.11664477 32.7206215 130.11664477 21 144 C11.66207173 153.42771605 -0.42358067 157.01598173 -13.40625 157.24145508 C-29.51862132 157.3018075 -42.66053444 153.79994562 -54.66015625 142.55859375 C-58.42649106 138.44014751 -61.26422768 133.84648408 -64 129 C-60.42242927 124.8977189 -56.10747341 122.53117053 -51.4375 119.875 C-49.91498617 118.99805249 -48.39283614 118.12047299 -46.87109375 117.2421875 C-45.86453735 116.66766846 -45.86453735 116.66766846 -44.83764648 116.08154297 C-43.18992768 115.11178153 -41.59080847 114.06053898 -40 113 C-39.01 113 -38.02 113 -37 113 C-35.5703125 114.828125 -35.5703125 114.828125 -34.125 117.25 C-30.92692196 122.29251413 -27.53474461 125.63369614 -22 128 C-15.91802997 128.77279157 -11.31994416 128.19196649 -6 125 C-5.34 125 -4.68 125 -4 125 C-3.690625 124.05125 -3.38125 123.1025 -3.0625 122.125 C-2 119 -2 119 -1 117 C-0.8957888 115.44182966 -0.85348531 113.87932595 -0.84178162 112.31771851 C-0.82709839 110.83691048 -0.82709839 110.83691048 -0.81211853 109.32618713 C-0.80636307 108.23934128 -0.8006076 107.15249542 -0.79467773 106.03271484 C-0.78477814 104.89125504 -0.77487854 103.74979523 -0.76467896 102.57374573 C-0.73299335 98.78616436 -0.70827862 94.99857044 -0.68359375 91.2109375 C-0.66303032 88.59062364 -0.64203402 85.97031315 -0.62062073 83.3500061 C-0.57067646 77.14876233 -0.52574408 70.94749269 -0.48259836 64.7461983 C-0.43324079 57.68700521 -0.37831718 50.6278589 -0.32291877 43.56871104 C-0.20907211 29.0458504 -0.10297376 14.52294193 0 0 Z " fill="#010101" transform="translate(64,35)"/>
</svg>
