<?xml version="1.0" encoding="UTF-8"?>
<svg version="1.1" xmlns="http://www.w3.org/2000/svg" width="215" height="234">
<path d="M0 0 C70.95 0 141.9 0 215 0 C215 77.22 215 154.44 215 234 C144.05 234 73.1 234 0 234 C0 156.78 0 79.56 0 0 Z " fill="#F0F0F0" transform="translate(0,0)"/>
<path d="M0 0 C6.75912461 6.60968818 10.54843105 13.24030762 11.625 22.75 C10.60886025 32.74204086 5.61969996 39.83635447 -1.75 46.4375 C-20.20835631 60.5085869 -43.00858536 66.11893911 -65.65014648 69.1550293 C-67.59654668 69.41685758 -69.53879037 69.70909644 -71.48046875 70.00390625 C-102.01999938 73.72732193 -136.83664735 69.64738627 -164.75 56.4375 C-165.88566406 55.90382813 -167.02132812 55.37015625 -168.19140625 54.8203125 C-180.05906172 48.8521057 -189.45463568 41.32359296 -193.75 28.4375 C-194.40813447 20.55067551 -194.40008519 14.02389826 -189.75 7.4375 C-189.37230469 6.86902344 -188.99460938 6.30054687 -188.60546875 5.71484375 C-173.7847274 -13.94166819 -143.77376826 -20.42374801 -120.89038086 -23.67431641 C-82.33357917 -28.78996086 -31.15390486 -26.72968169 0 0 Z " fill="#000000" transform="translate(196.75,25.5625)"/>
<path d="M0 0 C0.54663803 0.41141739 1.09327606 0.82283478 1.65647888 1.24671936 C2.37497513 1.78671066 3.09347137 2.32670197 3.83374023 2.88305664 C4.54537827 3.41822403 5.2570163 3.95339142 5.99021912 4.504776 C26.6465362 19.87253141 51.63181188 27.37570468 77 30 C78.60847889 31.60847889 78.43276768 33.59504608 78.75 35.8125 C80.81902395 47.47152548 86.01730329 58.65376039 94.9375 66.625 C95.618125 67.07875 96.29875 67.5325 97 68 C97.96542018 63.88751617 98.19489963 59.9484843 98.31640625 55.73046875 C98.3475779 54.70896477 98.3475779 54.70896477 98.37937927 53.66682434 C98.44437878 51.50714492 98.50352712 49.34735154 98.5625 47.1875 C98.6057325 45.71678544 98.64934825 44.24608209 98.69335938 42.77539062 C98.80000859 39.18371283 98.90141349 35.59190918 99 32 C101.31 32 103.62 32 106 32 C106.07505428 36.35584243 106.12902107 40.71132632 106.16479492 45.06762695 C106.17973313 46.54458181 106.20009131 48.02149349 106.22631836 49.49829102 C106.36543591 57.54255855 106.26591152 64.98361755 103.71679688 72.72265625 C102.64752483 76.11985299 102.33372528 79.46251206 102 83 C104.64 83 107.28 83 110 83 C109.91878906 82.3709375 109.83757812 81.741875 109.75390625 81.09375 C109.2454525 74.20368291 109.2454525 74.20368291 111.3125 70.90625 C112.51516564 69.5962035 113.74492588 68.31068093 114.99609375 67.046875 C124.15114756 57.69551399 128.97517914 46.14136886 130.640625 33.30078125 C131 31 131 31 132 30 C134.04212684 29.70307988 136.08531415 29.41226168 138.13232422 29.15112305 C163.26847851 25.89950525 187.79827892 18.06819652 207 1 C207.66 1 208.32 1 209 1 C209.12757048 7.51020197 209.21467172 14.02007749 209.2746582 20.53125 C209.29968484 22.74263555 209.3337169 24.95393937 209.37719727 27.16503906 C209.43837176 30.35762791 209.46632914 33.54911613 209.48828125 36.7421875 C209.51408768 37.71864227 209.5398941 38.69509705 209.56648254 39.70114136 C209.57020255 48.96257349 206.05070659 56.5654387 199.76953125 63.35546875 C172.80681792 88.41353124 128.71235116 92.13035511 93.83154297 91.13623047 C67.23530768 89.85663922 36.71895602 84.41155082 15 68 C14.26652344 67.45859375 13.53304688 66.9171875 12.77734375 66.359375 C6.74147447 61.53067957 2.45024336 55.35073008 0 48 C-0.08705429 46.41966808 -0.11767952 44.83589622 -0.11352539 43.25317383 C-0.11344986 42.29240433 -0.11337433 41.33163483 -0.11329651 40.3417511 C-0.10813522 39.30729355 -0.10297394 38.272836 -0.09765625 37.20703125 C-0.0962413 36.14586594 -0.09482635 35.08470062 -0.09336853 33.99137878 C-0.08776606 30.59839065 -0.07521314 27.20546823 -0.0625 23.8125 C-0.05748532 21.51367283 -0.05292236 19.21484462 -0.04882812 16.91601562 C-0.03779583 11.27732128 -0.0210553 5.63866534 0 0 Z " fill="#000000" transform="translate(3,143)"/>
<path d="M0 0 C0.53943237 0.40887955 1.07886475 0.81775909 1.63464355 1.23902893 C2.3475354 1.77704636 3.06042725 2.31506378 3.79492188 2.86938477 C4.85157043 3.66832909 4.85157043 3.66832909 5.92956543 4.4834137 C42.15744654 31.02021379 93.93601207 35.55183273 137 29 C152.28476047 26.57607337 166.7738679 23.15066066 181 17 C181.96752197 16.58645264 181.96752197 16.58645264 182.95458984 16.16455078 C191.3960592 12.47623053 198.45373413 7.71377575 205.55078125 1.94140625 C208 0 208 0 209 0 C209.12754127 6.65262205 209.21465991 13.30492492 209.2746582 19.95849609 C209.29968909 22.21838157 209.33372438 24.47818702 209.37719727 26.73779297 C209.43835233 29.99987619 209.46632502 33.26088245 209.48828125 36.5234375 C209.51408768 37.52176605 209.5398941 38.5200946 209.56648254 39.54867554 C209.57014384 48.85803307 206.28427167 56.41885962 199.6875 63.0625 C182.07514662 79.68334311 155.42578629 86.45490873 132 89 C131.8040625 87.9584375 131.608125 86.916875 131.40625 85.84375 C128.02586642 69.14807281 120.80191997 50.86794664 106 41 C106 57.17 106 73.34 106 90 C103.69 90 101.38 90 99 90 C98.67 75.48 98.34 60.96 98 46 C90.46316015 55.82495385 90.46316015 55.82495385 84.5625 66.3125 C84.23830078 66.96283203 83.91410156 67.61316406 83.58007812 68.28320312 C80.912193 73.76688486 79.01683874 79.34003193 78.375 85.4375 C78.189375 87.2009375 78.189375 87.2009375 78 89 C50.71462575 85.71364748 23.78172487 78.42182002 4.7265625 57.40625 C-0.11695143 50.65601338 -0.41653127 44.90671721 -0.29296875 36.81640625 C-0.28872391 35.76090073 -0.28447906 34.7053952 -0.28010559 33.61790466 C-0.26339049 30.26583729 -0.22575088 26.9143839 -0.1875 23.5625 C-0.17244393 21.28190976 -0.15875714 19.00131004 -0.14648438 16.72070312 C-0.1135105 11.14692798 -0.06338268 5.57350787 0 0 Z " fill="#000000" transform="translate(3,75)"/>
<path d="M0 0 C0.33 1.32 0.66 2.64 1 4 C2.32 4 3.64 4 5 4 C5 2.68 5 1.36 5 0 C5.99 0 6.98 0 8 0 C8 1.32 8 2.64 8 4 C9.32 4 10.64 4 12 4 C12 4.99 12 5.98 12 7 C12.99 7 13.98 7 15 7 C15 8.32 15 9.64 15 11 C16.32 11 17.64 11 19 11 C19 11.99 19 12.98 19 14 C19.66 14.33 20.32 14.66 21 15 C19.35 15 17.7 15 16 15 C16 15.99 16 16.98 16 18 C16.99 18 17.98 18 19 18 C19 19.32 19 20.64 19 22 C19.99 22 20.98 22 22 22 C22 22.99 22 23.98 22 25 C21.01 25 20.02 25 19 25 C19 26.32 19 27.64 19 29 C18.01 29 17.02 29 16 29 C15.67 30.32 15.34 31.64 15 33 C14.01 33 13.02 33 12 33 C12 33.99 12 34.98 12 36 C12.99 36 13.98 36 15 36 C15 36.99 15 37.98 15 39 C16.32 39 17.64 39 19 39 C19 38.01 19 37.02 19 36 C19.99 36 20.98 36 22 36 C21.67 37.32 21.34 38.64 21 40 C20.34 40 19.68 40 19 40 C19 40.99 19 41.98 19 43 C20.32 43 21.64 43 23 43 C24.19209185 53.49040824 18.06778719 62.50246016 12 70.546875 C10.27083906 72.66779897 8.46718081 74.60287647 6.5625 76.5625 C3.03197229 80.48530857 3.02049312 84.90745946 3 90 C0.36 90 -2.28 90 -5 90 C-5.26543224 85.31069716 -5.02117462 81.78943638 -3.5 77.34375 C-1.21621734 69.27249327 -1.67831451 61.1227168 -1.8125 52.8125 C-1.82758109 51.17644467 -1.84126341 49.54037583 -1.85351562 47.90429688 C-1.88623417 43.93585803 -1.93782435 39.96808214 -2 36 C-1.01 36 -0.02 36 1 36 C1 34.68 1 33.36 1 32 C0.01 32 -0.98 32 -2 32 C-2 31.34 -2 30.68 -2 30 C-1.34 30 -0.68 30 0 30 C0 20.1 0 10.2 0 0 Z M14 39 C13.01 39.495 13.01 39.495 12 40 C12 40.99 12 41.98 12 43 C12.99 43 13.98 43 15 43 C14.67 41.68 14.34 40.36 14 39 Z " fill="#F6F6F6" transform="translate(110,136)"/>
<path d="M0 0 C0.99 0 1.98 0 3 0 C3 31.02 3 62.04 3 94 C-30 94 -63 94 -97 94 C-97 93.67 -97 93.34 -97 93 C-96.03964844 92.97421875 -95.07929687 92.9484375 -94.08984375 92.921875 C-66.74051656 91.90239213 -36.01800357 86.3360143 -14 69 C-12.39125 67.8553125 -12.39125 67.8553125 -10.75 66.6875 C-4.22616635 60.3119353 0.04567107 52.08602176 0.22705078 42.91259766 C0.22673632 40.91305797 0.21556752 38.91349961 0.1953125 36.9140625 C0.1924826 35.85714203 0.18965271 34.80022156 0.18673706 33.71127319 C0.1755785 30.34906499 0.15048159 26.98712714 0.125 23.625 C0.11496462 21.33984761 0.10583975 19.05469102 0.09765625 16.76953125 C0.07565332 11.17959589 0.04221873 5.58981727 0 0 Z " fill="#F0F0F0" transform="translate(212,140)"/>
<path d="M0 0 C32.01 0 64.02 0 97 0 C97 0.33 97 0.66 97 1 C96.42894531 1.03440186 95.85789062 1.06880371 95.26953125 1.10424805 C67.77075653 2.86663971 41.43124931 7.76016305 18 23 C17.01 22.34 16.02 21.68 15 21 C15.99 21 16.98 21 18 21 C18 20.01 18 19.02 18 18 C16.68 18 15.36 18 14 18 C14 19.32 14 20.64 14 22 C13.01 22 12.02 22 11 22 C11 22.99 11 23.98 11 25 C9.68 25 8.36 25 7 25 C7 25.99 7 26.98 7 28 C6.01 28 5.02 28 4 28 C4 27.01 4 26.02 4 25 C2.68 25 1.36 25 0 25 C0 16.75 0 8.5 0 0 Z " fill="#EEEEEE" transform="translate(0,0)"/>
<path d="M0 0 C0.33 1.32 0.66 2.64 1 4 C2.32 4 3.64 4 5 4 C5 2.68 5 1.36 5 0 C5.99 0 6.98 0 8 0 C8 1.32 8 2.64 8 4 C9.32 4 10.64 4 12 4 C12 4.99 12 5.98 12 7 C12.99 7 13.98 7 15 7 C15 8.32 15 9.64 15 11 C16.32 11 17.64 11 19 11 C19 11.99 19 12.98 19 14 C19.66 14.33 20.32 14.66 21 15 C19.35 15 17.7 15 16 15 C16 15.99 16 16.98 16 18 C16.99 18 17.98 18 19 18 C19 19.32 19 20.64 19 22 C19.99 22 20.98 22 22 22 C22 22.99 22 23.98 22 25 C21.01 25 20.02 25 19 25 C19 26.32 19 27.64 19 29 C18.01 29 17.02 29 16 29 C15.67 30.32 15.34 31.64 15 33 C14.01 33 13.02 33 12 33 C12 33.99 12 34.98 12 36 C12.99 36 13.98 36 15 36 C14.67 37.32 14.34 38.64 14 40 C13.34 40 12.68 40 12 40 C12 40.99 12 41.98 12 43 C9.69 43 7.38 43 5 43 C5 45.31 5 47.62 5 50 C3.68 50 2.36 50 1 50 C0.67 51.32 0.34 52.64 0 54 C-0.06058594 52.95199219 -0.12117188 51.90398437 -0.18359375 50.82421875 C-0.26801738 49.44529952 -0.35266447 48.06639395 -0.4375 46.6875 C-0.47681641 45.99720703 -0.51613281 45.30691406 -0.55664062 44.59570312 C-0.74927415 41.52838465 -1.02322717 38.93031848 -2 36 C-1.01 36 -0.02 36 1 36 C1 34.68 1 33.36 1 32 C0.01 32 -0.98 32 -2 32 C-2 31.34 -2 30.68 -2 30 C-1.34 30 -0.68 30 0 30 C0 20.1 0 10.2 0 0 Z " fill="#EFEFEF" transform="translate(110,136)"/>
<path d="M0 0 C0.66 0.33 1.32 0.66 2 1 C2 1.99 2 2.98 2 4 C1.01 4 0.02 4 -1 4 C-1.33 5.32 -1.66 6.64 -2 8 C-2.99 8 -3.98 8 -5 8 C-5 8.99 -5 9.98 -5 11 C-3.68 11 -2.36 11 -1 11 C-1 12.32 -1 13.64 -1 15 C-0.01 15 0.98 15 2 15 C2 13.68 2 12.36 2 11 C3.32 11 4.64 11 6 11 C6 10.01 6 9.02 6 8 C6.99 8 7.98 8 9 8 C8.72268378 11.369097 8.25647257 12.74167229 5.83984375 15.17578125 C-2.32364036 21.18577561 -10.77722987 25.81162154 -20 30 C-21.47146484 30.70382813 -21.47146484 30.70382813 -22.97265625 31.421875 C-30.41030963 34.62039457 -37.07885833 34.06386136 -45 33 C-45 33.99 -45 34.98 -45 36 C-45.99 36 -46.98 36 -48 36 C-48 35.01 -48 34.02 -48 33 C-48.99 33 -49.98 33 -51 33 C-51 31.68 -51 30.36 -51 29 C-50.01 29 -49.02 29 -48 29 C-48 28.01 -48 27.02 -48 26 C-47.46745605 25.82460693 -46.93491211 25.64921387 -46.38623047 25.46850586 C-28.80205402 19.62792563 -13.23059359 13.49999482 0 0 Z " fill="#F1F1F1" transform="translate(202,64)"/>
<path d="M0 0 C3.2603822 0.63151547 5.48161434 1.81490168 8.25 3.625 C19.38021175 10.43407071 31.39122377 14.82810473 44 18 C42.68 18.33 41.36 18.66 40 19 C40 19.66 40 20.32 40 21 C40.99 21 41.98 21 43 21 C43 22.32 43 23.64 43 25 C44.32 25 45.64 25 47 25 C47 25.99 47 26.98 47 28 C48.32 28 49.64 28 51 28 C51 27.01 51 26.02 51 25 C51.99 25 52.98 25 54 25 C54 25.99 54 26.98 54 28 C55.32 28 56.64 28 58 28 C58 29.32 58 30.64 58 32 C40.35161468 30.01061728 23.88545956 24.76287964 8.125 16.625 C7.45984375 16.28637939 6.7946875 15.94775879 6.109375 15.59887695 C-0.02653755 12.30885764 -4.32079226 8.54336619 -10 4 C-10.33 18.19 -10.66 32.38 -11 47 C-11.33 47 -11.66 47 -12 47 C-12 32.15 -12 17.3 -12 2 C-8.04 2.33 -4.08 2.66 0 3 C0 2.01 0 1.02 0 0 Z " fill="#E7E7E7" transform="translate(14,72)"/>
<path d="M0 0 C0.33 0.66 0.66 1.32 1 2 C2.32 2 3.64 2 5 2 C5 3.32 5 4.64 5 6 C6.32 6 7.64 6 9 6 C9.33 6.99 9.66 7.98 10 9 C10.66 9.33 11.32 9.66 12 10 C12 32.44 12 54.88 12 78 C11.01 78 10.02 78 9 78 C9.33 78.66 9.66 79.32 10 80 C10.08963847 81.48100811 10.11757925 82.96599424 10.11352539 84.44970703 C10.11344986 85.37051056 10.11337433 86.29131409 10.11329651 87.24002075 C10.10813522 88.23589203 10.10297394 89.23176331 10.09765625 90.2578125 C10.0962413 91.27600067 10.09482635 92.29418884 10.09336853 93.3432312 C10.087759 96.60385035 10.07520488 99.86440151 10.0625 103.125 C10.05748623 105.33203026 10.05292311 107.53906159 10.04882812 109.74609375 C10.03778648 115.16408581 10.02103905 120.58203805 10 126 C9.67 126 9.34 126 9 126 C8.67 111.48 8.34 96.96 8 82 C7.01 81.67 6.02 81.34 5 81 C5 80.01 5 79.02 5 78 C3.68 78 2.36 78 1 78 C1 78.99 1 79.98 1 81 C0.01 81 -0.98 81 -2 81 C-2 80.34 -2 79.68 -2 79 C-2.66 78.67 -3.32 78.34 -4 78 C-3.55269531 77.61070312 -3.10539063 77.22140625 -2.64453125 76.8203125 C-2.03996094 76.26085937 -1.43539062 75.70140625 -0.8125 75.125 C-0.22082031 74.59132813 0.37085938 74.05765625 0.98046875 73.5078125 C7.21417843 65.76691963 8.72513693 58.63229639 8.48828125 48.8671875 C8.48120651 47.74933868 8.47413177 46.63148987 8.46684265 45.47976685 C8.43907575 41.94413503 8.37636784 38.41014511 8.3125 34.875 C8.28739438 32.4635647 8.26458521 30.05210433 8.24414062 27.640625 C8.18930735 21.75986586 8.10585992 15.88005027 8 10 C7.01 10 6.02 10 5 10 C5 10.99 5 11.98 5 13 C3.68 13 2.36 13 1 13 C1 14.32 1 15.64 1 17 C0.01 17 -0.98 17 -2 17 C-2 15.68 -2 14.36 -2 13 C-3.32 13 -4.64 13 -6 13 C-6 12.01 -6 11.02 -6 10 C-5.01 9.67 -4.02 9.34 -3 9 C-2.67 8.01 -2.34 7.02 -2 6 C-1.01 6 -0.02 6 1 6 C0.34 4.35 -0.32 2.7 -1 1 C-0.67 0.67 -0.34 0.34 0 0 Z " fill="#DDDDDD" transform="translate(203,62)"/>
<path d="M0 0 C11.74134272 5.87067136 19.16446396 20.29164733 23.4375 32.25 C25.02668108 37.45859349 25.75964787 42.56804191 26 48 C25.01 48.33 24.02 48.66 23 49 C23 46.69 23 44.38 23 42 C22.01 42 21.02 42 20 42 C20 40.68 20 39.36 20 38 C19.01 38 18.02 38 17 38 C17 37.01 17 36.02 17 35 C18.485 34.505 18.485 34.505 20 34 C20 33.01 20 32.02 20 31 C18.68 31 17.36 31 16 31 C16 29.68 16 28.36 16 27 C15.01 27 14.02 27 13 27 C13 26.01 13 25.02 13 24 C11.68 24 10.36 24 9 24 C9 22.68 9 21.36 9 20 C8.01 20 7.02 20 6 20 C6 21.32 6 22.64 6 24 C4.68 24 3.36 24 2 24 C1.67 32.58 1.34 41.16 1 50 C0.34 50 -0.32 50 -1 50 C-1 50.66 -1 51.32 -1 52 C-0.01 52 0.98 52 2 52 C2 53.32 2 54.64 2 56 C1.01 56 0.02 56 -1 56 C-0.67 56.99 -0.34 57.98 0 59 C-2.31 59 -4.62 59 -7 59 C-6.01 58.505 -6.01 58.505 -5 58 C-5 57.34 -5 56.68 -5 56 C-6.32 56 -7.64 56 -9 56 C-9 54.68 -9 53.36 -9 52 C-7.68 52 -6.36 52 -5 52 C-5 51.34 -5 50.68 -5 50 C-5.66 49.67 -6.32 49.34 -7 49 C-4.69 49 -2.38 49 0 49 C0 32.83 0 16.66 0 0 Z " fill="#F0F0F0" transform="translate(109,116)"/>
<path d="M0 0 C0.99 0 1.98 0 3 0 C3 27.06 3 54.12 3 82 C1.68 82 0.36 82 -1 82 C-1 82.99 -1 83.98 -1 85 C-1.99 85 -2.98 85 -4 85 C-4 84.01 -4 83.02 -4 82 C-5.32 82 -6.64 82 -8 82 C-8 83.32 -8 84.64 -8 86 C-8.99 86 -9.98 86 -11 86 C-11 86.99 -11 87.98 -11 89 C-12.32 89 -13.64 89 -15 89 C-15 87.68 -15 86.36 -15 85 C-14.01 85 -13.02 85 -12 85 C-12 84.01 -12 83.02 -12 82 C-12.99 82 -13.98 82 -15 82 C-15 81.01 -15 80.02 -15 79 C-16.98 79.495 -16.98 79.495 -19 80 C-19 79.34 -19 78.68 -19 78 C-16.36 78 -13.72 78 -11 78 C-11 77.01 -11 76.02 -11 75 C-10.01 75 -9.02 75 -8 75 C-8 75.99 -8 76.98 -8 78 C-6.68 78 -5.36 78 -4 78 C-4 77.01 -4 76.02 -4 75 C-3.01 75 -2.02 75 -1 75 C-1 73.68 -1 72.36 -1 71 C-1.99 71 -2.98 71 -4 71 C-4 70.01 -4 69.02 -4 68 C-5.32 68 -6.64 68 -8 68 C-8 68.99 -8 69.98 -8 71 C-8.99 71 -9.98 71 -11 71 C-11.33 70.01 -11.66 69.02 -12 68 C-10.7421875 66.37890625 -10.7421875 66.37890625 -8.875 64.5625 C2.06129166 52.38051696 0.61185888 38.69014021 0.3125 23.25 C0.28738106 20.99221225 0.26457426 18.73439752 0.24414062 16.4765625 C0.18944343 10.98377978 0.10610433 5.49201769 0 0 Z " fill="#F5F5F5" transform="translate(212,140)"/>
<path d="M0 0 C22.11 0 44.22 0 67 0 C67 0.99 67 1.98 67 3 C68.32 3.33 69.64 3.66 71 4 C71 4.99 71 5.98 71 7 C69.68 7 68.36 7 67 7 C67 8.32 67 9.64 67 11 C68.32 11 69.64 11 71 11 C71 12.32 71 13.64 71 15 C74.3 15 77.6 15 81 15 C81 15.99 81 16.98 81 18 C80.01 18 79.02 18 78 18 C77.505 19.485 77.505 19.485 77 21 C76.12601562 20.49210937 75.25203125 19.98421875 74.3515625 19.4609375 C51.208194 6.35850573 26.22171227 2.77139674 0 1 C0 0.67 0 0.34 0 0 Z " fill="#EDEDED" transform="translate(112,0)"/>
<path d="M0 0 C5.94 0 11.88 0 18 0 C18 1.32 18 2.64 18 4 C18.99 4 19.98 4 21 4 C21 4.99 21 5.98 21 7 C20.01 7 19.02 7 18 7 C18 8.32 18 9.64 18 11 C16.68 11 15.36 11 14 11 C14 11.99 14 12.98 14 14 C13.01 14 12.02 14 11 14 C11 15.32 11 16.64 11 18 C11.99 18 12.98 18 14 18 C14 19.32 14 20.64 14 22 C13.01 22 12.02 22 11 22 C11 22.99 11 23.98 11 25 C9.68 25 8.36 25 7 25 C7 25.99 7 26.98 7 28 C6.01 28 5.02 28 4 28 C4 27.01 4 26.02 4 25 C2.68 25 1.36 25 0 25 C0 16.75 0 8.5 0 0 Z " fill="#F4F4F4" transform="translate(0,0)"/>
<path d="M0 0 C5.45126761 -0.13884735 10.19948601 0.28788982 15.5625 1.4375 C22.27354618 2.81333187 28.74158895 3.44140601 35.59765625 3.69140625 C39.33087981 4.03001091 42.43640131 4.86963557 46 6 C46 8.31 46 10.62 46 13 C43.69 13 41.38 13 39 13 C39 11.68 39 10.36 39 9 C38.01 9 37.02 9 36 9 C36 8.01 36 7.02 36 6 C34.68 6 33.36 6 32 6 C32 6.99 32 7.98 32 9 C32.99 9 33.98 9 35 9 C35 10.32 35 11.64 35 13 C31.76127868 14.07957377 29.33971795 14.13326784 25.9375 14.125 C24.87402344 14.12757812 23.81054688 14.13015625 22.71484375 14.1328125 C20 14 20 14 18 13 C18 11.68 18 10.36 18 9 C16.68 9 15.36 9 14 9 C14 8.01 14 7.02 14 6 C13.01 6 12.02 6 11 6 C11 6.99 11 7.98 11 9 C9.68 9 8.36 9 7 9 C7 8.01 7 7.02 7 6 C5.68 6 4.36 6 3 6 C3 4.68 3 3.36 3 2 C2.01 2 1.02 2 0 2 C0 1.34 0 0.68 0 0 Z " fill="#F5F5F5" transform="translate(54,91)"/>
<path d="M0 0 C1.32 0 2.64 0 4 0 C4 0.99 4 1.98 4 3 C4.99 3.33 5.98 3.66 7 4 C-8.09847307 18.67907104 -8.09847307 18.67907104 -17.87890625 19.2109375 C-21.30199975 18.96914482 -24.62170788 18.59469935 -28 18 C-28 19.65 -28 21.3 -28 23 C-28.33 22.34 -28.66 21.68 -29 21 C-29.99 21 -30.98 21 -32 21 C-32 20.01 -32 19.02 -32 18 C-31.01 17.67 -30.02 17.34 -29 17 C-28.84297607 16.360625 -28.68595215 15.72125 -28.52416992 15.0625 C-28.35119385 14.381875 -28.17821777 13.70125 -28 13 C-25.43975252 11.48806608 -23.00563812 10.22133456 -20.3125 9 C-18.89006383 8.33731818 -17.46945702 7.67069436 -16.05078125 7 C-15.36322754 6.67515625 -14.67567383 6.3503125 -13.96728516 6.015625 C-12.08473952 5.04374738 -10.39984387 3.96632775 -8.66796875 2.75 C-6 1 -6 1 -3 1 C-3 1.66 -3 2.32 -3 3 C-2.01 3 -1.02 3 0 3 C0 2.01 0 1.02 0 0 Z " fill="#F2F2F2" transform="translate(204,140)"/>
<path d="M0 0 C0.33 0 0.66 0 1 0 C1.33 3.63 1.66 7.26 2 11 C3.32 11 4.64 11 6 11 C6 8.69 6 6.38 6 4 C8.31 4 10.62 4 13 4 C13 4.99 13 5.98 13 7 C11.68 7 10.36 7 9 7 C9 8.32 9 9.64 9 11 C10.32 11 11.64 11 13 11 C13 12.32 13 13.64 13 15 C11.68 15 10.36 15 9 15 C9 15.99 9 16.98 9 18 C10.32 18 11.64 18 13 18 C13 19.32 13 20.64 13 22 C11.68 22 10.36 22 9 22 C9 22.99 9 23.98 9 25 C8.01 25 7.02 25 6 25 C6 24.01 6 23.02 6 22 C4.68 22 3.36 22 2 22 C2 25.63 2 29.26 2 33 C2.99 33 3.98 33 5 33 C5 33.99 5 34.98 5 36 C3.515 36.495 3.515 36.495 2 37 C2 37.99 2 38.98 2 40 C2.99 40.33 3.98 40.66 5 41 C4.67 44.3 4.34 47.6 4 51 C1.36 51 -1.28 51 -4 51 C-4.26579428 46.30430099 -4.0101926 42.71859507 -2.53125 38.25 C-0.39383109 30.69601638 -0.43336232 23.0972505 -0.3125 15.3125 C-0.27924597 13.82093512 -0.24474918 12.32939741 -0.20898438 10.83789062 C-0.12502084 7.2254602 -0.0577843 3.6129553 0 0 Z " fill="#EEEEEE" transform="translate(109,175)"/>
<path d="M0 0 C18.81 0 37.62 0 57 0 C57 0.33 57 0.66 57 1 C56.42894531 1.03440186 55.85789063 1.06880371 55.26953125 1.10424805 C43.71087711 1.84504017 32.40865344 3.06072535 21.0625 5.4375 C20.07572266 5.64270264 19.08894531 5.84790527 18.07226562 6.05932617 C13.79616013 6.99609808 9.72289618 8.02778119 5.65234375 9.6484375 C2.26032317 10.90366651 0.06233205 11.3359305 -3.5 11.1875 C-4.3559375 11.16042969 -5.211875 11.13335937 -6.09375 11.10546875 C-7.03734375 11.05326172 -7.03734375 11.05326172 -8 11 C-8 9.68 -8 8.36 -8 7 C-6.68 7 -5.36 7 -4 7 C-4 6.01 -4 5.02 -4 4 C-3.01 3.67 -2.02 3.34 -1 3 C-0.67 2.01 -0.34 1.02 0 0 Z " fill="#EEEEEE" transform="translate(40,0)"/>
<path d="M0 0 C6.6 0 13.2 0 20 0 C19.01 0.33 18.02 0.66 17 1 C17 3.31 17 5.62 17 8 C15.68 8 14.36 8 13 8 C13 8.66 13 9.32 13 10 C15.97 10 18.94 10 22 10 C22 10.33 22 10.66 22 11 C17.91668235 11.02950374 13.8333928 11.04696535 9.75 11.0625 C8.04070312 11.07506836 8.04070312 11.07506836 6.296875 11.08789062 C-1.18896398 11.10915721 -8.55200457 10.75312038 -16 10 C-13.35261084 8.5393715 -12.10551666 8 -9 8 C-9 6.68 -9 5.36 -9 4 C-9.99 4 -10.98 4 -12 4 C-12 3.01 -12 2.02 -12 1 C-10.68 1 -9.36 1 -8 1 C-8 1.99 -8 2.98 -8 4 C-7.01 4 -6.02 4 -5 4 C-5 5.32 -5 6.64 -5 8 C-2.69 8 -0.38 8 2 8 C2 5.69 2 3.38 2 1 C1.34 0.67 0.68 0.34 0 0 Z " fill="#DFDFDF" transform="translate(98,96)"/>
<path d="M0 0 C0.99 0 1.98 0 3 0 C3 5.94 3 11.88 3 18 C1.68 18 0.36 18 -1 18 C-1 18.99 -1 19.98 -1 21 C-1.99 21 -2.98 21 -4 21 C-4 20.01 -4 19.02 -4 18 C-5.32 18 -6.64 18 -8 18 C-8 18.99 -8 19.98 -8 21 C-8.99 21 -9.98 21 -11 21 C-11 20.01 -11 19.02 -11 18 C-12.32 18 -13.64 18 -15 18 C-15 16.68 -15 15.36 -15 14 C-14.01 14 -13.02 14 -12 14 C-12 13.01 -12 12.02 -12 11 C-12.99 11 -13.98 11 -15 11 C-15 9.68 -15 8.36 -15 7 C-13.68 7 -12.36 7 -11 7 C-11 8.32 -11 9.64 -11 11 C-10.01 11 -9.02 11 -8 11 C-8 9.68 -8 8.36 -8 7 C-6.68 7 -5.36 7 -4 7 C-4 6.01 -4 5.02 -4 4 C-3.01 3.67 -2.02 3.34 -1 3 C-0.67 2.01 -0.34 1.02 0 0 Z " fill="#EEEEEE" transform="translate(212,0)"/>
<path d="M0 0 C3.03374276 0.61077564 5.2048142 1.55588672 7.75 3.3125 C8.67039062 3.92544922 8.67039062 3.92544922 9.609375 4.55078125 C11 6 11 6 11 10 C9.68 10 8.36 10 7 10 C7 11.32 7 12.64 7 14 C2.47509746 13.47154423 -0.1492218 11.72491323 -3.75 9 C-4.71421875 8.278125 -5.6784375 7.55625 -6.671875 6.8125 C-9 5 -9 5 -10 4 C-10.33 18.19 -10.66 32.38 -11 47 C-11.33 47 -11.66 47 -12 47 C-12 32.15 -12 17.3 -12 2 C-8.04 2.33 -4.08 2.66 0 3 C0 2.01 0 1.02 0 0 Z " fill="#CACACA" transform="translate(14,72)"/>
<path d="M0 0 C3.1875 -0.3125 3.1875 -0.3125 6 0 C6 0.99 6 1.98 6 3 C4.68 3 3.36 3 2 3 C2 4.32 2 5.64 2 7 C3.32 7 4.64 7 6 7 C6 7.99 6 8.98 6 10 C4.68 10 3.36 10 2 10 C2 11.32 2 12.64 2 14 C1.01 14 0.02 14 -1 14 C-1.33 15.32 -1.66 16.64 -2 18 C-2.99 18 -3.98 18 -5 18 C-5 18.99 -5 19.98 -5 21 C-3.68 21 -2.36 21 -1 21 C-1.33 22.32 -1.66 23.64 -2 25 C-2.99 25 -3.98 25 -5 25 C-5 25.99 -5 26.98 -5 28 C-6.65 28.33 -8.3 28.66 -10 29 C-9.95307854 18.81804253 -5.92145584 8.27465777 0 0 Z " fill="#E8E8E8" transform="translate(91,133)"/>
<path d="M0 0 C0.99 0 1.98 0 3 0 C3 21.12 3 42.24 3 64 C1.68 64 0.36 64 -1 64 C-1 63.01 -1 62.02 -1 61 C-2.98 61.66 -4.96 62.32 -7 63 C-6.57847656 62.16855469 -6.15695313 61.33710938 -5.72265625 60.48046875 C-5.17480469 59.39378906 -4.62695312 58.30710938 -4.0625 57.1875 C-3.51722656 56.10855469 -2.97195312 55.02960938 -2.41015625 53.91796875 C-0.58427856 50.13976755 0.12441064 47.40045408 0.11352539 43.25317383 C0.11344986 42.29240433 0.11337433 41.33163483 0.11329651 40.3417511 C0.10813522 39.30729355 0.10297394 38.272836 0.09765625 37.20703125 C0.0962413 36.14586594 0.09482635 35.08470062 0.09336853 33.99137878 C0.08776606 30.59839065 0.07521314 27.20546823 0.0625 23.8125 C0.05748532 21.51367283 0.05292236 19.21484462 0.04882812 16.91601562 C0.03779583 11.27732128 0.0210553 5.63866534 0 0 Z " fill="#F3F3F3" transform="translate(212,140)"/>
<path d="M0 0 C1.32 0 2.64 0 4 0 C4 1.32 4 2.64 4 4 C4.99 4 5.98 4 7 4 C7.33 4.66 7.66 5.32 8 6 C8.99 6.33 9.98 6.66 11 7 C11 6.01 11 5.02 11 4 C17.4 2.76923077 17.4 2.76923077 20.4375 3.9375 C20.953125 4.288125 21.46875 4.63875 22 5 C22 5.99 22 6.98 22 8 C22.99 8 23.98 8 25 8 C25 8.99 25 9.98 25 11 C24.01 11 23.02 11 22 11 C22 12.32 22 13.64 22 15 C12.96943668 13.73255252 5.82182001 9.43133413 -2 5 C-1.34 4.67 -0.68 4.34 0 4 C0 2.68 0 1.36 0 0 Z " fill="#F2F2F2" transform="translate(21,150)"/>
<path d="M0 0 C0.66 0 1.32 0 2 0 C2.05834353 3.22909006 2.09371115 6.45804338 2.125 9.6875 C2.14175781 10.59951172 2.15851563 11.51152344 2.17578125 12.45117188 C2.20936169 17.06848227 2.23556185 20.81932331 0 25 C-3.21043882 23.61811547 -5.04936365 22.07578097 -7.25 19.375 C-7.77078125 18.74335938 -8.2915625 18.11171875 -8.828125 17.4609375 C-9.21484375 16.97882813 -9.6015625 16.49671875 -10 16 C-9.67 15.34 -9.34 14.68 -9 14 C-8.34 14 -7.68 14 -7 14 C-7 13.01 -7 12.02 -7 11 C-5.68 11 -4.36 11 -3 11 C-3 9.68 -3 8.36 -3 7 C-4.32 7 -5.64 7 -7 7 C-7 6.01 -7 5.02 -7 4 C-4.69 4 -2.38 4 0 4 C0 2.68 0 1.36 0 0 Z " fill="#EAEAEA" transform="translate(100,186)"/>
<path d="M0 0 C0.33 0 0.66 0 1 0 C1.00142502 0.59166962 1.00285004 1.18333923 1.00431824 1.79293823 C1.02411407 7.99100188 1.07859788 14.18809374 1.15258789 20.38574219 C1.17568278 22.69393932 1.19014347 25.00224056 1.19555664 27.31054688 C1.2049082 30.64258063 1.24603669 33.97299593 1.29296875 37.3046875 C1.2890361 38.32488983 1.28510345 39.34509216 1.28105164 40.39620972 C1.4210922 47.38474013 2.82124972 54.82124972 8 60 C8.04063832 61.66617115 8.042721 63.33388095 8 65 C7.01 65 6.02 65 5 65 C5 64.01 5 63.02 5 62 C2.69 62 0.38 62 -2 62 C-2 53.75 -2 45.5 -2 37 C-1.34 37 -0.68 37 0 37 C0 24.79 0 12.58 0 0 Z " fill="#BEBEBE" transform="translate(2,142)"/>
<path d="M0 0 C0.33 0.66 0.66 1.32 1 2 C2.32 2 3.64 2 5 2 C5 3.32 5 4.64 5 6 C6.32 6 7.64 6 9 6 C9.33 6.99 9.66 7.98 10 9 C10.66 9.33 11.32 9.66 12 10 C12 10.99 12 11.98 12 13 C11.34 13 10.68 13 10 13 C10 27.52 10 42.04 10 57 C9.67 57 9.34 57 9 57 C8.67 41.49 8.34 25.98 8 10 C7.01 10 6.02 10 5 10 C5 10.99 5 11.98 5 13 C3.68 13 2.36 13 1 13 C1 14.32 1 15.64 1 17 C0.01 17 -0.98 17 -2 17 C-2 15.68 -2 14.36 -2 13 C-3.32 13 -4.64 13 -6 13 C-6 12.01 -6 11.02 -6 10 C-5.01 9.67 -4.02 9.34 -3 9 C-2.67 8.01 -2.34 7.02 -2 6 C-1.01 6 -0.02 6 1 6 C0.34 4.35 -0.32 2.7 -1 1 C-0.67 0.67 -0.34 0.34 0 0 Z " fill="#CECECE" transform="translate(203,62)"/>
<path d="M0 0 C2.31 0.33 4.62 0.66 7 1 C5.68 1.33 4.36 1.66 3 2 C3 2.66 3 3.32 3 4 C3.99 4 4.98 4 6 4 C6 5.32 6 6.64 6 8 C7.32 8 8.64 8 10 8 C10 8.99 10 9.98 10 11 C11.32 11 12.64 11 14 11 C14 10.01 14 9.02 14 8 C14.99 8 15.98 8 17 8 C17 8.99 17 9.98 17 11 C18.32 11 19.64 11 21 11 C21 12.32 21 13.64 21 15 C15.28274316 14.37194347 9.78133394 13.39060356 4.1875 12.0625 C3.43791016 11.89298828 2.68832031 11.72347656 1.91601562 11.54882812 C-1.53772678 10.73709063 -4.01947383 9.98701745 -7 8 C-6.34 8 -5.68 8 -5 8 C-5 6.68 -5 5.36 -5 4 C-3.68 4 -2.36 4 -1 4 C-0.67 2.68 -0.34 1.36 0 0 Z " fill="#E8E8E8" transform="translate(51,89)"/>
<path d="M0 0 C0.33 0 0.66 0 1 0 C1.33 10.89 1.66 21.78 2 33 C2.99 33 3.98 33 5 33 C5 33.99 5 34.98 5 36 C3.515 36.495 3.515 36.495 2 37 C2 37.99 2 38.98 2 40 C2.99 40.33 3.98 40.66 5 41 C4.67 44.3 4.34 47.6 4 51 C1.36 51 -1.28 51 -4 51 C-4.26579428 46.30430099 -4.0101926 42.71859507 -2.53125 38.25 C-0.39383109 30.69601638 -0.43336232 23.0972505 -0.3125 15.3125 C-0.27924597 13.82093512 -0.24474918 12.32939741 -0.20898438 10.83789062 C-0.12502084 7.2254602 -0.0577843 3.6129553 0 0 Z " fill="#D7D7D7" transform="translate(109,175)"/>
<path d="M0 0 C0 1.32 0 2.64 0 4 C-0.99 4 -1.98 4 -3 4 C-3 5.32 -3 6.64 -3 8 C-4.32 8 -5.64 8 -7 8 C-7 6.68 -7 5.36 -7 4 C-7.99 4 -8.98 4 -10 4 C-10 5.32 -10 6.64 -10 8 C-12.74895593 8.77521671 -15.18115069 9.12278847 -18.03417969 9.11352539 C-19.20494049 9.11341209 -19.20494049 9.11341209 -20.39935303 9.11329651 C-21.23178528 9.10813522 -22.06421753 9.10297394 -22.921875 9.09765625 C-23.78186096 9.0962413 -24.64184692 9.09482635 -25.52789307 9.09336853 C-28.26863109 9.08778097 -31.00928676 9.07523075 -33.75 9.0625 C-35.6106759 9.05748339 -37.47135309 9.05292077 -39.33203125 9.04882812 C-43.88805246 9.03781561 -48.44401228 9.02055951 -53 9 C-53 8.67 -53 8.34 -53 8 C-52.03964844 7.97421875 -51.07929687 7.9484375 -50.08984375 7.921875 C-41.31571875 7.59287255 -32.77712623 6.63094605 -24.125 5.125 C-23.187771 4.96354492 -22.25054199 4.80208984 -21.28491211 4.63574219 C-15.49325229 3.58687896 -9.86509939 2.21528908 -4.21044922 0.58154297 C-2 0 -2 0 0 0 Z " fill="#DCDCDC" transform="translate(168,225)"/>
<path d="M0 0 C-0.33 0.99 -0.66 1.98 -1 3 C-1.99 3 -2.98 3 -4 3 C-4 3.99 -4 4.98 -4 6 C-2.68 6 -1.36 6 0 6 C0 5.01 0 4.02 0 3 C0.99 3 1.98 3 3 3 C3 3.99 3 4.98 3 6 C4.32 6 5.64 6 7 6 C7 7.32 7 8.64 7 10 C3.65613602 11.01085428 0.6251882 11.11543463 -2.859375 11.09765625 C-3.97441406 11.09443359 -5.08945313 11.09121094 -6.23828125 11.08789062 C-7.39714844 11.07951172 -8.55601562 11.07113281 -9.75 11.0625 C-10.92433594 11.05798828 -12.09867188 11.05347656 -13.30859375 11.04882812 C-16.20578072 11.03705094 -19.10286454 11.02060326 -22 11 C-20.68 10.67 -19.36 10.34 -18 10 C-18 8.68 -18 7.36 -18 6 C-17.01 6 -16.02 6 -15 6 C-15 7.32 -15 8.64 -15 10 C-13.68 10 -12.36 10 -11 10 C-11 8.68 -11 7.36 -11 6 C-10.01 6 -9.02 6 -8 6 C-7.67 4.35 -7.34 2.7 -7 1 C-4 0 -4 0 0 0 Z " fill="#F3F3F3" transform="translate(176,223)"/>
<path d="M0 0 C0.65782471 0.14099121 1.31564941 0.28198242 1.9934082 0.42724609 C15.96523101 3.39439031 29.75623908 5.86253637 44 7 C44 7.33 44 7.66 44 8 C29.48 8 14.96 8 0 8 C1.32 7.67 2.64 7.34 4 7 C4 5.68 4 4.36 4 3 C2.68 3 1.36 3 0 3 C0 2.01 0 1.02 0 0 Z " fill="#F1F1F1" transform="translate(50,226)"/>
<path d="M0 0 C0.33 1.32 0.66 2.64 1 4 C2.32 4 3.64 4 5 4 C5 2.68 5 1.36 5 0 C5.99 0 6.98 0 8 0 C8 1.32 8 2.64 8 4 C9.32 4 10.64 4 12 4 C12 4.99 12 5.98 12 7 C10.68 7 9.36 7 8 7 C8 8.32 8 9.64 8 11 C7.01 11 6.02 11 5 11 C5 9.68 5 8.36 5 7 C3.68 7 2.36 7 1 7 C1 8.32 1 9.64 1 11 C1.99 11 2.98 11 4 11 C4 11.99 4 12.98 4 14 C3.01 14 2.02 14 1 14 C1 15.32 1 16.64 1 18 C2.32 18 3.64 18 5 18 C4.67 19.32 4.34 20.64 4 22 C3.01 22 2.02 22 1 22 C1 22.99 1 23.98 1 25 C2.32 25 3.64 25 5 25 C5 26.32 5 27.64 5 29 C3.68 29 2.36 29 1 29 C1 29.99 1 30.98 1 32 C0.01 32 -0.98 32 -2 32 C-2 31.34 -2 30.68 -2 30 C-1.34 30 -0.68 30 0 30 C0 20.1 0 10.2 0 0 Z " fill="#F9F9F9" transform="translate(110,136)"/>
<path d="M0 0 C0.33 0.99 0.66 1.98 1 3 C2.32 3 3.64 3 5 3 C5 9.27 5 15.54 5 22 C3.68 22 2.36 22 1 22 C1 22.99 1 23.98 1 25 C-0.32 25 -1.64 25 -3 25 C-3 24.01 -3 23.02 -3 22 C-2.01 21.67 -1.02 21.34 0 21 C0.33 20.01 0.66 19.02 1 18 C-0.32 18 -1.64 18 -3 18 C-3 16.68 -3 15.36 -3 14 C-1.68 14 -0.36 14 1 14 C1 13.01 1 12.02 1 11 C-0.32 11 -1.64 11 -3 11 C-3 9.68 -3 8.36 -3 7 C-1.68 7 -0.36 7 1 7 C1 6.01 1 5.02 1 4 C-0.65 4 -2.3 4 -4 4 C-2.68 2.68 -1.36 1.36 0 0 Z " fill="#F6F6F6" transform="translate(96,129)"/>
<path d="M0 0 C-0.99 1.485 -0.99 1.485 -2 3 C-3.32 3 -4.64 3 -6 3 C-6 4.32 -6 5.64 -6 7 C-4.68 7 -3.36 7 -2 7 C-1.67 7.99 -1.34 8.98 -1 10 C-2.74816858 10.50636607 -4.49862263 11.00484619 -6.25 11.5 C-7.22453125 11.7784375 -8.1990625 12.056875 -9.203125 12.34375 C-12 13 -12 13 -16 13 C-16 12.01 -16 11.02 -16 10 C-15.01 10 -14.02 10 -13 10 C-13 9.01 -13 8.02 -13 7 C-13.99 7 -14.98 7 -16 7 C-16 6.01 -16 5.02 -16 4 C-16.99 3.67 -17.98 3.34 -19 3 C-16.21019334 2.30404181 -13.41859396 1.61793326 -10.625 0.9375 C-9.43390625 0.63875977 -9.43390625 0.63875977 -8.21875 0.33398438 C-2.2265625 -1.11328125 -2.2265625 -1.11328125 0 0 Z " fill="#E9E9E9" transform="translate(167,158)"/>
<path d="M0 0 C0.66 0.33 1.32 0.66 2 1 C1.67 17.17 1.34 33.34 1 50 C0.34 50 -0.32 50 -1 50 C-1 50.66 -1 51.32 -1 52 C-0.01 52 0.98 52 2 52 C2 53.32 2 54.64 2 56 C1.01 56 0.02 56 -1 56 C-0.67 56.99 -0.34 57.98 0 59 C-2.31 59 -4.62 59 -7 59 C-6.01 58.505 -6.01 58.505 -5 58 C-5 57.34 -5 56.68 -5 56 C-6.32 56 -7.64 56 -9 56 C-9 54.68 -9 53.36 -9 52 C-7.68 52 -6.36 52 -5 52 C-5 51.34 -5 50.68 -5 50 C-5.66 49.67 -6.32 49.34 -7 49 C-4.69 49 -2.38 49 0 49 C0 32.83 0 16.66 0 0 Z " fill="#D1D1D1" transform="translate(109,116)"/>
<path d="M0 0 C0.99 0 1.98 0 3 0 C2.76576822 3.66963116 2.1677 4.84053067 -0.546875 7.421875 C-1.60390625 8.19015625 -2.6609375 8.9584375 -3.75 9.75 C-4.79671875 10.52859375 -5.8434375 11.3071875 -6.921875 12.109375 C-9.81968587 13.88924868 -11.64330362 14.74881864 -15 15 C-15.99 14.67 -16.98 14.34 -18 14 C-18 12.68 -18 11.36 -18 10 C-17.01 9.67 -16.02 9.34 -15 9 C-14.67 8.34 -14.34 7.68 -14 7 C-13.01 7 -12.02 7 -11 7 C-11 5.68 -11 4.36 -11 3 C-9.68 3 -8.36 3 -7 3 C-7 4.32 -7 5.64 -7 7 C-6.01 7 -5.02 7 -4 7 C-4 5.68 -4 4.36 -4 3 C-2.68 3 -1.36 3 0 3 C0 2.01 0 1.02 0 0 Z " fill="#F5F5F5" transform="translate(208,72)"/>
<path d="M0 0 C3.63 0 7.26 0 11 0 C10.67 1.32 10.34 2.64 10 4 C9.01 4 8.02 4 7 4 C7 4.99 7 5.98 7 7 C5.68 7 4.36 7 3 7 C3 8.32 3 9.64 3 11 C2.01 11 1.02 11 0 11 C0 11.99 0 12.98 0 14 C-1.32 14 -2.64 14 -4 14 C-4 13.01 -4 12.02 -4 11 C-3.01 11 -2.02 11 -1 11 C-1 9.68 -1 8.36 -1 7 C-1.99 7 -2.98 7 -4 7 C-4 6.01 -4 5.02 -4 4 C-3.01 3.67 -2.02 3.34 -1 3 C-0.67 2.01 -0.34 1.02 0 0 Z " fill="#F6F6F6" transform="translate(29,0)"/>
<path d="M0 0 C4.62 0.66 9.24 1.32 14 2 C11 4 11 4 8 4 C8 4.99 8 5.98 8 7 C6.68 7 5.36 7 4 7 C4.33 8.32 4.66 9.64 5 11 C0.62065881 10.48041715 -3.68803391 9.94324258 -8 9 C-5 7 -5 7 -3 7 C-3 6.01 -3 5.02 -3 4 C-2.01 3.67 -1.02 3.34 0 3 C0 2.01 0 1.02 0 0 Z " fill="#E0E0E0" transform="translate(64,161)"/>
<path d="M0 0 C0.99 0 1.98 0 3 0 C3 1.32 3 2.64 3 4 C3.99 4 4.98 4 6 4 C6 4.99 6 5.98 6 7 C5.01 7 4.02 7 3 7 C3 8.32 3 9.64 3 11 C2.01 11 1.02 11 0 11 C0 11.99 0 12.98 0 14 C-1.32 14 -2.64 14 -4 14 C-4 13.01 -4 12.02 -4 11 C-5.32 11 -6.64 11 -8 11 C-8 9.68 -8 8.36 -8 7 C-6.68 7 -5.36 7 -4 7 C-4 6.01 -4 5.02 -4 4 C-3.01 3.67 -2.02 3.34 -1 3 C-0.67 2.01 -0.34 1.02 0 0 Z " fill="#F7F7F7" transform="translate(126,154)"/>
<path d="M0 0 C0.99 0 1.98 0 3 0 C3 0.99 3 1.98 3 3 C4.32 3 5.64 3 7 3 C7 2.01 7 1.02 7 0 C7.99 0 8.98 0 10 0 C10.33 0.66 10.66 1.32 11 2 C11.99 2.33 12.98 2.66 14 3 C14 2.34 14 1.68 14 1 C16.3431213 1.25561323 18.67843403 1.59270772 21 2 C21.33 2.66 21.66 3.32 22 4 C21.67 4.99 21.34 5.98 21 7 C19.68 7 18.36 7 17 7 C17 8.32 17 9.64 17 11 C16.01 11 15.02 11 14 11 C14 9.68 14 8.36 14 7 C12.68 7.33 11.36 7.66 10 8 C10 6.68 10 5.36 10 4 C6.7 4 3.4 4 0 4 C0 2.68 0 1.36 0 0 Z " fill="#F2F2F2" transform="translate(29,86)"/>
<path d="M0 0 C12.87 0 25.74 0 39 0 C39.495 1.485 39.495 1.485 40 3 C40.66 3.33 41.32 3.66 42 4 C42 4.66 42 5.32 42 6 C41.26064209 5.88406494 40.52128418 5.76812988 39.75952148 5.64868164 C19.96431236 2.51935642 19.96431236 2.51935642 0 1 C0 0.67 0 0.34 0 0 Z " fill="#D2D2D2" transform="translate(112,0)"/>
<path d="M0 0 C0 0.99 0 1.98 0 3 C-0.99 3 -1.98 3 -3 3 C-3 4.32 -3 5.64 -3 7 C-2.01 7 -1.02 7 0 7 C0 7.99 0 8.98 0 10 C0.99 10 1.98 10 3 10 C3 9.01 3 8.02 3 7 C6.63 7 10.26 7 14 7 C14 7.66 14 8.32 14 9 C11.43923903 9.67404284 8.87673417 10.339414 6.3125 11 C5.59126953 11.19078125 4.87003906 11.3815625 4.12695312 11.578125 C0.33149039 12.54865428 -3.04615439 13.24955239 -7 13 C-7 12.01 -7 11.02 -7 10 C-6.01 10 -5.02 10 -4 10 C-4 7.69 -4 5.38 -4 3 C-6.31 3 -8.62 3 -11 3 C-11 2.67 -11 2.34 -11 2 C-9.5422647 1.664061 -8.08378894 1.33133376 -6.625 1 C-5.40683594 0.7215625 -5.40683594 0.7215625 -4.1640625 0.4375 C-2 0 -2 0 0 0 Z " fill="#DCDCDC" transform="translate(154,90)"/>
<path d="M0 0 C0.33 0 0.66 0 1 0 C1 14.85 1 29.7 1 45 C0.67 45 0.34 45 0 45 C0 34.11 0 23.22 0 12 C-1.32 12 -2.64 12 -4 12 C-4.33 11.34 -4.66 10.68 -5 10 C-5.99 10.66 -6.98 11.32 -8 12 C-6.51272258 7.09198451 -3.55364515 3.59508707 0 0 Z " fill="#DFDFDF" transform="translate(101,120)"/>
<path d="M0 0 C0.99 0 1.98 0 3 0 C3 1.32 3 2.64 3 4 C4.32 4 5.64 4 7 4 C6.67 5.32 6.34 6.64 6 8 C5.01 8 4.02 8 3 8 C3 8.99 3 9.98 3 11 C2.01 11 1.02 11 0 11 C-0.33 12.32 -0.66 13.64 -1 15 C-1.99 15 -2.98 15 -4 15 C-4 11.37 -4 7.74 -4 4 C-3.01 3.67 -2.02 3.34 -1 3 C-0.67 2.01 -0.34 1.02 0 0 Z " fill="#EEEEEE" transform="translate(4,7)"/>
<path d="M0 0 C3.465 1.98 3.465 1.98 7 4 C7 4.99 7 5.98 7 7 C5.68 7 4.36 7 3 7 C3 8.32 3 9.64 3 11 C2.01 11 1.02 11 0 11 C0 11.99 0 12.98 0 14 C-0.99 14 -1.98 14 -3 14 C-3 13.01 -3 12.02 -3 11 C-4.32 11 -5.64 11 -7 11 C-7 10.01 -7 9.02 -7 8 C-6.01 7.67 -5.02 7.34 -4 7 C-3.67 6.01 -3.34 5.02 -3 4 C-2.01 4 -1.02 4 0 4 C0 2.68 0 1.36 0 0 Z " fill="#F6F6F6" transform="translate(18,211)"/>
<path d="M0 0 C1.32 0 2.64 0 4 0 C4 1.32 4 2.64 4 4 C5.32 4.33 6.64 4.66 8 5 C5.25157976 8.50660513 1.34064602 9.66425151 -2.6875 11.1875 C-3.38939453 11.46013672 -4.09128906 11.73277344 -4.81445312 12.01367188 C-6.54024235 12.68285545 -8.26976959 13.34238475 -10 14 C-10 13.01 -10 12.02 -10 11 C-9.01 11 -8.02 11 -7 11 C-7 10.01 -7 9.02 -7 8 C-6.01 7.67 -5.02 7.34 -4 7 C-3.67 6.01 -3.34 5.02 -3 4 C-2.01 4 -1.02 4 0 4 C0 2.68 0 1.36 0 0 Z " fill="#E9E9E9" transform="translate(186,82)"/>
<path d="M0 0 C1.32 0 2.64 0 4 0 C4 1.32 4 2.64 4 4 C4.99 4 5.98 4 7 4 C7 4.99 7 5.98 7 7 C8.32 7 9.64 7 11 7 C11 8.32 11 9.64 11 11 C9.68 11 8.36 11 7 11 C7 11.99 7 12.98 7 14 C6.01 14.33 5.02 14.66 4 15 C0 9.25 0 9.25 0 7 C0.99 7 1.98 7 3 7 C3 6.01 3 5.02 3 4 C2.01 4 1.02 4 0 4 C0 2.68 0 1.36 0 0 Z " fill="#F6F6F6" transform="translate(86,186)"/>
<path d="M0 0 C10.89 0 21.78 0 33 0 C33 0.33 33 0.66 33 1 C32.0884314 1.06731323 32.0884314 1.06731323 31.15844727 1.13598633 C18.28226404 2.10985608 5.66354161 3.45029364 -7 6 C-7 5.01 -7 4.02 -7 3 C-4.69 3 -2.38 3 0 3 C0 2.01 0 1.02 0 0 Z " fill="#D4D4D4" transform="translate(64,0)"/>
<path d="M0 0 C1.32 0 2.64 0 4 0 C4 1.32 4 2.64 4 4 C4.99 4 5.98 4 7 4 C7.33 4.66 7.66 5.32 8 6 C8.99 6.33 9.98 6.66 11 7 C11 6.01 11 5.02 11 4 C12.98 3.67 14.96 3.34 17 3 C16.01 3.495 16.01 3.495 15 4 C15 5.32 15 6.64 15 8 C13.68 8 12.36 8 11 8 C11.33 8.99 11.66 9.98 12 11 C8.2397015 10.41892368 5.46964968 9.34800504 2.1875 7.4375 C1.39730469 6.98246094 0.60710938 6.52742187 -0.20703125 6.05859375 C-0.79871094 5.70925781 -1.39039062 5.35992187 -2 5 C-1.34 4.67 -0.68 4.34 0 4 C0 2.68 0 1.36 0 0 Z " fill="#EFEFEF" transform="translate(21,150)"/>
<path d="M0 0 C2.81965231 2.81965231 3.26535843 6.11319504 4.1875 9.875 C4.37763672 10.59558594 4.56777344 11.31617188 4.76367188 12.05859375 C5.67650054 15.71664514 6.31141805 18.42601501 5 22 C4.34 22.33 3.68 22.66 3 23 C3 20.69 3 18.38 3 16 C2.01 16 1.02 16 0 16 C0 14.68 0 13.36 0 12 C-0.99 12 -1.98 12 -3 12 C-3 11.01 -3 10.02 -3 9 C-2.01 8.67 -1.02 8.34 0 8 C0 6.02 0 4.04 0 2 C-0.99 1.67 -1.98 1.34 -3 1 C-2.01 0.67 -1.02 0.34 0 0 Z " fill="#E8E8E8" transform="translate(129,142)"/>
<path d="M0 0 C1.8871875 0.0309375 1.8871875 0.0309375 3.8125 0.0625 C3.8125 1.3825 3.8125 2.7025 3.8125 4.0625 C1.1725 4.0625 -1.4675 4.0625 -4.1875 4.0625 C-4.1875 5.3825 -4.1875 6.7025 -4.1875 8.0625 C-1.2175 8.5575 -1.2175 8.5575 1.8125 9.0625 C1.8125 9.3925 1.8125 9.7225 1.8125 10.0625 C-2.4775 10.0625 -6.7675 10.0625 -11.1875 10.0625 C-11.1875 9.4025 -11.1875 8.7425 -11.1875 8.0625 C-9.8675 8.0625 -8.5475 8.0625 -7.1875 8.0625 C-7.1875 5.7525 -7.1875 3.4425 -7.1875 1.0625 C-4.43671116 0.14557039 -2.82801087 -0.04636083 0 0 Z " fill="#F0F0F0" transform="translate(122.1875,95.9375)"/>
<path d="M0 0 C0 0.99 0 1.98 0 3 C0.99 3 1.98 3 3 3 C3 3.99 3 4.98 3 6 C2.01 6 1.02 6 0 6 C0 7.32 0 8.64 0 10 C-1.32 10 -2.64 10 -4 10 C-4 9.01 -4 8.02 -4 7 C-4.99 7 -5.98 7 -7 7 C-7 7.99 -7 8.98 -7 10 C-8.32 10 -9.64 10 -11 10 C-11 9.01 -11 8.02 -11 7 C-10.01 6.67 -9.02 6.34 -8 6 C-7.67 5.34 -7.34 4.68 -7 4 C-7.66 3.67 -8.32 3.34 -9 3 C-2.25 0 -2.25 0 0 0 Z " fill="#E8E8E8" transform="translate(183,219)"/>
<path d="M0 0 C1.95825873 -0.02694851 3.91662226 -0.04637218 5.875 -0.0625 C6.96554688 -0.07410156 8.05609375 -0.08570312 9.1796875 -0.09765625 C12 0 12 0 14 1 C14 3.31 14 5.62 14 8 C11.69 8 9.38 8 7 8 C7 6.68 7 5.36 7 4 C6.01 4 5.02 4 4 4 C4 3.01 4 2.02 4 1 C2.68 0.67 1.36 0.34 0 0 Z " fill="#EFEFEF" transform="translate(86,96)"/>
<path d="M0 0 C0.33 0.66 0.66 1.32 1 2 C1.99 2 2.98 2 4 2 C4 5.63 4 9.26 4 13 C2.68 13 1.36 13 0 13 C0 12.01 0 11.02 0 10 C-1.98 10.66 -3.96 11.32 -6 12 C-4.02 8.04 -2.04 4.08 0 0 Z " fill="#EAEAEA" transform="translate(211,191)"/>
<path d="M0 0 C1.32 0 2.64 0 4 0 C4 0.99 4 1.98 4 3 C4.99 3.33 5.98 3.66 7 4 C5.02 4.99 5.02 4.99 3 6 C3 5.34 3 4.68 3 4 C2.3503125 4.7425 2.3503125 4.7425 1.6875 5.5 C0 7 0 7 -3 7 C-3.33 8.32 -3.66 9.64 -4 11 C-4.99 11 -5.98 11 -7 11 C-7 9.68 -7 8.36 -7 7 C-6.01 7 -5.02 7 -4 7 C-4 6.01 -4 5.02 -4 4 C-4.99 4 -5.98 4 -7 4 C-6.67 3.01 -6.34 2.02 -6 1 C-5.01 1 -4.02 1 -3 1 C-3 1.66 -3 2.32 -3 3 C-2.01 3 -1.02 3 0 3 C0 2.01 0 1.02 0 0 Z " fill="#F9F9F9" transform="translate(204,140)"/>
<path d="M0 0 C2.375 -0.125 2.375 -0.125 5 0 C7 2 7 2 7.125 4.625 C7.08375 5.40875 7.0425 6.1925 7 7 C6.01 7 5.02 7 4 7 C3.67 8.32 3.34 9.64 3 11 C2.01 11 1.02 11 0 11 C0 11.99 0 12.98 0 14 C-1.32 14 -2.64 14 -4 14 C-4 12.68 -4 11.36 -4 10 C-2.68 10 -1.36 10 0 10 C0 9.01 0 8.02 0 7 C0.99 7 1.98 7 3 7 C3 5.68 3 4.36 3 3 C2.01 3 1.02 3 0 3 C0 2.01 0 1.02 0 0 Z " fill="#E8E8E8" transform="translate(11,208)"/>
<path d="M0 0 C2.97 0.33 5.94 0.66 9 1 C9 2.32 9 3.64 9 5 C8.01 5 7.02 5 6 5 C6 5.99 6 6.98 6 8 C4.02 8.33 2.04 8.66 0 9 C0.66 8.67 1.32 8.34 2 8 C2 7.01 2 6.02 2 5 C1.01 5 0.02 5 -1 5 C-0.67 3.35 -0.34 1.7 0 0 Z " fill="#F5F5F5" transform="translate(55,160)"/>
<path d="M0 0 C0 1.32 0 2.64 0 4 C-0.99 4 -1.98 4 -3 4 C-3 5.32 -3 6.64 -3 8 C-4.32 8 -5.64 8 -7 8 C-7 6.68 -7 5.36 -7 4 C-7.99 4 -8.98 4 -10 4 C-10 5.32 -10 6.64 -10 8 C-11.32 8 -12.64 8 -14 8 C-13.67 6.35 -13.34 4.7 -13 3 C-11.2092015 2.49689942 -9.41733089 1.99761372 -7.625 1.5 C-6.62726563 1.2215625 -5.62953125 0.943125 -4.6015625 0.65625 C-2 0 -2 0 0 0 Z " fill="#E3E3E3" transform="translate(168,225)"/>
<path d="M0 0 C0.33 0.66 0.66 1.32 1 2 C1.99 2 2.98 2 4 2 C4 2.99 4 3.98 4 5 C2.68 5 1.36 5 0 5 C0 5.99 0 6.98 0 8 C-0.99 8 -1.98 8 -3 8 C-3 7.01 -3 6.02 -3 5 C-4.32 5 -5.64 5 -7 5 C-7 5.99 -7 6.98 -7 8 C-9.86724686 7.42655063 -10.8614515 7.1385485 -13 5 C-8.71 3.35 -4.42 1.7 0 0 Z " fill="#EAEAEA" transform="translate(179,81)"/>
<path d="M0 0 C1.62463842 -0.05395478 3.24978541 -0.09277195 4.875 -0.125 C6.23238281 -0.15980469 6.23238281 -0.15980469 7.6171875 -0.1953125 C10 0 10 0 12 2 C10.08959948 2.8680908 8.17139263 3.71901783 6.25 4.5625 C5.18265625 5.03816406 4.1153125 5.51382813 3.015625 6.00390625 C0.01630163 6.9946154 -1.13421241 7.16161779 -4 6 C-4 5.01 -4 4.02 -4 3 C-3.01 3 -2.02 3 -1 3 C-0.67 2.01 -0.34 1.02 0 0 Z " fill="#E4E4E4" transform="translate(176,158)"/>
<path d="M0 0 C1.32 0 2.64 0 4 0 C4 1.32 4 2.64 4 4 C4.99 4 5.98 4 7 4 C6.67 5.32 6.34 6.64 6 8 C5.34 8 4.68 8 4 8 C4 8.99 4 9.98 4 11 C2.68 11 1.36 11 0 11 C0 7.37 0 3.74 0 0 Z " fill="#EDEDED" transform="translate(0,204)"/>
<path d="M0 0 C0.99 0 1.98 0 3 0 C3 0.99 3 1.98 3 3 C3.99 3 4.98 3 6 3 C6 3.99 6 4.98 6 6 C5.01 6 4.02 6 3 6 C3 7.32 3 8.64 3 10 C2.01 10 1.02 10 0 10 C-0.33 9.01 -0.66 8.02 -1 7 C-1.99 6.67 -2.98 6.34 -4 6 C-4 5.01 -4 4.02 -4 3 C-3.01 3 -2.02 3 -1 3 C-0.67 2.01 -0.34 1.02 0 0 Z " fill="#EBEBEB" transform="translate(194,219)"/>
<path d="M0 0 C0.99 0 1.98 0 3 0 C3 0.99 3 1.98 3 3 C3.99 3 4.98 3 6 3 C6 4.32 6 5.64 6 7 C-0.625 8.125 -0.625 8.125 -4 7 C-4 5.68 -4 4.36 -4 3 C-2.68 3 -1.36 3 0 3 C0 2.01 0 1.02 0 0 Z " fill="#F7F7F7" transform="translate(83,97)"/>
<path d="M0 0 C4.62 0 9.24 0 14 0 C14 0.99 14 1.98 14 3 C11.69 3 9.38 3 7 3 C7 3.99 7 4.98 7 6 C6.01 6 5.02 6 4 6 C4 5.34 4 4.68 4 4 C2.68 3.67 1.36 3.34 0 3 C0 2.01 0 1.02 0 0 Z " fill="#F3F3F3" transform="translate(50,0)"/>
<path d="M0 0 C1.32 0 2.64 0 4 0 C3.67 1.32 3.34 2.64 3 4 C2.01 4 1.02 4 0 4 C0 4.99 0 5.98 0 7 C-0.99 7 -1.98 7 -3 7 C-3 7.99 -3 8.98 -3 10 C-4.32 10 -5.64 10 -7 10 C-7 8.02 -7 6.04 -7 4 C-3.535 3.505 -3.535 3.505 0 3 C0 2.01 0 1.02 0 0 Z " fill="#F6F6F6" transform="translate(179,86)"/>
<path d="M0 0 C0.99 0 1.98 0 3 0 C3 0.99 3 1.98 3 3 C3.99 3 4.98 3 6 3 C6.33 2.01 6.66 1.02 7 0 C7.99 1.32 8.98 2.64 10 4 C9.01 4 8.02 4 7 4 C7 4.99 7 5.98 7 7 C7.99 7 8.98 7 10 7 C10 8.32 10 9.64 10 11 C9.01 11 8.02 11 7 11 C6.67 10.01 6.34 9.02 6 8 C5.01 7.67 4.02 7.34 3 7 C3 6.01 3 5.02 3 4 C2.01 4 1.02 4 0 4 C0 2.68 0 1.36 0 0 Z " fill="#FAFAFA" transform="translate(4,204)"/>
<path d="M0 0 C13.365 1.485 13.365 1.485 27 3 C27 3.33 27 3.66 27 4 C23.22918278 4.02899599 19.45839417 4.04679729 15.6875 4.0625 C14.0797168 4.07506836 14.0797168 4.07506836 12.43945312 4.08789062 C11.41142578 4.09111328 10.38339844 4.09433594 9.32421875 4.09765625 C8.37635498 4.10289307 7.42849121 4.10812988 6.4519043 4.11352539 C4 4 4 4 1 3 C0.67 2.01 0.34 1.02 0 0 Z " fill="#D9D9D9" transform="translate(67,230)"/>
<path d="M0 0 C0.66 0 1.32 0 2 0 C3.3792223 6.30338787 4.41117949 11.6496923 3 18 C2.01 18 1.02 18 0 18 C0 12.06 0 6.12 0 0 Z " fill="#EFEFEF" transform="translate(0,43)"/>
<path d="M0 0 C0.99 0 1.98 0 3 0 C3 1.32 3 2.64 3 4 C4.32 4 5.64 4 7 4 C7 4.99 7 5.98 7 7 C3.7 7 0.4 7 -3 7 C-3.33 5.68 -3.66 4.36 -4 3 C-2.68 3 -1.36 3 0 3 C0 2.01 0 1.02 0 0 Z " fill="#F7F7F7" transform="translate(72,165)"/>
<path d="M0 0 C0 2.64 0 5.28 0 8 C-2.31 8 -4.62 8 -7 8 C-6.67 5.69 -6.34 3.38 -6 1 C-1.125 0 -1.125 0 0 0 Z " fill="#FAFAFA" transform="translate(113,218)"/>
<path d="M0 0 C0.99 0 1.98 0 3 0 C3 2.64 3 5.28 3 8 C0.69 8 -1.62 8 -4 8 C-4 6.35 -4 4.7 -4 3 C-3.01 3 -2.02 3 -1 3 C-0.67 2.01 -0.34 1.02 0 0 Z " fill="#F4F4F4" transform="translate(212,226)"/>
<path d="M0 0 C1.32 0 2.64 0 4 0 C4 2.31 4 4.62 4 7 C1.69 7 -0.62 7 -3 7 C-3 6.01 -3 5.02 -3 4 C-4.32 3.67 -5.64 3.34 -7 3 C-5.02 3 -3.04 3 -1 3 C-0.67 2.01 -0.34 1.02 0 0 Z " fill="#F5F5F5" transform="translate(82,161)"/>
<path d="M0 0 C0.33 0.99 0.66 1.98 1 3 C-0.32 3 -1.64 3 -3 3 C-3 4.32 -3 5.64 -3 7 C-3.99 7 -4.98 7 -6 7 C-6 7.99 -6 8.98 -6 10 C-7.32 10 -8.64 10 -10 10 C-10 9.01 -10 8.02 -10 7 C-10.99 6.67 -11.98 6.34 -13 6 C-8.71 4.02 -4.42 2.04 0 0 Z " fill="#E8E8E8" transform="translate(189,147)"/>
<path d="M0 0 C0.66 0 1.32 0 2 0 C2 3.3 2 6.6 2 10 C0.68 10 -0.64 10 -2 10 C-2.33 9.34 -2.66 8.68 -3 8 C-3.99 8.66 -4.98 9.32 -6 10 C-4.63312778 6.01328937 -2.84804907 3.11505367 0 0 Z " fill="#EAEAEA" transform="translate(99,122)"/>
<path d="M0 0 C0.99 0 1.98 0 3 0 C3 0.99 3 1.98 3 3 C4.32 3 5.64 3 7 3 C7 2.01 7 1.02 7 0 C7.99 0 8.98 0 10 0 C10.33 0.66 10.66 1.32 11 2 C11.99 2.33 12.98 2.66 14 3 C14 4.32 14 5.64 14 7 C12.68 7.33 11.36 7.66 10 8 C10 6.68 10 5.36 10 4 C6.7 4 3.4 4 0 4 C0 2.68 0 1.36 0 0 Z " fill="#F9F9F9" transform="translate(29,86)"/>
<path d="M0 0 C1.32 0 2.64 0 4 0 C4 0.99 4 1.98 4 3 C4.99 3 5.98 3 7 3 C7 2.01 7 1.02 7 0 C8.32 0 9.64 0 11 0 C11 1.32 11 2.64 11 4 C10.01 4.33 9.02 4.66 8 5 C7.67 5.66 7.34 6.32 7 7 C6.01 7 5.02 7 4 7 C4 6.01 4 5.02 4 4 C2.68 4 1.36 4 0 4 C0 2.68 0 1.36 0 0 Z " fill="#E9E9E9" transform="translate(204,222)"/>
<path d="M0 0 C0 0.99 0 1.98 0 3 C-0.99 3 -1.98 3 -3 3 C-3 4.32 -3 5.64 -3 7 C-4.32 7 -5.64 7 -7 7 C-7 7.99 -7 8.98 -7 10 C-7.99 10 -8.98 10 -10 10 C-10.33 9.01 -10.66 8.02 -11 7 C-9.73742767 5.82439821 -8.46462916 4.65977135 -7.1875 3.5 C-6.12595703 2.52546875 -6.12595703 2.52546875 -5.04296875 1.53125 C-3 0 -3 0 0 0 Z " fill="#F9F9F9" transform="translate(211,201)"/>
<path d="M0 0 C5.94 0.33 11.88 0.66 18 1 C18 1.33 18 1.66 18 2 C14.7 2.33 11.4 2.66 8 3 C8 3.99 8 4.98 8 6 C6.68 6 5.36 6 4 6 C4 5.01 4 4.02 4 3 C2.68 3 1.36 3 0 3 C0 2.01 0 1.02 0 0 Z " fill="#DADADA" transform="translate(75,94)"/>
<path d="M0 0 C0 0.99 0 1.98 0 3 C-0.99 3 -1.98 3 -3 3 C-3 3.99 -3 4.98 -3 6 C-4.32 6 -5.64 6 -7 6 C-7 5.01 -7 4.02 -7 3 C-9.64 2.67 -12.28 2.34 -15 2 C-15 1.67 -15 1.34 -15 1 C-9.92928099 0.28832014 -5.11791642 -0.10662326 0 0 Z " fill="#DCDCDC" transform="translate(136,94)"/>
<path d="M0 0 C4.95 0.33 9.9 0.66 15 1 C15 1.99 15 2.98 15 4 C14.01 4 13.02 4 12 4 C11.67 4.99 11.34 5.98 11 7 C7.37 5.02 3.74 3.04 0 1 C0 0.67 0 0.34 0 0 Z " fill="#E4E4E4" transform="translate(178,14)"/>
<path d="M0 0 C0.33 0 0.66 0 1 0 C1 3.3 1 6.6 1 10 C0.01 10 -0.98 10 -2 10 C-2 9.34 -2 8.68 -2 8 C-3.32 8 -4.64 8 -6 8 C-6 6.68 -6 5.36 -6 4 C-4.68 4 -3.36 4 -2 4 C-1.34 2.68 -0.68 1.36 0 0 Z " fill="#F6F6F6" transform="translate(167,157)"/>
<path d="M0 0 C0.99 0 1.98 0 3 0 C3 0.99 3 1.98 3 3 C4.32 3 5.64 3 7 3 C7 4.32 7 5.64 7 7 C5.68 7 4.36 7 3 7 C2.67 7.99 2.34 8.98 2 10 C-1.07692308 5.69230769 -1.07692308 5.69230769 -0.6875 2.1875 C-0.460625 1.465625 -0.23375 0.74375 0 0 Z " fill="#E8E8E8" transform="translate(201,25)"/>
<path d="M0 0 C4.95 0.99 4.95 0.99 10 2 C8.515 4.475 8.515 4.475 7 7 C8.32 7.33 9.64 7.66 11 8 C7.37 8 3.74 8 0 8 C1.32 7.67 2.64 7.34 4 7 C4 5.68 4 4.36 4 3 C2.68 3 1.36 3 0 3 C0 2.01 0 1.02 0 0 Z " fill="#E5E5E5" transform="translate(50,226)"/>
<path d="M0 0 C0.66 0 1.32 0 2 0 C2 0.99 2 1.98 2 3 C2.99 3 3.98 3 5 3 C5 2.01 5 1.02 5 0 C6.32 0 7.64 0 9 0 C8.67 1.32 8.34 2.64 8 4 C7.01 4 6.02 4 5 4 C5 4.99 5 5.98 5 7 C4.01 7 3.02 7 2 7 C1.67 7.66 1.34 8.32 1 9 C0.67 6.03 0.34 3.06 0 0 Z " fill="#F9F9F9" transform="translate(81,172)"/>
<path d="M0 0 C3.79588866 0.54226981 5.47211993 2.20127563 8 5 C7.67 5.66 7.34 6.32 7 7 C6.01 7 5.02 7 4 7 C4 5.68 4 4.36 4 3 C3.01 3.495 3.01 3.495 2 4 C1.67 4.99 1.34 5.98 1 7 C-0.32 7 -1.64 7 -3 7 C-3 5.68 -3 4.36 -3 3 C-2.01 3 -1.02 3 0 3 C0 2.01 0 1.02 0 0 Z " fill="#F7F7F7" transform="translate(14,72)"/>
<path d="M0 0 C1.32 0 2.64 0 4 0 C4.25 2.8125 4.25 2.8125 4 6 C2 7.875 2 7.875 0 9 C-1.5 7.6875 -1.5 7.6875 -3 6 C-3 5.01 -3 4.02 -3 3 C-2.01 3 -1.02 3 0 3 C0 2.01 0 1.02 0 0 Z " fill="#E7E7E7" transform="translate(118,201)"/>
<path d="M0 0 C1.32 0 2.64 0 4 0 C4 0.99 4 1.98 4 3 C4.99 3 5.98 3 7 3 C7 4.32 7 5.64 7 7 C6.01 7 5.02 7 4 7 C4 7.66 4 8.32 4 9 C1.36 9 -1.28 9 -4 9 C-1.35261084 7.5393715 -0.10551666 7 3 7 C3 5.68 3 4.36 3 3 C2.01 3 1.02 3 0 3 C0 2.01 0 1.02 0 0 Z " fill="#DADADA" transform="translate(86,97)"/>
<path d="M0 0 C1.89213369 2.38573379 3.02391783 4.07175348 4 7 C3.5625 9.1875 3.5625 9.1875 3 11 C2.01 11 1.02 11 0 11 C-0.33 9.68 -0.66 8.36 -1 7 C-1.99 7 -2.98 7 -4 7 C-4 6.01 -4 5.02 -4 4 C-3.01 4 -2.02 4 -1 4 C-0.67 2.68 -0.34 1.36 0 0 Z " fill="#E6E6E6" transform="translate(4,57)"/>
<path d="M0 0 C1.32 0 2.64 0 4 0 C3.34 2.97 2.68 5.94 2 9 C1.34 9 0.68 9 0 9 C0 8.34 0 7.68 0 7 C-0.99 7 -1.98 7 -3 7 C-3 5.68 -3 4.36 -3 3 C-2.01 3 -1.02 3 0 3 C0 2.01 0 1.02 0 0 Z " fill="#E2E2E2" transform="translate(129,183)"/>
<path d="M0 0 C0.99 0 1.98 0 3 0 C3 0.99 3 1.98 3 3 C4.32 3 5.64 3 7 3 C7 2.01 7 1.02 7 0 C7.99 0 8.98 0 10 0 C9.67 1.32 9.34 2.64 9 4 C8.34 4 7.68 4 7 4 C7 4.99 7 5.98 7 7 C5.68 7 4.36 7 3 7 C3 6.01 3 5.02 3 4 C2.01 4 1.02 4 0 4 C0 2.68 0 1.36 0 0 Z " fill="#FCFCFC" transform="translate(115,172)"/>
<path d="M0 0 C0.66 0.33 1.32 0.66 2 1 C2 1.99 2 2.98 2 4 C1.01 4 0.02 4 -1 4 C-1.33 5.32 -1.66 6.64 -2 8 C-2.99 8 -3.98 8 -5 8 C-5 8.99 -5 9.98 -5 11 C-5.99 11 -6.98 11 -8 11 C-6.52670958 5.99081256 -3.72484762 3.48192278 0 0 Z " fill="#F9F9F9" transform="translate(202,64)"/>
<path d="M0 0 C1.32 0 2.64 0 4 0 C4 0.99 4 1.98 4 3 C4.99 3 5.98 3 7 3 C7 4.32 7 5.64 7 7 C4.625 7.125 4.625 7.125 2 7 C0 5 0 5 -0.125 2.375 C-0.08375 1.59125 -0.0425 0.8075 0 0 Z " fill="#F1F1F1" transform="translate(93,201)"/>
<path d="M0 0 C1.32 0 2.64 0 4 0 C4 0.99 4 1.98 4 3 C4.99 3 5.98 3 7 3 C7 4.32 7 5.64 7 7 C6.01 7 5.02 7 4 7 C4 6.01 4 5.02 4 4 C2.68 4 1.36 4 0 4 C-0.33 5.32 -0.66 6.64 -1 8 C-1.66 6.68 -2.32 5.36 -3 4 C-2.01 3.67 -1.02 3.34 0 3 C0 2.01 0 1.02 0 0 Z " fill="#E4E4E4" transform="translate(93,197)"/>
<path d="M0 0 C1.32 0 2.64 0 4 0 C4 0.99 4 1.98 4 3 C4.99 3 5.98 3 7 3 C7 2.01 7 1.02 7 0 C8.32 0 9.64 0 11 0 C11 0.66 11 1.32 11 2 C10.01 2.66 9.02 3.32 8 4 C7.67 4.99 7.34 5.98 7 7 C6.01 7 5.02 7 4 7 C4 6.01 4 5.02 4 4 C2.68 3.67 1.36 3.34 0 3 C0 2.01 0 1.02 0 0 Z " fill="#FCFCFC" transform="translate(93,172)"/>
<path d="M0 0 C0.99 0.33 1.98 0.66 3 1 C3.73046875 2.84765625 3.73046875 2.84765625 4.1875 5.0625 C4.34605469 5.79597656 4.50460938 6.52945313 4.66796875 7.28515625 C4.83232422 8.13400391 4.83232422 8.13400391 5 9 C4.34 9 3.68 9 3 9 C3 9.66 3 10.32 3 11 C2.01 11 1.02 11 0 11 C0 7.37 0 3.74 0 0 Z " fill="#EFEFEF" transform="translate(0,118)"/>
<path d="M0 0 C2.31 0 4.62 0 7 0 C7 2.31 7 4.62 7 7 C6.01 7 5.02 7 4 7 C4 6.01 4 5.02 4 4 C2.68 4 1.36 4 0 4 C0 2.68 0 1.36 0 0 Z " fill="#F6F6F6" transform="translate(143,93)"/>
<path d="M0 0 C0.99 0 1.98 0 3 0 C3 0.99 3 1.98 3 3 C4.32 3.33 5.64 3.66 7 4 C7 4.99 7 5.98 7 7 C5.68 6.67 4.36 6.34 3 6 C3 5.34 3 4.68 3 4 C2.01 4 1.02 4 0 4 C0 4.99 0 5.98 0 7 C-1.32 7 -2.64 7 -4 7 C-4 6.01 -4 5.02 -4 4 C-3.01 3.67 -2.02 3.34 -1 3 C-0.67 2.01 -0.34 1.02 0 0 Z " fill="#E6E6E6" transform="translate(47,0)"/>
<path d="M0 0 C1.32 0 2.64 0 4 0 C4 0.99 4 1.98 4 3 C4.99 3 5.98 3 7 3 C7 3.99 7 4.98 7 6 C6.01 6 5.02 6 4 6 C4 6.99 4 7.98 4 9 C2.68 9 1.36 9 0 9 C0 8.01 0 7.02 0 6 C0.99 6 1.98 6 3 6 C3 5.01 3 4.02 3 3 C2.01 3 1.02 3 0 3 C0 2.01 0 1.02 0 0 Z " fill="#FBFBFB" transform="translate(147,162)"/>
<path d="M0 0 C1.32 0 2.64 0 4 0 C3.67 1.32 3.34 2.64 3 4 C2.01 4 1.02 4 0 4 C0 4.99 0 5.98 0 7 C-1.65 7.33 -3.3 7.66 -5 8 C-5 6.02 -5 4.04 -5 2 C-2.525 2.495 -2.525 2.495 0 3 C0 2.01 0 1.02 0 0 Z " fill="#E4E4E4" transform="translate(86,154)"/>
<path d="M0 0 C0.66 0 1.32 0 2 0 C2.33 0.99 2.66 1.98 3 3 C1.54634731 4.17249353 0.08692581 5.33783816 -1.375 6.5 C-2.18710938 7.1496875 -2.99921875 7.799375 -3.8359375 8.46875 C-6 10 -6 10 -8 10 C-8 9.01 -8 8.02 -8 7 C-7.01 6.67 -6.02 6.34 -5 6 C-4.67 5.01 -4.34 4.02 -4 3 C-3.01 3 -2.02 3 -1 3 C-0.67 2.01 -0.34 1.02 0 0 Z " fill="#E0E0E0" transform="translate(205,144)"/>
<path d="M0 0 C0.99 0 1.98 0 3 0 C3 1.32 3 2.64 3 4 C5.97 4.495 5.97 4.495 9 5 C9 5.33 9 5.66 9 6 C4.71 6 0.42 6 -4 6 C-4 5.34 -4 4.68 -4 4 C-2.68 4 -1.36 4 0 4 C0 2.68 0 1.36 0 0 Z " fill="#F9F9F9" transform="translate(115,100)"/>
<path d="M0 0 C1.32 0 2.64 0 4 0 C4 0.99 4 1.98 4 3 C4.99 3 5.98 3 7 3 C7 4.65 7 6.3 7 8 C4.69 8 2.38 8 0 8 C0.99 7.67 1.98 7.34 3 7 C3 5.68 3 4.36 3 3 C2.01 3 1.02 3 0 3 C0 2.01 0 1.02 0 0 Z " fill="#F9F9F9" transform="translate(190,226)"/>
<path d="M0 0 C1.32 0 2.64 0 4 0 C4 0.99 4 1.98 4 3 C4.99 3 5.98 3 7 3 C7 4.65 7 6.3 7 8 C4.69 8 2.38 8 0 8 C0.99 7.67 1.98 7.34 3 7 C3 5.68 3 4.36 3 3 C2.01 3 1.02 3 0 3 C0 2.01 0 1.02 0 0 Z " fill="#F9F9F9" transform="translate(18,226)"/>
<path d="M0 0 C0.99 0 1.98 0 3 0 C3 0.99 3 1.98 3 3 C3.99 3.33 4.98 3.66 6 4 C6 4.99 6 5.98 6 7 C4.25 7.6875 4.25 7.6875 2 8 C-0.25 6.5625 -0.25 6.5625 -2 5 C-1.34 3.35 -0.68 1.7 0 0 Z " fill="#E8E8E8" transform="translate(194,18)"/>
<path d="M0 0 C0.99 0.33 1.98 0.66 3 1 C2.44225728 4.23490776 1.62788492 5.97855006 -1 8 C-1.99 8 -2.98 8 -4 8 C-4 7.01 -4 6.02 -4 5 C-4.66 4.67 -5.32 4.34 -6 4 C-4.35 4 -2.7 4 -1 4 C-0.67 2.68 -0.34 1.36 0 0 Z " fill="#F1F1F1" transform="translate(115,207)"/>
<path d="M0 0 C0 0.99 0 1.98 0 3 C-1.32 3 -2.64 3 -4 3 C-4 3.99 -4 4.98 -4 6 C-4.99 6 -5.98 6 -7 6 C-7 5.01 -7 4.02 -7 3 C-8.32 2.67 -9.64 2.34 -11 2 C-11 1.67 -11 1.34 -11 1 C-7.26513121 0.4254048 -3.78706732 0 0 0 Z " fill="#D9D9D9" transform="translate(147,162)"/>
<path d="M0 0 C0.66 0.33 1.32 0.66 2 1 C1.67 1.66 1.34 2.32 1 3 C1.99 3 2.98 3 4 3 C4 4.32 4 5.64 4 7 C3.01 7 2.02 7 1 7 C0.67 7.99 0.34 8.98 0 10 C-0.99 10 -1.98 10 -3 10 C-3 9.01 -3 8.02 -3 7 C-2.01 7 -1.02 7 0 7 C0 5.68 0 4.36 0 3 C-0.66 2.67 -1.32 2.34 -2 2 C-1.34 1.34 -0.68 0.68 0 0 Z " fill="#E6E6E6" transform="translate(193,72)"/>
<path d="M0 0 C2.64 0.99 5.28 1.98 8 3 C7.01 3.495 7.01 3.495 6 4 C6 4.99 6 5.98 6 7 C4.68 7 3.36 7 2 7 C2 6.01 2 5.02 2 4 C1.01 4 0.02 4 -1 4 C-0.67 2.68 -0.34 1.36 0 0 Z " fill="#E5E5E5" transform="translate(30,218)"/>
<path d="M0 0 C1.32 0 2.64 0 4 0 C4 1.98 4 3.96 4 6 C1.69 6 -0.62 6 -3 6 C-3 5.01 -3 4.02 -3 3 C-2.01 3 -1.02 3 0 3 C0 2.01 0 1.02 0 0 Z " fill="#F5F5F5" transform="translate(136,94)"/>
<path d="M0 0 C1.98 0 3.96 0 6 0 C6 0.99 6 1.98 6 3 C5.01 3 4.02 3 3 3 C3 4.32 3 5.64 3 7 C1.68 6.67 0.36 6.34 -1 6 C-0.67 4.02 -0.34 2.04 0 0 Z " fill="#F3F3F3" transform="translate(40,158)"/>
<path d="M0 0 C0.99 0 1.98 0 3 0 C3 0.99 3 1.98 3 3 C4.32 3 5.64 3 7 3 C7 4.32 7 5.64 7 7 C2.25 6.25 2.25 6.25 0 4 C0 2.68 0 1.36 0 0 Z " fill="#F7F7F7" transform="translate(4,140)"/>
<path d="M0 0 C0.99 0 1.98 0 3 0 C3 1.32 3 2.64 3 4 C2.01 4 1.02 4 0 4 C0.33 5.32 0.66 6.64 1 8 C-0.65 7.67 -2.3 7.34 -4 7 C-4 5.68 -4 4.36 -4 3 C-3.01 2.67 -2.02 2.34 -1 2 C-0.67 1.34 -0.34 0.68 0 0 Z " fill="#FAFAFA" transform="translate(194,79)"/>
<path d="M0 0 C0.66 1.32 1.32 2.64 2 4 C2.99 4 3.98 4 5 4 C5 3.01 5 2.02 5 1 C5.99 1.33 6.98 1.66 8 2 C7.01 3.485 7.01 3.485 6 5 C3.375 5.1875 3.375 5.1875 1 5 C0.67 7.31 0.34 9.62 0 12 C-0.33 12 -0.66 12 -1 12 C-1.14285714 3.42857143 -1.14285714 3.42857143 0 0 Z " fill="#CCCCCC" transform="translate(106,214)"/>
<path d="M0 0 C0.7425 0.0825 1.485 0.165 2.25 0.25 C2.25 1.24 2.25 2.23 2.25 3.25 C0.6 3.25 -1.05 3.25 -2.75 3.25 C-2.42 4.57 -2.09 5.89 -1.75 7.25 C-2.74 7.25 -3.73 7.25 -4.75 7.25 C-4.75 6.59 -4.75 5.93 -4.75 5.25 C-5.41 4.92 -6.07 4.59 -6.75 4.25 C-3.42692308 0.31153846 -3.42692308 0.31153846 0 0 Z " fill="#E2E2E2" transform="translate(205.75,135.75)"/>
<path d="M0 0 C1.95825873 -0.02694851 3.91662226 -0.04637218 5.875 -0.0625 C6.96554688 -0.07410156 8.05609375 -0.08570312 9.1796875 -0.09765625 C12 0 12 0 14 1 C14 1.99 14 2.98 14 4 C13.01 4 12.02 4 11 4 C11 3.01 11 2.02 11 1 C9.68 1 8.36 1 7 1 C7 1.99 7 2.98 7 4 C6.01 4 5.02 4 4 4 C4 3.01 4 2.02 4 1 C2.68 0.67 1.36 0.34 0 0 Z " fill="#FDFDFD" transform="translate(86,96)"/>
<path d="M0 0 C0.99 0 1.98 0 3 0 C3.33 1.65 3.66 3.3 4 5 C2.02 5.99 0.04 6.98 -2 8 C-2.33 6.68 -2.66 5.36 -3 4 C-2.01 4 -1.02 4 0 4 C0 2.68 0 1.36 0 0 Z " fill="#E7E7E7" transform="translate(197,79)"/>
<path d="M0 0 C0.99 0 1.98 0 3 0 C3 0.99 3 1.98 3 3 C2.34 3 1.68 3 1 3 C1 4.32 1 5.64 1 7 C1.66 7 2.32 7 3 7 C3 8.32 3 9.64 3 11 C2.01 11 1.02 11 0 11 C-0.33 11.99 -0.66 12.98 -1 14 C-0.67 9.38 -0.34 4.76 0 0 Z " fill="#F9F9F9" transform="translate(208,43)"/>
<path d="M0 0 C2.97 0 5.94 0 9 0 C9.33 1.32 9.66 2.64 10 4 C7.69 4 5.38 4 3 4 C3 3.01 3 2.02 3 1 C2.01 0.67 1.02 0.34 0 0 Z " fill="#E7E7E7" transform="translate(148,161)"/>
<path d="M0 0 C-0.99 1.485 -0.99 1.485 -2 3 C-5.625 3.1875 -5.625 3.1875 -9 3 C-9.33 3.66 -9.66 4.32 -10 5 C-10 4.34 -10 3.68 -10 3 C-11.32 2.67 -12.64 2.34 -14 2 C-12.04396149 1.47061343 -10.08507711 0.95173199 -8.125 0.4375 C-7.03445312 0.14746094 -5.94390625 -0.14257812 -4.8203125 -0.44140625 C-2 -1 -2 -1 0 0 Z " fill="#D6D6D6" transform="translate(167,158)"/>
<path d="M0 0 C3.16115776 1.36983503 3.9927092 1.9890638 6 5 C5.34 5 4.68 5 4 5 C4 5.99 4 6.98 4 8 C3.01 8 2.02 8 1 8 C0.67 5.36 0.34 2.72 0 0 Z " fill="#E3E3E3" transform="translate(110,117)"/>
<path d="M0 0 C3.3 0 6.6 0 10 0 C7.77174356 2.22825644 6.34238372 2.69239369 3.375 3.625 C2.55773437 3.88539062 1.74046875 4.14578125 0.8984375 4.4140625 C0.27195312 4.60742188 -0.35453125 4.80078125 -1 5 C-0.67 3.35 -0.34 1.7 0 0 Z " fill="#E2E2E2" transform="translate(29,11)"/>
<path d="M0 0 C2.31 0 4.62 0 7 0 C7 1.32 7 2.64 7 4 C4.69 4 2.38 4 0 4 C0 2.68 0 1.36 0 0 Z " fill="#F2F2F2" transform="translate(47,229)"/>
<path d="M0 0 C0.66 0.33 1.32 0.66 2 1 C2 2.32 2 3.64 2 5 C1.01 5 0.02 5 -1 5 C-1 5.99 -1 6.98 -1 8 C-2.32 8 -3.64 8 -5 8 C-5 7.01 -5 6.02 -5 5 C-4.01 4.67 -3.02 4.34 -2 4 C-1.67 3.34 -1.34 2.68 -1 2 C-1.66 1.67 -2.32 1.34 -3 1 C-2.01 0.67 -1.02 0.34 0 0 Z " fill="#E1E1E1" transform="translate(177,221)"/>
<path d="M0 0 C0.66 0 1.32 0 2 0 C2 3.3 2 6.6 2 10 C0.68 10 -0.64 10 -2 10 C-1.34 6.7 -0.68 3.4 0 0 Z " fill="#E9E9E9" transform="translate(213,115)"/>
<path d="M0 0 C1.32 0 2.64 0 4 0 C4.66 2.31 5.32 4.62 6 7 C3.36 6.34 0.72 5.68 -2 5 C-1.34 4.67 -0.68 4.34 0 4 C0 2.68 0 1.36 0 0 Z " fill="#DEDEDE" transform="translate(46,93)"/>
<path d="M0 0 C2.64 0.33 5.28 0.66 8 1 C8.33 3.31 8.66 5.62 9 8 C7.68388323 7.04663979 6.37221039 6.08714226 5.0625 5.125 C4.33160156 4.59132813 3.60070312 4.05765625 2.84765625 3.5078125 C1 2 1 2 0 0 Z " fill="#E1E1E1" transform="translate(3,74)"/>
<path d="M0 0 C3.3 0.99 6.6 1.98 10 3 C9.01 3.33 8.02 3.66 7 4 C7 4.99 7 5.98 7 7 C6.01 7 5.02 7 4 7 C4 5.68 4 4.36 4 3 C2.68 2.67 1.36 2.34 0 2 C0 1.34 0 0.68 0 0 Z " fill="#DEDEDE" transform="translate(39,222)"/>
<path d="M0 0 C0.99 0 1.98 0 3 0 C2.67 1.32 2.34 2.64 2 4 C1.34 4 0.68 4 0 4 C0 4.99 0 5.98 0 7 C-1.32 7 -2.64 7 -4 7 C-4 5.68 -4 4.36 -4 3 C-2.68 3 -1.36 3 0 3 C0 2.01 0 1.02 0 0 Z " fill="#FBFBFB" transform="translate(129,172)"/>
<path d="M0 0 C0.99 0 1.98 0 3 0 C3 0.99 3 1.98 3 3 C3.66 3.33 4.32 3.66 5 4 C3.35 4 1.7 4 0 4 C0 4.99 0 5.98 0 7 C-1.32 7 -2.64 7 -4 7 C-4 6.01 -4 5.02 -4 4 C-3.01 3.67 -2.02 3.34 -1 3 C-0.67 2.01 -0.34 1.02 0 0 Z " fill="#FAFAFA" transform="translate(126,147)"/>
<path d="M0 0 C1.32 0 2.64 0 4 0 C4 1.32 4 2.64 4 4 C4.99 4.33 5.98 4.66 7 5 C3.7 5 0.4 5 -3 5 C-2.01 4.67 -1.02 4.34 0 4 C0 2.68 0 1.36 0 0 Z " fill="#EBEBEB" transform="translate(39,229)"/>
<path d="M0 0 C1.66611905 -0.042721 3.33382885 -0.04063832 5 0 C6 1 6 1 6.0625 3.5625 C6.041875 4.366875 6.02125 5.17125 6 6 C5.01 6 4.02 6 3 6 C3 5.01 3 4.02 3 3 C2.01 3 1.02 3 0 3 C0 2.01 0 1.02 0 0 Z " fill="#E6E6E6" transform="translate(4,201)"/>
<path d="M0 0 C0.66 0.33 1.32 0.66 2 1 C1.01 2.98 0.02 4.96 -1 7 C-2.65 7 -4.3 7 -6 7 C-6 6.01 -6 5.02 -6 4 C-4.68 4 -3.36 4 -2 4 C-2 3.01 -2 2.02 -2 1 C-1.34 0.67 -0.68 0.34 0 0 Z " fill="#E3E3E3" transform="translate(128,193)"/>
<path d="M0 0 C0.99 0 1.98 0 3 0 C3 1.32 3 2.64 3 4 C2.01 4 1.02 4 0 4 C0.33 4.99 0.66 5.98 1 7 C-0.65 7 -2.3 7 -4 7 C-4 6.01 -4 5.02 -4 4 C-3.01 3.67 -2.02 3.34 -1 3 C-0.67 2.01 -0.34 1.02 0 0 Z " fill="#E6E6E6" transform="translate(212,136)"/>
<path d="M0 0 C0.99 0 1.98 0 3 0 C3 1.98 3 3.96 3 6 C2.01 6.33 1.02 6.66 0 7 C-0.99 6.01 -1.98 5.02 -3 4 C-2.01 3.67 -1.02 3.34 0 3 C0 2.01 0 1.02 0 0 Z " fill="#F4F4F4" transform="translate(25,83)"/>
<path d="M0 0 C0.99 0.33 1.98 0.66 3 1 C3.33 1.99 3.66 2.98 4 4 C2.68 4 1.36 4 0 4 C0 4.99 0 5.98 0 7 C-1.32 7 -2.64 7 -4 7 C-4 6.01 -4 5.02 -4 4 C-3.01 3.67 -2.02 3.34 -1 3 C-0.67 2.01 -0.34 1.02 0 0 Z " fill="#F7F7F7" transform="translate(4,197)"/>
<path d="M0 0 C1.32 0 2.64 0 4 0 C4 0.99 4 1.98 4 3 C4.99 3 5.98 3 7 3 C7 3.99 7 4.98 7 6 C4.69 5.34 2.38 4.68 0 4 C0 2.68 0 1.36 0 0 Z " fill="#DCDCDC" transform="translate(32,158)"/>
<path d="M0 0 C0.66 0 1.32 0 2 0 C2.33 3.3 2.66 6.6 3 10 C2.01 10.33 1.02 10.66 0 11 C0 8.69 0 6.38 0 4 C-0.99 3.67 -1.98 3.34 -3 3 C-2.01 3 -1.02 3 0 3 C0 2.01 0 1.02 0 0 Z " fill="#D6D6D6" transform="translate(132,154)"/>
<path d="M0 0 C2.9375 0.375 2.9375 0.375 6 1 C6.33 1.66 6.66 2.32 7 3 C6.67 3.99 6.34 4.98 6 6 C5.01 6 4.02 6 3 6 C3 5.01 3 4.02 3 3 C2.01 3 1.02 3 0 3 C0 2.01 0 1.02 0 0 Z " fill="#E5E5E5" transform="translate(115,126)"/>
<path d="M0 0 C2.375 -0.125 2.375 -0.125 5 0 C7 2 7 2 7 6 C5.68 6 4.36 6 3 6 C3 4.68 3 3.36 3 2 C2.01 2 1.02 2 0 2 C0 1.34 0 0.68 0 0 Z " fill="#FBFBFB" transform="translate(54,91)"/>
<path d="M0 0 C2.69082872 0.17635452 5.32851446 0.61835921 8 1 C6.6875 3.5 6.6875 3.5 5 6 C4.01 6 3.02 6 2 6 C2 4.68 2 3.36 2 2 C1.01 1.67 0.02 1.34 -1 1 C-0.67 0.67 -0.34 0.34 0 0 Z " fill="#DBDBDB" transform="translate(59,91)"/>
<path d="M0 0 C0.99 0 1.98 0 3 0 C3 1.32 3 2.64 3 4 C2.01 4 1.02 4 0 4 C0 4.99 0 5.98 0 7 C-1.32 7 -2.64 7 -4 7 C-4 6.01 -4 5.02 -4 4 C-3.01 3.67 -2.02 3.34 -1 3 C-0.67 2.01 -0.34 1.02 0 0 Z " fill="#FCFCFC" transform="translate(11,18)"/>
<path d="M0 0 C1.32 0.66 2.64 1.32 4 2 C2.02 2.99 2.02 2.99 0 4 C0 4.99 0 5.98 0 7 C-0.99 7 -1.98 7 -3 7 C-3.33 5.68 -3.66 4.36 -4 3 C-2.68 3 -1.36 3 0 3 C0 2.01 0 1.02 0 0 Z " fill="#E0E0E0" transform="translate(25,215)"/>
<path d="M0 0 C0.99 0 1.98 0 3 0 C3 1.32 3 2.64 3 4 C2.01 4 1.02 4 0 4 C-0.33 4.99 -0.66 5.98 -1 7 C-1.99 7 -2.98 7 -4 7 C-4 6.01 -4 5.02 -4 4 C-3.01 3.67 -2.02 3.34 -1 3 C-0.67 2.01 -0.34 1.02 0 0 Z " fill="#E8E8E8" transform="translate(4,136)"/>
<path d="M0 0 C1.32 0 2.64 0 4 0 C4 1.32 4 2.64 4 4 C3.01 4 2.02 4 1 4 C1 4.66 1 5.32 1 6 C-0.32 6 -1.64 6 -3 6 C-3 5.34 -3 4.68 -3 4 C-2.01 4 -1.02 4 0 4 C0 2.68 0 1.36 0 0 Z " fill="#F9F9F9" transform="translate(168,3)"/>
<path d="M0 0 C0.99 0 1.98 0 3 0 C3 1.32 3 2.64 3 4 C4.32 4.33 5.64 4.66 7 5 C3.37 5 -0.26 5 -4 5 C-2.68 4.67 -1.36 4.34 0 4 C0 2.68 0 1.36 0 0 Z " fill="#EAEAEA" transform="translate(183,229)"/>
<path d="M0 0 C0.99 0 1.98 0 3 0 C3 1.32 3 2.64 3 4 C4.32 4.33 5.64 4.66 7 5 C3.37 5 -0.26 5 -4 5 C-2.68 4.67 -1.36 4.34 0 4 C0 2.68 0 1.36 0 0 Z " fill="#FAFAFA" transform="translate(158,229)"/>
<path d="M0 0 C0.33 1.32 0.66 2.64 1 4 C2.32 4 3.64 4 5 4 C5 4.99 5 5.98 5 7 C3.68 7 2.36 7 1 7 C0.67 8.32 0.34 9.64 0 11 C0 7.37 0 3.74 0 0 Z " fill="#FAFAFA" transform="translate(110,179)"/>
<path d="M0 0 C1.32 0 2.64 0 4 0 C4 1.32 4 2.64 4 4 C4.99 4.33 5.98 4.66 7 5 C4.36 5 1.72 5 -1 5 C-0.67 3.35 -0.34 1.7 0 0 Z " fill="#D8D8D8" transform="translate(75,100)"/>
<path d="M0 0 C1.32 0 2.64 0 4 0 C4.33 0.99 4.66 1.98 5 3 C2.36 3.99 -0.28 4.98 -3 6 C-3 5.01 -3 4.02 -3 3 C-2.01 3 -1.02 3 0 3 C0 2.01 0 1.02 0 0 Z " fill="#E1E1E1" transform="translate(179,90)"/>
<path d="M0 0 C0.99 0 1.98 0 3 0 C3 3.3 3 6.6 3 10 C2.34 10 1.68 10 1 10 C0.67 6.7 0.34 3.4 0 0 Z " fill="#F7F7F7" transform="translate(212,140)"/>
<path d="M0 0 C0 0.99 0 1.98 0 3 C-0.66 3 -1.32 3 -2 3 C-2 3.99 -2 4.98 -2 6 C-4.86724686 5.42655063 -5.8614515 5.1385485 -8 3 C-5.36 2.01 -2.72 1.02 0 0 Z " fill="#DADADA" transform="translate(174,83)"/>
<path d="M0 0 C0.99 0 1.98 0 3 0 C3 0.66 3 1.32 3 2 C3.66 2.33 4.32 2.66 5 3 C1.62902617 4.49821059 -0.20442119 5 -4 5 C-4 4.34 -4 3.68 -4 3 C-2.68 3 -1.36 3 0 3 C0 2.01 0 1.02 0 0 Z " fill="#F5F5F5" transform="translate(47,4)"/>
<path d="M0 0 C0.33 0.99 0.66 1.98 1 3 C1.99 3.33 2.98 3.66 4 4 C0.37 4.66 -3.26 5.32 -7 6 C-7 5.01 -7 4.02 -7 3 C-4.69 3 -2.38 3 0 3 C0 2.01 0 1.02 0 0 Z " fill="#D4D4D4" transform="translate(64,0)"/>
<path d="M0 0 C0 0.66 0 1.32 0 2 C-2.70879335 3.35439668 -5.00933268 3.06501451 -8 3 C-8.33 2.34 -8.66 1.68 -9 1 C-6.04335481 -0.4783226 -3.25770263 -0.06032783 0 0 Z " fill="#DBDBDB" transform="translate(143,0)"/>
<path d="M0 0 C0.66 0.99 1.32 1.98 2 3 C1.34 3 0.68 3 0 3 C-0.33 4.32 -0.66 5.64 -1 7 C-1.99 7 -2.98 7 -4 7 C-4 5.68 -4 4.36 -4 3 C-3.01 3 -2.02 3 -1 3 C-0.67 2.01 -0.34 1.02 0 0 Z " fill="#E1E1E1" transform="translate(4,194)"/>
<path d="M0 0 C0.33 1.32 0.66 2.64 1 4 C1.99 4 2.98 4 4 4 C4 4.99 4 5.98 4 7 C2.68 7 1.36 7 0 7 C-0.66 5.02 -1.32 3.04 -2 1 C-1.34 0.67 -0.68 0.34 0 0 Z " fill="#E3E3E3" transform="translate(85,186)"/>
<path d="M0 0 C0.33 0.99 0.66 1.98 1 3 C-0.32 3 -1.64 3 -3 3 C-3 4.32 -3 5.64 -3 7 C-3.99 7 -4.98 7 -6 7 C-6 5.68 -6 4.36 -6 3 C-4.02 2.01 -2.04 1.02 0 0 Z " fill="#E0E0E0" transform="translate(189,147)"/>
<path d="M0 0 C1.32 0 2.64 0 4 0 C4 1.32 4 2.64 4 4 C4.99 4.33 5.98 4.66 7 5 C4.69 4.67 2.38 4.34 0 4 C0 2.68 0 1.36 0 0 Z " fill="#FBFBFB" transform="translate(172,229)"/>
<path d="M0 0 C2.475 0.495 2.475 0.495 5 1 C5 2.32 5 3.64 5 5 C4.01 5 3.02 5 2 5 C1.67 5.66 1.34 6.32 1 7 C0.67 4.69 0.34 2.38 0 0 Z " fill="#DBDBDB" transform="translate(81,178)"/>
<path d="M0 0 C2.64 0 5.28 0 8 0 C8 0.66 8 1.32 8 2 C5.36 2.33 2.72 2.66 0 3 C0 2.01 0 1.02 0 0 Z " fill="#D9D9D9" transform="translate(151,168)"/>
<path d="M0 0 C2.5654594 2.5654594 2.54046087 4.47686668 3 8 C2.01 8 1.02 8 0 8 C0 6.02 0 4.04 0 2 C-0.99 1.67 -1.98 1.34 -3 1 C-2.01 0.67 -1.02 0.34 0 0 Z " fill="#DDDDDD" transform="translate(129,142)"/>
<path d="M0 0 C1.33617352 0.97528737 2.6688751 1.95533319 4 2.9375 C4.7425 3.48277344 5.485 4.02804688 6.25 4.58984375 C6.8275 5.05519531 7.405 5.52054688 8 6 C8 6.33 8 6.66 8 7 C6.35 7 4.7 7 3 7 C3 6.01 3 5.02 3 4 C2.01 4 1.02 4 0 4 C0 2.68 0 1.36 0 0 Z " fill="#DADADA" transform="translate(11,136)"/>
<path d="M0 0 C0.33 0.66 0.66 1.32 1 2 C2.32 2 3.64 2 5 2 C5 3.32 5 4.64 5 6 C3.68 6 2.36 6 1 6 C0.34 4.35 -0.32 2.7 -1 1 C-0.67 0.67 -0.34 0.34 0 0 Z " fill="#E7E7E7" transform="translate(203,62)"/>
<path d="M0 0 C1.32 0 2.64 0 4 0 C4 0.99 4 1.98 4 3 C3.01 3 2.02 3 1 3 C0.67 4.32 0.34 5.64 0 7 C-0.93423645 3.98968256 -1.04449911 3.13349732 0 0 Z " fill="#EBEBEB" transform="translate(107,219)"/>
<path d="M0 0 C1.32 0 2.64 0 4 0 C3.67 1.32 3.34 2.64 3 4 C2.01 4 1.02 4 0 4 C-0.33 4.99 -0.66 5.98 -1 7 C-0.67 4.69 -0.34 2.38 0 0 Z " fill="#FBFBFB" transform="translate(111,197)"/>
<path d="M0 0 C0.33 0.99 0.66 1.98 1 3 C3.97 3.495 3.97 3.495 7 4 C7 4.99 7 5.98 7 7 C5.68 7 4.36 7 3 7 C3 6.01 3 5.02 3 4 C2.01 4 1.02 4 0 4 C0 2.68 0 1.36 0 0 Z " fill="#FDFDFD" transform="translate(133,161)"/>
<path d="M0 0 C-0.66 0 -1.32 0 -2 0 C-2 1.32 -2 2.64 -2 4 C-3.32 4 -4.64 4 -6 4 C-6 2.68 -6 1.36 -6 0 C-3 -1 -3 -1 0 0 Z " fill="#FAFAFA" transform="translate(38,154)"/>
<path d="M0 0 C1.32 0 2.64 0 4 0 C4 1.32 4 2.64 4 4 C2.02 4.33 0.04 4.66 -2 5 C-1.34 4.67 -0.68 4.34 0 4 C0 2.68 0 1.36 0 0 Z " fill="#FAFAFA" transform="translate(21,150)"/>
<path d="M0 0 C1.32 0 2.64 0 4 0 C3.67 1.32 3.34 2.64 3 4 C2.01 4 1.02 4 0 4 C-0.33 4.99 -0.66 5.98 -1 7 C-0.67 4.69 -0.34 2.38 0 0 Z " fill="#E9E9E9" transform="translate(111,129)"/>
<path d="M0 0 C1.32 0 2.64 0 4 0 C4 1.32 4 2.64 4 4 C4.66 4.33 5.32 4.66 6 5 C3.03 4.505 3.03 4.505 0 4 C0 2.68 0 1.36 0 0 Z " fill="#FBFBFB" transform="translate(129,100)"/>
<path d="M0 0 C2.31 0 4.62 0 7 0 C6.01 0.33 5.02 0.66 4 1 C4 1.99 4 2.98 4 4 C2.68 4 1.36 4 0 4 C0 2.68 0 1.36 0 0 Z " fill="#FCFCFC" transform="translate(111,96)"/>
<path d="M0 0 C2.31 0.33 4.62 0.66 7 1 C5.68 1.33 4.36 1.66 3 2 C3 2.66 3 3.32 3 4 C1.68 4 0.36 4 -1 4 C-0.67 2.68 -0.34 1.36 0 0 Z " fill="#D6D6D6" transform="translate(51,89)"/>
<path d="M0 0 C2.31 0 4.62 0 7 0 C7 0.66 7 1.32 7 2 C4.69 2.33 2.38 2.66 0 3 C0 2.01 0 1.02 0 0 Z " fill="#E0E0E0" transform="translate(161,97)"/>
<path d="M0 0 C2.31 0.66 4.62 1.32 7 2 C6.67 2.99 6.34 3.98 6 5 C4.68 4.67 3.36 4.34 2 4 C2 3.34 2 2.68 2 2 C1.34 2 0.68 2 0 2 C0 1.34 0 0.68 0 0 Z " fill="#D8D8D8" transform="translate(37,84)"/>
<path d="M0 0 C1.32 0.33 2.64 0.66 4 1 C3.67 4.3 3.34 7.6 3 11 C2.67 11 2.34 11 2 11 C2 8.36 2 5.72 2 3 C1.34 3 0.68 3 0 3 C0 2.01 0 1.02 0 0 Z " fill="#C5C5C5" transform="translate(0,40)"/>
<path d="M0 0 C1.98 0 3.96 0 6 0 C5.34 1.32 4.68 2.64 4 4 C2.68 3.67 1.36 3.34 0 3 C0 2.01 0 1.02 0 0 Z " fill="#E6E6E6" transform="translate(4,29)"/>
<path d="M0 0 C0.33 0.66 0.66 1.32 1 2 C1.99 2 2.98 2 4 2 C4 3.32 4 4.64 4 6 C3.01 6 2.02 6 1 6 C1 5.34 1 4.68 1 4 C0.34 3.67 -0.32 3.34 -1 3 C-0.67 2.01 -0.34 1.02 0 0 Z " fill="#DDDDDD" transform="translate(211,191)"/>
<path d="M0 0 C2 3 2 3 1.625 5.1875 C1.41875 5.785625 1.2125 6.38375 1 7 C1 6.01 1 5.02 1 4 C-0.32 4 -1.64 4 -3 4 C-3 3.01 -3 2.02 -3 1 C-2.01 0.67 -1.02 0.34 0 0 Z " fill="#DADADA" transform="translate(132,175)"/>
<path d="M0 0 C1.32 0 2.64 0 4 0 C4 0.99 4 1.98 4 3 C5.32 3.33 6.64 3.66 8 4 C5.36 3.67 2.72 3.34 0 3 C0 2.01 0 1.02 0 0 Z " fill="#D7D7D7" transform="translate(136,169)"/>
<path d="M0 0 C1.65 0 3.3 0 5 0 C4.67 1.32 4.34 2.64 4 4 C2.68 4 1.36 4 0 4 C0 2.68 0 1.36 0 0 Z " fill="#FBFBFB" transform="translate(14,143)"/>
<path d="M0 0 C0.66 1.32 1.32 2.64 2 4 C1.34 4 0.68 4 0 4 C0 4.66 0 5.32 0 6 C-0.99 6 -1.98 6 -3 6 C-3 4.68 -3 3.36 -3 2 C-2.01 2 -1.02 2 0 2 C0 1.34 0 0.68 0 0 Z " fill="#E2E2E2" transform="translate(3,123)"/>
<path d="M0 0 C0.99 0 1.98 0 3 0 C3 1.32 3 2.64 3 4 C4.32 4.33 5.64 4.66 7 5 C4.69 4.67 2.38 4.34 0 4 C0 2.68 0 1.36 0 0 Z " fill="#D9D9D9" transform="translate(133,100)"/>
<path d="M0 0 C1.32 0 2.64 0 4 0 C4 1.32 4 2.64 4 4 C3.01 4.33 2.02 4.66 1 5 C0.67 3.35 0.34 1.7 0 0 Z " fill="#F9F9F9" transform="translate(204,32)"/>
</svg>
