<?xml version="1.0" encoding="UTF-8"?>
<svg version="1.1" xmlns="http://www.w3.org/2000/svg" width="238" height="212">
<path d="M0 0 C78.54 0 157.08 0 238 0 C238 69.96 238 139.92 238 212 C159.46 212 80.92 212 0 212 C0 142.04 0 72.08 0 0 Z " fill="#80E1FB" transform="translate(0,0)"/>
<path d="M0 0 C0.33 0 0.66 0 1 0 C1 33.66 1 67.32 1 102 C-21.11 102 -43.22 102 -66 102 C-63.54994331 100.77497166 -61.09306581 99.56332798 -58.625 98.375 C-51.8239783 94.40530493 -48.68425429 88.17768944 -46.59765625 80.82324219 C-45.54873627 75.86829502 -45.55936877 70.98446326 -45.625 65.9375 C-45.63080078 64.85218994 -45.63660156 63.76687988 -45.64257812 62.64868164 C-45.78799558 53.53518147 -46.9509976 44.86681394 -49 36 C-47.64583333 35.45833333 -46.29166667 34.91666667 -44.9375 34.375 C-44.02742188 34.00761719 -43.11734375 33.64023438 -42.1796875 33.26171875 C-39.92307051 32.36627982 -37.65621844 31.49644471 -35.3828125 30.64453125 C-27.27870366 27.57938184 -20.09579543 24.06842531 -13 19 C-12.40703125 18.60296875 -11.8140625 18.2059375 -11.203125 17.796875 C-5.66016905 13.73965982 -1.32322345 6.74065595 0 0 Z " fill="#FEFEFE" transform="translate(237,110)"/>
<path d="M0 0 C0.66 1.32 1.32 2.64 2 4 C11.41908227 22.71087964 31.31797908 29.44141819 50 36 C49.7834375 36.96035156 49.566875 37.92070312 49.34375 38.91015625 C47.51940118 47.63238418 46.69904138 56.08356427 46.6875 65 C46.68234375 65.95398682 46.6771875 66.90797363 46.671875 67.89086914 C46.76417161 77.33066924 47.93066683 87.55650176 54.640625 94.76171875 C57.84200957 97.63600533 60.82685035 99.7354092 65 101 C65 101.33 65 101.66 65 102 C43.55 102 22.1 102 0 102 C0 68.34 0 34.68 0 0 Z " fill="#FEFEFE" transform="translate(0,110)"/>
<path d="M0 0 C21.45 0 42.9 0 65 0 C64.01 0.66 63.02 1.32 62 2 C52.88472093 8.21411222 49.26670009 14.2172702 47 25 C46.6122151 28.70080968 46.57107671 32.34403976 46.625 36.0625 C46.63080078 37.04677979 46.63660156 38.03105957 46.64257812 39.04516602 C46.80248586 48.21839195 48.12011898 57.03699584 50 66 C49.43716309 66.20044922 48.87432617 66.40089844 48.29443359 66.60742188 C27.0922744 74.22931077 10.44651486 81.10697028 0 102 C0 68.34 0 34.68 0 0 Z " fill="#FEFEFE" transform="translate(0,0)"/>
<path d="M0 0 C21.45 0 42.9 0 65 0 C65 33.33 65 66.66 65 101 C63 98 63 98 61.84375 95.80078125 C53.863375 81.02316825 37.9778814 74.00861968 22.5625 69.125 C21.32628906 68.75632812 20.09007812 68.38765625 18.81640625 68.0078125 C16 67 16 67 15 65 C15.30373472 63.31140485 15.61710492 61.62395524 15.97973633 59.94702148 C17.69980924 51.92643617 18.30788442 44.13674196 18.3125 35.9375 C18.31757568 34.97497314 18.32265137 34.01244629 18.32788086 33.02075195 C18.23929241 23.84825561 16.84551544 14.21469757 10.359375 7.234375 C7.15545676 4.36477866 4.17227064 2.26432444 0 1 C0 0.67 0 0.34 0 0 Z " fill="#FEFEFE" transform="translate(173,0)"/>
<path d="M0 0 C14.43295311 3.55501942 25.18567354 13.38551122 36 23 C31.6960446 28.90195864 27.10096164 34.51070861 22.3671875 40.0703125 C19.88632314 42.88333964 19.88632314 42.88333964 18.56640625 46.21875 C14.20070032 50.94992599 8.23561347 50.69704598 2.0625 51.375 C0.14920898 51.62056641 0.14920898 51.62056641 -1.80273438 51.87109375 C-6.89047189 52.50606047 -11.86694038 53.10166843 -17 53 C-20.23656658 39.20606149 -24.03141231 20.14568389 -17 7 C-11.83451546 0.80141856 -7.81682446 -0.93282346 0 0 Z " fill="#FDFEFE" transform="translate(76,10)"/>
<path d="M0 0 C1.6552641 4.20468439 3.2975309 8.414329 4.9375 12.625 C5.64036133 14.40970703 5.64036133 14.40970703 6.35742188 16.23046875 C6.80537109 17.38417969 7.25332031 18.53789063 7.71484375 19.7265625 C8.12855225 20.78439941 8.54226074 21.84223633 8.96850586 22.93212891 C10.92236918 28.74331151 11.34617069 32.21770709 8.98046875 37.94921875 C8.53509766 39.04427734 8.08972656 40.13933594 7.63085938 41.26757812 C7.15455078 42.39615234 6.67824219 43.52472656 6.1875 44.6875 C5.72279297 45.82767578 5.25808594 46.96785156 4.77929688 48.14257812 C1.34706805 56.47939792 1.34706805 56.47939792 -1 60 C-15.26390319 56.28747725 -30.24689641 50.56070528 -40 39 C-42.38597425 34.73433046 -43.78620275 31.91376718 -43 27 C-37.08610855 13.61160686 -23.35485499 7.86537411 -10.625 2.60546875 C-3.70163428 0 -3.70163428 0 0 0 Z " fill="#FDFEFE" transform="translate(53,76)"/>
<path d="M0 0 C4.53967865 2.95974409 6.40713005 7.58801548 7.76953125 12.671875 C9.73389398 25.96345084 8.1682637 38.77577318 4.1875 51.5 C2.7334375 51.31824219 2.7334375 51.31824219 1.25 51.1328125 C0.61030273 51.05401855 -0.02939453 50.97522461 -0.68847656 50.89404297 C-2.12392431 50.71221959 -3.55819424 50.52088357 -4.99121094 50.32080078 C-8.69441934 49.81699032 -12.27567329 49.45259071 -16.015625 49.484375 C-25.67486849 49.36050886 -25.67486849 49.36050886 -29.54882812 45.98876953 C-32.98917521 42.12091769 -35.7561217 37.83248353 -38.51367188 33.46435547 C-41.1695171 29.44763917 -44.51480717 25.99167477 -47.8125 22.5 C-44.548147 17.96155003 -40.75435484 14.85966047 -36.3125 11.5625 C-35.25542847 10.7729895 -35.25542847 10.7729895 -34.17700195 9.9675293 C-24.81149158 3.12223887 -11.84897746 -5.80932588 0 0 Z " fill="#FDFEFE" transform="translate(173.8125,11.5)"/>
<path d="M0 0 C3.29747914 0.19798529 6.5799162 0.48783123 9.8671875 0.8125 C11.40438959 0.94763865 12.94399122 1.05640199 14.484375 1.1484375 C30.71840398 2.14526384 30.71840398 2.14526384 35.96484375 6.41015625 C38.21671965 9.50088646 40.07709777 12.69607014 42 16 C43.92877719 18.49841605 45.98549194 20.87430279 48.0625 23.25 C49.01229881 24.35887842 49.96157075 25.46820849 50.91015625 26.578125 C51.59980469 27.37734375 52.28945312 28.1765625 53 29 C49.7143712 33.58303094 45.86019605 36.68348917 41.375 40 C40.6629541 40.52964355 39.9509082 41.05928711 39.21728516 41.60498047 C34.06980449 45.36673555 28.92581524 48.59085353 23 51 C21.989375 51.433125 20.97875 51.86625 19.9375 52.3125 C14.35122609 53.61992581 9.82989295 53.91494647 4.625 51.3125 C-0.38807553 46.89621918 -2.57501504 41.41954495 -3.20849609 34.83178711 C-3.30533943 32.4258194 -3.32749645 30.03286814 -3.3125 27.625 C-3.31121094 26.76100586 -3.30992188 25.89701172 -3.30859375 25.00683594 C-3.18380741 16.47457018 -1.81021024 8.31834707 0 0 Z " fill="#FDFEFE" transform="translate(59,149)"/>
<path d="M0 0 C3.24218682 14.16526859 6.32503539 31.24555797 0 45 C-3.01050915 48.78243457 -6.14791205 51.52280241 -11.0078125 52.3359375 C-27.78484684 52.64547688 -41.1351384 39.41045921 -53 29 C-48.71858237 23.08259352 -44.09968433 17.48779125 -39.3671875 11.9296875 C-36.88695576 9.11700752 -36.88695576 9.11700752 -35.56640625 5.78515625 C-31.19926902 1.04578205 -25.24136931 1.26287561 -19.0625 0.5625 C-17.78697266 0.39041016 -16.51144531 0.21832031 -15.19726562 0.04101562 C-4.94998676 -1.26474671 -4.94998676 -1.26474671 0 0 Z " fill="#FDFEFE" transform="translate(179,150)"/>
<path d="M0 0 C16.5060029 3.67188624 32.74728235 10.42443024 42.3125 25 C43.53985455 28.57048598 43.70104121 31.39901752 42.16015625 34.91796875 C34.29940159 48.60150464 18.66602316 54.85215617 4.2578125 59.40625 C2 60 2 60 0 60 C-0.26216309 59.29391602 -0.52432617 58.58783203 -0.79443359 57.86035156 C-1.98564623 54.65603697 -3.18028455 51.45301014 -4.375 48.25 C-4.7875 47.13882813 -5.2 46.02765625 -5.625 44.8828125 C-6.02460938 43.81289062 -6.42421875 42.74296875 -6.8359375 41.640625 C-7.20251465 40.65610352 -7.5690918 39.67158203 -7.94677734 38.65722656 C-8.93133885 36.03946537 -8.93133885 36.03946537 -10.14331055 33.80932617 C-11.78847508 30.33474243 -10.37949899 27.11189763 -9.19189453 23.63232422 C-8.18240494 20.88661423 -7.13036115 18.16101845 -6.0625 15.4375 C-5.70220703 14.50486328 -5.34191406 13.57222656 -4.97070312 12.61132812 C-3.33964738 8.39701651 -1.68222985 4.19414834 0 0 Z " fill="#FDFEFE" transform="translate(185,76)"/>
<path d="M0 0 C6.2774232 2.81818806 11.11559308 7.96767734 13.71484375 14.34765625 C14.65484151 21.38670928 14.03954352 27.58559271 9.71484375 33.34765625 C4.7477364 38.5222066 0.27980941 41.6240754 -7.03515625 41.78515625 C-13.93894692 41.65902122 -17.94418652 39.61172387 -22.8125 34.85546875 C-27.68868249 29.39979791 -28.80787306 24.25622868 -28.6640625 17.1328125 C-27.87009118 11.29671403 -24.55630976 7.26598146 -20.22265625 3.47265625 C-13.87198938 -1.12144319 -7.69119098 -2.19560495 0 0 Z " fill="#60DAFB" transform="translate(126.28515625,85.65234375)"/>
<path d="M0 0 C3.44042276 1.48669852 5.69242086 3.46689868 8.375 6.0625 C18.08700266 14.91881961 28.53161467 20.87839089 41 25 C41 25.33 41 25.66 41 26 C14.27 26 -12.46 26 -40 26 C-37.225929 24.15061933 -35.37669199 23.44748242 -32.25 22.5 C-19.74649207 18.03446145 -9.37734794 9.16289716 0 0 Z " fill="#FDFEFE" transform="translate(118,186)"/>
<path d="M0 0 C27.72 0 55.44 0 84 0 C80.66735801 1.666321 77.56643511 2.85409716 74.0625 4.0625 C61.82964854 8.74742184 52.31994596 17.05359897 43 26 C39.55957724 24.51330148 37.30757914 22.53310132 34.625 19.9375 C24.81174524 10.96372721 13.24143509 3.42022715 0 1 C0 0.67 0 0.34 0 0 Z " fill="#FCFEFE" transform="translate(77,0)"/>
<path d="M0 0 C9.24 0 18.48 0 28 0 C25.03 3.96 25.03 3.96 22 8 C21.32453125 8.9075 20.6490625 9.815 19.953125 10.75 C19.11007813 11.86375 19.11007813 11.86375 18.25 13 C17.67765625 13.763125 17.1053125 14.52625 16.515625 15.3125 C16.01546875 15.869375 15.5153125 16.42625 15 17 C14.34 17 13.68 17 13 17 C11.47770984 15.34840333 10.03099807 13.62665873 8.625 11.875 C7.46871094 10.44800781 7.46871094 10.44800781 6.2890625 8.9921875 C4.06660318 6.08706149 2.02895066 3.04342599 0 0 Z " fill="#F4FCFE" transform="translate(105,154)"/>
<path d="M0 0 C-0.51949219 0.90621094 -1.03898437 1.81242187 -1.57421875 2.74609375 C-5.42684075 9.47339291 -9.26248351 16.20778253 -13 23 C-16.37478448 20.3080898 -17.30155263 16.99552395 -18.6875 13 C-19.12449219 11.7625 -19.56148438 10.525 -20.01171875 9.25 C-21 6 -21 6 -21 3 C-18.81462633 2.49078672 -16.62657569 1.99305563 -14.4375 1.5 C-12.61025391 1.08234375 -12.61025391 1.08234375 -10.74609375 0.65625 C-7.07777293 0.01362446 -3.71497397 -0.11474823 0 0 Z " fill="#F9FDFE" transform="translate(84,70)"/>
<path d="M0 0 C3.37478448 2.6919102 4.30155263 6.00447605 5.6875 10 C6.12449219 11.2375 6.56148437 12.475 7.01171875 13.75 C8 17 8 17 8 20 C5.6263603 20.50734284 3.25142575 21.00602386 0.875 21.5 C-0.12273437 21.71462891 -0.12273437 21.71462891 -1.140625 21.93359375 C-5.16056422 22.7612283 -8.89904899 23.15330658 -13 23 C-12.22076172 21.64068359 -12.22076172 21.64068359 -11.42578125 20.25390625 C-7.57315925 13.52660709 -3.73751649 6.79221747 0 0 Z " fill="#F9FDFE" transform="translate(167,119)"/>
<path d="M0 0 C2.93797442 0.30847234 5.87532282 0.62160223 8.8125 0.9375 C10.06256836 1.06801758 10.06256836 1.06801758 11.33789062 1.20117188 C12.14033203 1.28818359 12.94277344 1.37519531 13.76953125 1.46484375 C14.50792236 1.543396 15.24631348 1.62194824 16.00708008 1.70288086 C18 2 18 2 21 3 C19.70024676 9.71539173 17.70071112 15.72019113 15 22 C14.01 22 13.02 22 12 22 C11.46890625 20.99839844 10.9378125 19.99679688 10.390625 18.96484375 C9.67714013 17.62236564 8.96359525 16.27991943 8.25 14.9375 C7.90195313 14.28072266 7.55390625 13.62394531 7.1953125 12.94726562 C4.87417105 8.58437938 2.47105672 4.27982572 0 0 Z " fill="#F9FDFE" transform="translate(154,70)"/>
<path d="M0 0 C2.37134869 2.18268938 3.90164546 4.33762092 5.4453125 7.16015625 C6.10080078 8.3502832 6.10080078 8.3502832 6.76953125 9.56445312 C7.21683594 10.38880859 7.66414063 11.21316406 8.125 12.0625 C8.80755859 13.30483398 8.80755859 13.30483398 9.50390625 14.57226562 C12.70089286 20.40178571 12.70089286 20.40178571 14 23 C6.80729161 22.53752467 -0.0030827 21.74922933 -7 20 C-3.88 3.88 -3.88 3.88 0 0 Z " fill="#FAFDFE" transform="translate(70,119)"/>
<path d="M0 0 C0.66 0 1.32 0 2 0 C3.54331236 1.67216576 5.01114909 3.41451538 6.4375 5.1875 C7.21996094 6.15042969 8.00242187 7.11335938 8.80859375 8.10546875 C11 11 11 11 14 16 C5.42 16 -3.16 16 -12 16 C-9.6381645 12.0636075 -7.31246258 8.72555115 -4.4375 5.1875 C-3.65246094 4.21167969 -2.86742188 3.23585937 -2.05859375 2.23046875 C-1.37925781 1.49441406 -0.69992188 0.75835937 0 0 Z " fill="#FCFEFE" transform="translate(118,41)"/>
</svg>
